<?xml version="1.0" encoding="UTF-8" standalone="no"?>
<!-- Created with Inkscape (http://www.inkscape.org/) -->

<svg
   xmlns:dc="http://purl.org/dc/elements/1.1/"
   xmlns:cc="http://creativecommons.org/ns#"
   xmlns:rdf="http://www.w3.org/1999/02/22-rdf-syntax-ns#"
   xmlns:svg="http://www.w3.org/2000/svg"
   xmlns="http://www.w3.org/2000/svg"
   xmlns:sodipodi="http://sodipodi.sourceforge.net/DTD/sodipodi-0.dtd"
   xmlns:inkscape="http://www.inkscape.org/namespaces/inkscape"
   version="1.1"
   id="svg4518"
   width="1050"
   height="650"
   viewBox="0 0 1050 650"
   sodipodi:docname="p1.svg"
   inkscape:version="0.92.3 (2405546, 2018-03-11)">
  <metadata
     id="metadata4524">
    <rdf:RDF>
      <cc:Work
         rdf:about="">
        <dc:format>image/svg+xml</dc:format>
        <dc:type
           rdf:resource="http://purl.org/dc/dcmitype/StillImage" />
        <dc:title></dc:title>
      </cc:Work>
    </rdf:RDF>
  </metadata>
  <defs
     id="defs4522" />
  <sodipodi:namedview
     pagecolor="#ffffff"
     bordercolor="#666666"
     borderopacity="1"
     objecttolerance="10"
     gridtolerance="10"
     guidetolerance="10"
     inkscape:pageopacity="0"
     inkscape:pageshadow="2"
     inkscape:window-width="1858"
     inkscape:window-height="1057"
     id="namedview4520"
     showgrid="false"
     inkscape:zoom="1.2971429"
     inkscape:cx="525"
     inkscape:cy="325"
     inkscape:window-x="54"
     inkscape:window-y="-8"
     inkscape:window-maximized="1"
     inkscape:current-layer="svg4518" />
  <path
     inkscape:connector-curvature="0"
     id="path4540"
     d="m 296,614.02312 c -10.1856,-0.61705 -46.67555,-8.1308 -56.73736,-11.68295 -4.9773,-1.75715 -8.25504,-5.86465 -8.97737,-11.24997 -0.45863,-3.41939 1.22758,-7.2353 16.21879,-36.70317 41.00583,-80.60423 41.46472,-81.43084 65.31548,-117.65662 7.32575,-11.12673 18.07999,-27.79065 23.8983,-37.03095 10.44718,-16.59158 10.5916,-16.90425 11.61191,-25.13957 l 1.03315,-8.33904 -4.23156,-7.00348 c -4.09775,-6.782 -4.49089,-7.11794 -12.43146,-10.62268 -8.04485,-3.55078 -8.95611,-3.70666 -48.19988,-8.24562 -25.84719,-2.9895 -43.5382,-4.56827 -50,-4.46206 -8.77128,0.14416 -25.93632,-1.52387 -82.29136,-7.99675 -7.76999,-0.89245 -11.22841,-0.90131 -14.11602,-0.0362 -2.10356,0.63024 -6.24745,1.14374 -9.20864,1.1411 -9.41882,-0.008 -37.51068,-3.75081 -40.757423,-5.42976 -3.422614,-1.76991 -6.763094,-7.05401 -5.106578,-8.0778 2.336781,-1.44421 -0.416251,-2.26206 -5.931154,-1.76199 -3.250719,0.29477 -7.068691,0.24523 -8.484382,-0.11009 -3.275906,-0.8222 -4.407584,-4.74088 -2.29864,-7.95953 0.839452,-1.28117 6.098413,-13.76539 11.686579,-27.74272 C 82.580548,263.936 88.092917,250.9762 89.242092,249.11378 92.018657,244.61391 99,230.32948 99,229.14827 99,227.89523 101.52482,227 105.05873,227 c 3.17466,0 4.83572,-1.95363 7.04841,-8.28986 0.7279,-2.08442 2.01813,-4.41852 2.86716,-5.18689 2.50441,-2.26645 25.42387,-6.57726 40.51335,-7.61994 12.93976,-0.89414 14.1384,-1.14634 16,-3.36656 1.64384,-1.96051 4.30139,-2.85287 14.51235,-4.87301 6.875,-1.36015 17.77491,-3.01828 24.22203,-3.68473 l 11.72203,-1.21174 5.27797,-7.06027 c 6.66413,-8.91451 9.94792,-10.65352 21.53464,-11.40419 9.38032,-0.60773 15.84516,0.75967 22.69266,4.79979 l 3.08758,1.82172 4.18474,-5.40844 c 5.81077,-7.50996 7.85226,-8.60725 17.20639,-9.2484 9.86297,-0.67602 15.28863,0.71556 22.50833,5.77297 10.90141,7.63646 13.58395,8.77441 19.06363,8.08689 l 5,-0.62734 -0.30758,-10.82196 c -0.37135,-13.06556 1.94991,-21.61606 7.5515,-27.81635 L 353.23272,137 h 40.94266 c 23.3158,0 40.70852,-0.37883 40.39883,-0.87993 -0.2991,-0.48396 -2.77272,-1.60896 -5.49691,-2.5 C 424.92925,132.26332 418.91301,132 392.0621,132 H 360 v -3.02033 c 0,-2.40467 1.8486,-5.05491 9.06898,-13.00173 4.98794,-5.48978 10.05044,-10.47527 11.25,-11.07889 1.19956,-0.60361 4.02483,-3.166 6.27837,-5.694207 3.67978,-4.128273 4.49507,-4.572199 8,-4.356009 2.14646,0.132398 48.84563,0.43652 103.77595,0.675827 59.56735,0.259508 100.328,0.811306 101,1.367289 0.77008,0.637134 0.95376,4.20431 0.58032,11.27012 -0.30051,5.68586 -0.18801,11.09585 0.25,12.02219 0.43801,0.92634 0.79638,15.90296 0.79638,33.28138 0,24.38628 0.28527,31.6933 1.25,32.01856 2.45688,0.82831 64.78444,2.68672 93.72042,2.79444 l 29.47042,0.10971 0.66669,-3.25975 c 0.36668,-1.79286 0.99323,-16.61774 1.39234,-32.94418 0.42376,-17.33523 1.14569,-30.20444 1.73533,-30.93442 0.72887,-0.90234 5.3561,-1.25426 16.63724,-1.26531 8.59516,-0.008 16.25201,-0.41077 17.01522,-0.8941 1.11987,-0.70919 1.31284,-4.13157 1,-17.73468 L 763.5,84.5 767,84.791601 c 6.86316,0.571801 8,-0.253921 8,-5.810653 C 775,74.155544 775.09023,74 777.88953,74 c 1.58924,0 6.42674,0.627457 10.75,1.394349 4.32326,0.766892 13.23145,2.193307 19.79599,3.169811 11.8669,1.765256 12.00105,1.762691 23.33506,-0.446195 8.82635,-1.720168 11.71894,-1.956588 12.81448,-1.047367 1.0049,0.833989 1.41938,3.529604 1.43025,9.301847 0.0173,9.200251 0.70067,10.945374 4.09778,10.465047 1.70253,-0.240725 3.01794,-1.657348 4.58776,-4.940744 1.21046,-2.531789 3.86052,-6.060469 5.88902,-7.841511 3.60479,-3.165051 3.87154,-3.230538 11.79915,-2.896748 L 880.5,81.5 l 0.31683,-4 c 0.36678,-4.630753 2.10612,-7.209088 2.32736,-3.45 0.0793,1.3475 0.19181,6.041394 0.25,10.430876 L 883.5,92.461752 894,92.317425 c 5.775,-0.07938 11.7375,-0.460734 13.25,-0.847453 2.35529,-0.602205 2.75,-0.39933 2.75,1.413451 0,2.48685 0.76973,2.374779 -14.65147,2.133215 l -12.15147,-0.190346 -0.54592,2.836854 C 881.51553,103.56428 880.83288,113 881.54157,113 c 0.40587,0 1.32071,-0.7875 2.03297,-1.75 1.17444,-1.58705 1.44203,-1.40081 2.87367,2 l 1.57863,3.75 h 11.55232 c 6.35378,0 12.33449,-0.4186 13.29046,-0.93022 2.426,-1.29836 4.49011,0.22146 3.69653,2.72179 C 915.58188,121.89274 910.82,123 898.46741,123 c -13.05468,0 -12.4698,-0.55232 -11.7864,11.1302 0.75822,12.96152 -0.49613,11.8698 13.63804,11.8698 13.66443,0 14.67268,-0.40822 14.69569,-5.95 0.0245,-5.89727 1.92541,-8.39818 7.41944,-9.76127 2.68517,-0.66621 5.26095,-0.97715 5.72397,-0.69099 1.36461,0.84338 0.92867,25.15967 -0.62048,34.60932 -3.00705,18.34273 -8.71502,32.22101 -15.71724,38.21465 -2.85454,2.44338 -5.77433,3.69914 -11.55368,4.96905 -4.25358,0.93466 -8.64121,2.54555 -9.75027,3.57977 -1.10906,1.03422 -3.58717,2.02644 -5.50691,2.20494 l -3.49043,0.32453 -1.56515,11 c -1.70303,11.96899 -6.88291,28.83285 -10.48801,34.14527 -1.44298,2.12634 -2.50872,5.61842 -2.92937,9.59853 -0.7033,6.65456 -4.97798,20.20214 -7.20644,22.83909 -0.73573,0.8706 -2.0339,3.62617 -2.88483,6.12351 -0.85093,2.49734 -2.53674,5.4458 -3.74624,6.55214 -2.39629,2.19191 -21.29815,7.41772 -33.6991,9.31681 -4.125,0.63171 -9.16957,1.99818 -11.21016,3.03661 -2.88207,1.46664 -5.89521,1.89033 -13.5,1.89828 -9.07376,0.01 -29.43568,2.70463 -48.78984,6.4579 -25.44189,4.93384 -66.80308,3.44599 -82.12052,-2.95405 C 661.38643,320.68134 658.68571,320 657.37788,320 655.0493,320 655,320.18753 655,329.04519 c 0,4.97485 -0.74116,13.50793 -1.64702,18.9624 l -1.64702,9.91721 2.64702,6.10351 c 1.45586,3.35694 2.65742,7.31136 2.67014,8.7876 0.0127,1.47625 -4.59979,14.73975 -10.25,29.47445 -10.1259,26.40642 -10.36964,26.90374 -17.00843,34.70252 l -6.73531,7.91217 -10.05119,3.10168 c -9.74745,3.00795 -10.7829,3.11842 -34.26469,3.65547 l -24.2135,0.55379 -7.13882,-4.62862 -7.13883,-4.62862 -20.76239,0.27062 -20.7624,0.27063 -3.05328,5.5 c -2.89013,5.2061 -3.05857,6.12123 -3.15217,17.12545 -0.161,18.93056 -2.78504,21.02256 -24.14858,19.2524 -7.05826,-0.58484 -7.18079,-0.55376 -8.92841,2.26459 -3.54112,5.71069 -8.78942,10.32115 -13.54842,11.90183 -4.40501,1.46312 -5.11683,2.19286 -9.42555,9.66289 -4.32291,7.49466 -4.61397,8.43241 -4.01611,12.93926 0.46148,3.47885 0.0327,7.20158 -1.50954,13.10629 -1.90468,7.29229 -2.70169,8.77372 -6.88293,12.7935 -2.74227,2.63638 -6.47053,5.06804 -8.87486,5.78839 -8.02652,2.40481 -8.86679,9.02288 -3.05628,24.0717 3.19269,8.26885 3.21203,11.06632 0.15514,22.43337 -1.29604,4.81931 -2.21893,6.26881 -5.28184,8.29575 -5.30455,3.51039 -11.72352,4.16293 -52.47473,5.33448 -37.68357,1.08337 -41.43905,1.08679 -58.5,0.0532 z m 36.13687,-17.76304 c 3.01135,-1.77885 4.52235,-5.09979 3.5149,-7.72517 -0.49241,-1.2832 -1.04504,-1.27025 -4.35785,0.10217 -5.32535,2.20617 -6.29392,3.2042 -6.29392,6.48536 0,3.45025 2.53726,3.85469 7.13687,1.13764 z M 263.6297,582.5826 c 1.08604,-4.27757 8.36162,-19.72408 10.28164,-21.82856 0.64067,-0.70221 15.81396,4.62093 42.14426,14.78517 9.14945,3.53195 12.82673,4.46079 17.6602,4.46079 5.61457,0 6.51186,-0.32191 11.17792,-4.01022 5.42462,-4.28792 6.43018,-6.42347 5.92587,-12.5851 -0.3195,-3.90359 -0.32083,-3.90468 -4.74764,-3.90468 -4.02154,0 -4.49791,0.2612 -5.18896,2.84512 -0.93596,3.49968 -3.53483,5.58105 -7.02118,5.62308 -1.451,0.0175 -11.576,-3.17124 -22.5,-7.08607 C 300.43782,556.96731 287.675,552.42302 283,550.78371 c -4.675,-1.6393 -8.86117,-3.31993 -9.30261,-3.73474 -0.44143,-0.4148 0.93134,-4.08301 3.0506,-8.15158 2.11926,-4.06856 5.07193,-10.24877 6.56149,-13.73379 l 2.70829,-6.33639 3.90589,0.65989 c 3.81522,0.64458 3.9681,0.55373 6.58613,-3.9136 1.47414,-2.51543 3.29348,-4.5735 4.04297,-4.5735 1.16525,0 26.38449,9.37194 47.20776,17.54328 4.33262,1.70018 8.2298,2.45672 12.65539,2.45672 5.87811,0 6.74594,-0.29195 10.73948,-3.61288 5.26353,-4.37703 5.41122,-4.63347 6.2103,-10.78353 0.77924,-5.99746 -0.19456,-7.33871 -4.92709,-6.78622 -3.00955,0.35135 -3.88454,1.00566 -5.03865,3.76784 -2.8776,6.88707 -6.43208,6.95947 -23.72884,0.48339 C 336.427,511.35633 325.55,507.33226 319.5,505.12622 c -18.65091,-6.80076 -20.50002,-7.57817 -20.49927,-8.61834 4e-4,-0.55433 2.15913,-4.60788 4.79718,-9.00788 5.99432,-9.99792 6.71518,-11.31698 8.13436,-14.88457 1.10188,-2.76994 1.3456,-2.8611 6.13326,-2.29407 4.94735,0.58594 5.00926,0.55807 8.03217,-3.61544 1.67551,-2.31325 3.57647,-4.48512 4.22434,-4.82637 0.64788,-0.34124 12.42796,3.81606 26.17796,9.23845 31.70304,12.50228 35.47798,12.79779 44.43539,3.47844 2.97507,-3.09528 3.49422,-4.38766 3.87452,-9.64519 l 0.43913,-6.071 -4.81588,0.30987 c -4.48454,0.28856 -4.87268,0.5304 -5.6415,3.51507 -0.96161,3.73311 -4.1477,6.29481 -7.82912,6.29481 -4.59294,0 -54.8619,-19.57415 -55.66874,-21.67677 -0.2585,-0.67363 2.53205,-5.59104 6.20123,-10.92757 3.66918,-5.33652 7.07269,-10.75867 7.56335,-12.04922 0.7623,-2.00499 1.58694,-2.34946 5.66687,-2.3672 5.23866,-0.0228 4.87004,0.3797 15.09339,-16.47924 2.57043,-4.2388 6.45692,-16.97593 7.32313,-24 0.19639,-1.59251 -2.87915,-16.6128 -4.78561,-23.37192 -0.27453,-0.9733 -1.3056,-1.18819 -3.54864,-0.73958 -1.73893,0.34778 -3.35236,0.82301 -3.58541,1.05606 -0.23305,0.23305 0.35586,3.73055 1.30868,7.77223 1.69617,7.19477 1.68645,7.55027 -0.46464,16.99283 -2.46323,10.81275 -1.58631,9.22841 -25.56615,46.19049 -29.40582,45.32558 -39.45595,62.49275 -60.06478,102.59989 -17.04039,33.16256 -20.40629,40.41963 -20.97899,45.23187 -0.37518,3.15253 -0.39087,6.89239 -0.0349,8.3108 0.54892,2.18705 1.12688,2.5317 3.80357,2.26813 2.86894,-0.2825 3.26997,-0.7585 4.40478,-5.2282 z M 475.85497,467.07865 c 2.27976,-4.90674 4.14503,-9.24789 4.14503,-9.647 0,-1.761 7.57542,-9.7384 10.63165,-11.19582 4.34413,-2.07157 4.27889,-3.23583 -0.18131,-3.23583 -7.25494,0 -11.53393,4.09882 -18.50078,17.72177 C 469.7773,464.9694 468,469.60466 468,471.02236 c 0,2.41361 1.57364,4.97764 3.05497,4.97764 0.36023,0 2.52023,-4.01461 4.8,-8.92135 z m 51.81557,-47.92259 c 7.81315,-0.55895 9.55234,-1.0149 11.75,-3.08037 3.385,-3.1814 3.25446,-5.54288 -0.54564,-9.87095 -4.57658,-5.21243 -6.05794,-9.64171 -6.52845,-19.52001 -0.35327,-7.41707 -0.0349,-9.96387 2.00069,-16.00281 4.46513,-13.24683 4.28721,-14.26545 -3.02536,-17.32083 -5.28372,-2.20768 -7.4098,-1.66796 -17.92905,4.55137 -9.97997,5.9005 -17.07433,12.63475 -20.63498,19.58754 -2.53824,4.95637 -5.95207,17.58964 -5.37474,19.88989 0.29667,1.18202 2.80283,5.06535 5.56925,8.62962 2.76643,3.56427 5.03388,6.89506 5.0388,7.40175 0.005,0.50669 -0.76067,1.77166 -1.7013,2.81105 -1.47537,1.63027 -1.5097,2.01663 -0.25,2.81343 1.64618,1.04124 17.8291,1.09769 31.63078,0.11032 z m 74.55397,-5.34147 c 2.33991,-0.70106 4.88809,-2.43759 6.2364,-4.25 1.79502,-2.41288 19.11825,-48.28044 22.00995,-58.27682 0.97797,-3.38078 -0.98367,-5.93376 -5.82752,-7.58423 -3.62525,-1.23525 -8.74402,-1.4015 -29.2685,-0.95063 l -24.87484,0.54643 -2.77476,6.10033 c -9.02817,19.84846 -9.25818,34.40146 -0.84401,53.40035 2.26533,5.115 4.11877,9.9525 4.11877,10.75 0,1.19574 2.39057,1.44998 13.63398,1.44998 7.61918,0 15.37946,-0.52296 17.59053,-1.18541 z M 428.07692,391.07692 c 2.92773,-2.92772 3.89726,-7.35681 1.88294,-8.60173 -0.57208,-0.35356 -1.93198,0.49094 -3.022,1.87668 -1.09003,1.38574 -3.20946,2.66097 -4.70986,2.83383 -2.00001,0.23043 -2.81806,0.95126 -3.06549,2.70121 -0.67674,4.78622 4.61218,5.49225 8.91441,1.19001 z m -13.02577,-37.12807 c 1.25528,-1.25528 2.76138,-1.82574 3.88158,-1.4702 2.57153,0.81617 3.52154,-2.16516 1.10247,-3.45981 -3.21471,-1.72046 -9.0352,1.58825 -9.0352,5.13615 0,2.4155 1.50614,2.33887 4.05115,-0.20614 z M 483,339.05902 c 0,-2.83157 -1.84159,-3.51236 -4.06301,-1.50199 C 476.21773,340.01792 476.52095,341 480,341 c 2.30293,0 3,-0.451 3,-1.94098 z m -22,-7.18 c -9.5653,-1.08902 -118.3856,-9.65924 -131,-10.317 -6.88495,-0.35901 -8.39893,-0.25092 -5.5,0.39267 3.90581,0.86712 15.99525,1.93393 69,6.08877 14.3,1.12093 28.7,2.27787 32,2.57098 3.3,0.29311 10.05,0.88703 15,1.31981 4.95,0.43279 13.275,0.78953 18.5,0.79277 l 9.5,0.006 -7.5,-0.85389 z M 905.73875,178.37266 C 910.7296,177.035 906.23752,176 895.44098,176 c -10.46927,0 -12.63798,0.46966 -10.77431,2.33333 0.82716,0.82717 18.01297,0.85924 21.07208,0.0393 z m -512.9363,-6.07449 c 5.21083,-3.89044 6.48129,-6.59967 5.71333,-12.18347 -0.3869,-2.81308 -1.06841,-5.1147 -1.51446,-5.1147 -0.44605,0 -0.58216,1.70617 -0.30246,3.79149 0.69837,5.20675 -1.54204,7.19651 -5.3176,4.72267 -3.44594,-2.25787 -7.87697,-0.65135 -6.87869,2.49393 0.54881,1.72915 0.17241,1.99191 -2.85339,1.99191 -7.19935,0 -8.8143,2.52275 -3.39918,5.30993 4.08236,2.1012 11.02994,1.61817 14.55245,-1.01176 z m 85.81825,-36.01081 c -1.75805,-1.75804 -10.55653,-4.2858 -14.92036,-4.28655 C 458.87639,132 453,134.21036 453,136.02568 453,136.60877 458.28691,137 466.16667,137 c 7.24166,0 12.84598,-0.32069 12.45403,-0.71264 z m 42.93715,-0.19376 C 520.58093,134.51291 511.8115,132 507.2722,132 502.80438,132 497,134.27474 497,136.02568 497,136.60639 502.07368,137 509.55902,137 c 7.25337,0 12.32236,-0.38291 11.99883,-0.9064 z m 28.76323,-0.17252 c -0.5934,-0.5934 -2.86599,-1.31861 -5.05019,-1.61157 -3.06487,-0.41109 -4.11243,-0.16483 -4.5897,1.07891 -0.52392,1.3653 0.24784,1.61158 5.05019,1.61158 4.0555,0 5.36159,-0.30703 4.5897,-1.07892 z m 49.75787,-50.504413 c 0.048,-1.164943 0.28494,-1.4019 0.60416,-0.604167 0.28887,0.721875 0.25335,1.584375 -0.0789,1.916667 -0.33229,0.332291 -0.56864,-0.258334 -0.52522,-1.3125 z M 407,75.06082 c 0,-1.140991 7.36956,-9.888861 10.3524,-12.288584 2.18096,-1.754601 5.67364,-2.390347 5.616,-1.022236 -0.047,1.114899 -3.88323,5.205243 -9.37879,10 C 408.74445,75.977293 407,76.853756 407,75.06082 Z M 877,62.440983 c 0,-0.857459 0.45,-1.280902 1,-0.940983 0.55,0.339919 1,1.041476 1,1.559017 C 879,63.576558 878.55,64 878,64 c -0.55,0 -1,-0.701558 -1,-1.559017 z m -21.5,-7.583525 c -11.36022,-3.711206 -20.25573,-4.713634 -42.76899,-4.819595 -16.86037,-0.07935 -21.87995,0.186683 -22.26106,1.179839 -0.5279,1.375701 -5.81116,1.774418 -7.05328,0.532298 -0.4125,-0.4125 -2.3625,-0.761001 -4.33334,-0.774446 C 777.1125,50.962109 773.475,50.447475 771,49.831923 767.78406,49.032093 720.92147,48.682386 606.76957,48.606369 L 447.03914,48.5 444.02945,45.490648 c -3.00356,-3.003225 -3.0121,-3.044968 -4.19186,-20.5 -0.65019,-9.619857 -0.87907,-18.6962264 -0.50863,-20.169711 0.66181,-2.6324248 0.83454,-2.6846501 9.92229,-3 8.88561,-0.3083357 9.3572,-0.2155093 12.01077,2.3641592 1.51911,1.4768028 3.03786,4.0643028 3.375,5.75 C 465.23752,12.937619 465.36958,13 471.125,13 H 477 V 9.1911296 c 0,-6.1691632 1.31044,-7.0390895 11.12631,-7.3861386 9.74604,-0.3445798 10.44639,0.026275 12.36653,6.5484321 L 501.71361,12.5 508.3568,12.79569 515,13.09138 V 8.5808737 C 515,2.8581936 516.46619,2 526.24313,2 c 8.98482,0 10.56465,1.0090221 10.95995,7 l 0.29692,4.5 7.11572,0.291099 7.11571,0.291099 0.66328,-4.9999991 c 0.3648,-2.7499997 1.18447,-5.3221148 1.82148,-5.7158114 1.9376,-1.1975023 19.15022,-0.3876715 19.99478,0.9407278 0.41712,0.6560866 0.7653,3.1053847 0.77372,5.4428847 L 575,14 h 6.5 c 6.07297,0 6.50025,-0.147819 6.50374,-2.25 0.002,-1.2375 0.89544,-3.7125 1.9853,-5.5 L 591.9706,3 h 8.43291 c 4.63811,0 9.13512,0.2694606 9.99337,0.5988013 0.97554,0.3743506 1.80415,2.4359339 2.21061,5.5 L 613.25766,14 h 4.76276 c 4.18409,0 4.83544,-0.289567 5.36093,-2.38328 0.32899,-1.310803 1.90832,-3.7858035 3.50962,-5.4999997 C 629.7099,3.0990407 630.0734,3 638.32978,3 648.29695,3 650,4.0319454 650,10.071429 650,13.992122 650.00807,14 654.02475,14 c 3.24801,0 4.19354,-0.434232 4.89936,-2.25 0.48103,-1.2375 2.29945,-3.6 4.04091,-5.25 3.05413,-2.8937154 3.49759,-3 12.51731,-3 5.14305,0 9.63536,0.2843526 9.9829,0.6318946 0.34754,0.347542 1.17254,2.822542 1.83333,5.5 0.9469,3.8367484 1.67778,4.9357604 3.44983,5.1874454 1.64372,0.233458 2.50768,-0.362663 3.21255,-2.216599 0.53029,-1.394767 2.84853,-3.9009695 5.15165,-5.56934 C 703.05542,4.1772255 703.83919,4 712.52759,4 722.91485,4 723.55432,4.3606502 724.58395,10.799614 725.08478,13.931641 725.71411,15 727.05826,15 c 1.09178,0 1.92865,-0.864886 2.12219,-2.193228 C 729.38752,11.385537 731.43594,9.4510532 735,7.310908 740.15026,4.2182849 741.08042,4.0080081 749.62756,4.0041355 759.89875,3.9994818 760.33135,4.2493332 761.74043,11 l 0.93929,4.5 1.27794,-2.656261 c 0.86027,-1.788092 3.47168,-3.6674157 7.9899,-5.7500003 C 777.6993,4.4425912 779.81813,4 786.75833,4 795.36565,4 798,5.1884284 798,9.0714286 c 0,2.5372494 0.20209,2.5041164 9.51027,-1.5592193 6.48349,-2.8302664 9.24998,-3.4900924 14.67463,-3.5 9.67412,-0.017669 11.34757,0.870446 12.76377,6.7738197 0.96744,4.032728 0.90539,5.990938 -0.34279,10.818962 -0.83822,3.242255 -1.82617,9.535853 -2.19545,13.985773 l -0.67142,8.090763 13.88049,0.67055 c 18.61614,0.899322 19.38391,1.098115 19.36685,5.0145 -0.0193,4.425436 -1.02499,7.649087 -2.35298,7.542206 C 862.01002,56.858613 858.8,55.935517 855.5,54.857458 Z"
     style="fill:#d8d8d8" />
  <path
     inkscape:connector-curvature="0"
     id="path4538"
     d="m 295.5,613.01006 c -6.90503,-0.49033 -17.32859,-2.27949 -28,-4.80609 -9.35,-2.21374 -19.64105,-4.55827 -22.86901,-5.21008 -4.22607,-0.85335 -6.88544,-2.11697 -9.5,-4.514 -3.25154,-2.98102 -3.62187,-3.83319 -3.54369,-8.1544 0.0771,-4.26241 3.16029,-10.83494 26.42232,-56.32549 26.18578,-51.20814 38.79069,-73.26683 59.99974,-105 10.79775,-16.15568 25.84731,-39.87841 28.24983,-44.5304 0.86078,-1.66672 1.85765,-6.61672 2.21526,-11 0.64611,-7.91938 0.62619,-8.01056 -3.16212,-14.4696 -3.59452,-6.12863 -4.29796,-6.73942 -12.31233,-10.69056 l -8.5,-4.19056 -41,-4.73096 c -26.60407,-3.06982 -44.33564,-4.65691 -50.5,-4.52007 -8.09039,0.17959 -87.65505,-7.90886 -91.63457,-9.31547 -0.62402,-0.22056 -3.46027,0.28073 -6.30279,1.11399 -4.74378,1.3906 -6.71117,1.34111 -23.95687,-0.60269 C 92.924933,324.01447 86,322.52738 86,320.67235 c 0,-0.48904 1.0125,-0.64269 2.25,-0.34145 1.2375,0.30125 11.102424,1.54977 21.92205,2.7745 18.56046,2.10094 19.81773,2.13132 22.25,0.53763 2.55042,-1.6711 3.53988,-4.64303 1.54583,-4.64303 -0.56766,0 -2.65523,0.67818 -4.63903,1.50706 -4.71807,1.97134 -6.7598,0.53599 -5.98952,-4.21067 L 123.87426,313 104.18713,312.89411 C 93.359208,312.83587 80.45,312.49837 75.5,312.14411 65.099022,311.39973 64.308426,310.4544 68.270788,303.5 c 1.91812,-3.36652 2.855405,-4.04834 5.918345,-4.30525 2.001611,-0.16789 3.855756,-0.84289 4.120322,-1.5 12.343458,-30.65788 19.435614,-47.09623 27.564355,-63.88922 l 10.01727,-20.69447 3.80446,-0.65793 c 2.09245,-0.36186 7.85446,-1.52892 12.80446,-2.59346 4.95,-1.06454 15.52067,-2.38422 23.49037,-2.93263 13.46422,-0.92649 14.63268,-1.16732 16.5,-3.40086 2.43683,-2.91474 14.35467,-5.67752 34.62574,-8.02688 7.36114,-0.85314 14.05889,-1.77299 14.88389,-2.04411 0.825,-0.27111 3.02268,-2.74067 4.88373,-5.48789 5.10608,-7.53742 9.15481,-10.62591 15.71492,-11.98778 9.23578,-1.91734 18.02546,-0.95651 25.48526,2.78587 l 6.41609,3.21877 2.82531,-3.24208 c 7.20663,-8.26972 8.86929,-9.7022 12.39892,-10.68238 4.89702,-1.35992 13.7284,-1.33934 18.70947,0.0436 2.16353,0.60068 7.98943,3.81922 12.94644,7.15231 8.66108,5.82369 9.26846,6.06375 15.5663,6.15227 6.37982,0.0897 6.56195,0.16503 6.86998,2.84212 0.17403,1.5125 0.84903,2.78643 1.5,2.83097 0.65097,0.0445 61.03358,0.0187 134.18358,-0.0574 75.00456,-0.078 145.64562,0.31129 162,0.89276 54.3233,1.93144 73.98368,2.12938 96.5,0.97159 12.375,-0.63632 22.60012,-1.23405 22.7225,-1.32828 0.12237,-0.0942 0.78,-14.7217 1.46139,-32.50547 0.94306,-24.6131 1.56366,-32.6589 2.59893,-33.69418 0.81667,-0.81666 3.55515,-1.36003 6.85435,-1.36003 3.02187,0 6.47723,-0.5181 7.67857,-1.15134 1.20134,-0.63324 8.38752,-6.27505 15.96928,-12.53737 7.58177,-6.26232 14.25408,-11.096141 14.82737,-10.741831 0.69109,0.42712 0.80442,4.31493 0.33632,11.537371 -0.58934,9.09294 -0.47045,10.89317 0.71937,10.89317 1.31217,0 27.10072,-17.21567 31.06107,-20.735449 1.5642,-1.390186 1.79465,-1.366114 2.41571,0.252345 0.3776,0.984025 -0.50431,20.831164 -1.95981,44.104744 -1.4555,23.27358 -2.36963,43.03676 -2.0314,43.91817 0.33823,0.88142 -0.19725,14.77094 -1.18995,30.8656 -0.9927,16.09467 -1.49795,30.06295 -1.12278,31.04062 0.54086,1.40948 1.35276,1.64001 3.9206,1.11325 1.78116,-0.36538 7.73848,-1.12411 13.23848,-1.68606 5.5,-0.56195 10.34677,-1.35759 10.77061,-1.76808 0.42383,-0.4105 1.43969,-9.93958 2.25745,-21.17575 0.81777,-11.23616 1.71745,-23.35439 1.99931,-26.92939 0.89862,-11.39811 5.46495,-77.09123 6.13187,-88.2158 0.47852,-7.98177 0.31862,-11.105951 -0.6267,-12.24499 -1.04185,-1.255348 -0.93455,-2.022566 0.59917,-4.284204 1.02756,-1.515253 2.39655,-4.105006 3.04221,-5.755006 1.10621,-2.826957 1.17717,-2.653915 1.23019,3 0.031,3.3 -0.35392,8.925 -0.85526,12.5 -0.50134,3.575 -1.17611,15.55019 -1.49949,26.61154 -0.62307,21.31262 -0.24809,23.36129 3.97905,21.73919 1.6354,-0.62757 1.72733,-0.15111 1.11812,5.79514 -0.46273,4.51651 -0.21959,7.9549 0.80275,11.35186 1.39345,4.6301 1.36613,4.94326 -0.54827,6.28416 -1.20226,0.8421 -1.89104,2.27968 -1.70791,3.56467 0.29318,2.05714 0.87055,2.16591 12.91057,2.43222 9.93624,0.21979 12.85358,-0.0223 13.78451,-1.14405 0.92421,-1.1136 0.83181,-1.77188 -0.42509,-3.02878 -1.22507,-1.22508 -3.6642,-1.60958 -10.28452,-1.62126 -9.97993,-0.0176 -12.67427,-0.95775 -8.45695,-2.95088 1.52811,-0.72219 4.35338,-1.66996 6.27838,-2.10615 9.28247,-2.10337 16.57062,-4.36285 17.23469,-5.34313 0.40408,-0.59649 0.74158,-2.60676 0.75,-4.46726 l 0.0153,-3.38273 -13.041,0.47091 c -12.35312,0.44607 -15.47138,-0.0931 -13.27008,-2.29437 0.50307,-0.50307 6.47112,-1.15387 13.26234,-1.44623 6.79123,-0.29237 12.80704,-0.81547 13.36847,-1.16245 1.03899,-0.64214 11.83318,-0.48283 12.5005,0.18449 0.20115,0.20115 -0.15629,4.56139 -0.79431,9.68942 -2.35981,18.96685 -8.57092,35.08665 -15.57874,40.43177 -1.84618,1.40815 -6.72126,3.36113 -10.98824,4.40194 -4.21838,1.02895 -8.44528,2.57263 -9.3931,3.4304 -0.94783,0.85777 -3.03789,1.56647 -4.64458,1.57489 -1.60669,0.008 -3.4389,0.34592 -4.07157,0.75 -0.63266,0.40408 -1.89937,5.68469 -2.81491,11.73469 -1.89558,12.5263 -6.64972,28.33137 -10.07674,33.5 -1.27636,1.925 -2.83264,6.425 -3.45841,10 -1.57087,8.97447 -5.78062,22.57334 -7.40534,23.92175 -0.73975,0.61394 -1.90327,3.11018 -2.58559,5.54719 -0.68233,2.43702 -2.03511,5.14997 -3.00619,6.02879 -1.95314,1.76756 -18.22125,6.40779 -31.76302,9.0599 -4.80672,0.94138 -10.40906,2.55103 -12.44965,3.57699 -2.86001,1.43794 -5.95341,1.86773 -13.5,1.87562 -9.07376,0.01 -29.43568,2.70463 -48.78984,6.4579 -25.96828,5.03592 -66.58054,3.53897 -82.31179,-3.03397 C 661.30036,319.64538 658.46071,319 656.87788,319 H 654 v 9.23433 c 0,5.07888 -0.74037,14.19138 -1.64526,20.25 l -1.64526,11.01567 2.64526,5.21676 c 1.45489,2.86921 2.64526,6.52522 2.64526,8.12445 0,2.51961 -17.12616,48.78897 -20.15031,54.43966 -0.60491,1.13028 -3.80839,5.35515 -7.11884,9.38861 l -6.01901,7.33356 -9.89242,3.05268 c -9.5596,2.94999 -10.70704,3.07112 -34.10592,3.60032 l -24.2135,0.54763 -6.95207,-4.63717 -6.95207,-4.63717 -26.04793,0.11366 c -23.07574,0.10068 -26.84666,0.34692 -33.04793,2.15801 -8.78195,2.56477 -15.24222,8.45911 -20.93119,19.0976 l -3.93118,7.3514 1.5664,6.41181 c 1.77659,7.27222 1.37434,9.0914 -3.29503,14.9018 -1.97439,2.45686 -5.22003,4.77723 -8.93705,6.38925 -5.39758,2.34087 -6.18332,3.11876 -10.44352,10.33923 -4.3443,7.36301 -4.5753,8.12131 -4.0539,13.30791 0.39319,3.91134 -0.0465,7.66636 -1.52237,13 -2.47034,8.9278 -6.70216,14.00563 -14.66041,17.59125 -9.2348,4.16078 -10.10831,9.76572 -4.01768,25.78003 l 2.99363,7.87129 -1.59291,8.0854 c -3.01686,15.31318 -5.31987,16.54972 -32.94316,17.68796 -33.11142,1.36439 -72.47504,1.82898 -84.23163,0.99413 z M 374.67376,602.25 c 4.59183,-5.76346 4.62208,-5.8823 3.29202,-12.93135 l -1.26148,-6.68557 -2.13971,2.68346 c -1.17685,1.4759 -2.46032,2.68346 -2.85215,2.68346 -1.44273,0 -0.76906,-16.54288 0.75576,-18.55887 0.8075,-1.06762 1.4825,-2.937 1.5,-4.15418 0.0175,-1.21718 10.66811,-21.46718 23.66805,-45 44.12064,-79.8683 40.39694,-73.69093 50.66218,-84.04527 5.04825,-5.09208 9.97178,-9.51005 10.94117,-9.81773 3.17915,-1.00902 4.05254,-4.12081 2.08937,-7.4442 -0.96894,-1.64027 -2.57198,-3.23949 -3.56233,-3.55381 -0.99034,-0.31433 -2.43103,-2.08029 -3.20154,-3.92438 -1.05078,-2.51487 -2.10876,-3.43394 -4.23301,-3.67722 -2.76197,-0.31631 -2.82598,-0.46051 -2.58535,-5.82434 0.8436,-18.80478 8.66832,-38.65269 20.18255,-51.19437 5.44771,-5.93383 6.6813,-6.77416 10.85832,-7.39674 8.71673,-1.29923 11.88396,-5.61231 6.64299,-9.04632 -3.01539,-1.97576 -11.72755,-2.90656 -68.9306,-7.3645 -22,-1.7145 -53.27058,-4.18086 -69.49018,-5.48079 -29.60252,-2.37251 -32.61996,-2.27086 -31.34339,1.05583 0.35762,0.93194 2.04992,1.42689 4.87876,1.42689 4.49867,0 13.35981,4.37155 13.4232,6.62219 0.0174,0.61721 1.94411,1.42745 4.28161,1.80054 5.47374,0.87368 8.71409,2.98506 8.12563,5.29458 -0.28892,1.13395 1.93405,4.79462 6.10859,10.05928 6.07495,7.66134 6.71981,8.9585 8.67496,17.45012 2.06235,8.95725 2.07107,9.35154 0.36997,16.72341 -0.95819,4.15244 -2.53309,9.34988 -3.49976,11.54988 -0.96668,2.2 -9.98468,16.6 -20.03999,32 -30.24597,46.32254 -41.03206,64.65758 -62.08334,105.53408 -17.6243,34.22214 -20.2391,39.90156 -21.18543,46.01536 -0.92447,5.9726 -0.8385,7.48018 0.59842,10.49342 1.85391,3.88769 3.77979,5.06025 6.43095,3.91544 2.41561,-1.04309 5.25804,-0.67872 16.25,2.08307 5.225,1.31282 15.575,3.75025 23,5.41652 7.425,1.66627 14.85,3.44373 16.5,3.9499 1.65,0.50617 14.87539,0.95898 29.38976,1.00626 23.99707,0.0782 26.51617,-0.0727 27.784,-1.66405 z m -54.44574,-9.93426 c -1.95955,-3.48542 -1.44309,-6.02641 1.67635,-8.24765 3.48223,-2.47956 7.3582,-2.66266 9.56884,-0.45202 2.80515,2.80515 1.40221,4.02765 -6.65388,5.79811 -1.77684,0.39049 -2.79574,1.34718 -3.02198,2.83747 L 321.45604,594.5 Z M 327.5,545.1383 C 322,541.93866 311.425,535.82075 304,531.54295 288.88425,522.83425 287.71371,522 290.61025,522 c 2.0221,0 45.62034,24.83916 48.35404,27.54867 3.2005,3.17219 -1.61423,1.31994 -11.46429,-4.41037 z m 27,-49.21343 c -36.2863,-21.43029 -42.00278,-25.27181 -34.98565,-23.51062 3.44928,0.86571 45.74843,26.78123 46.24944,28.33575 0.64256,1.99368 -0.67027,1.43129 -11.26379,-4.82513 z m 30,-49.23249 c -3.85,-2.34511 -13.1875,-8.01867 -20.75,-12.60793 -13.13199,-7.96907 -16.70582,-11.04313 -11.2451,-9.67258 3.21705,0.80743 40.79509,23.98809 41.289,25.46984 0.70081,2.10243 -2.29291,1.07509 -9.2939,-3.18933 z m 29.01813,-60.50758 c -1.27662,-1.27663 -0.31586,-5.0262 1.79632,-7.01049 2.56634,-2.41095 8.49777,-2.96209 10.48555,-0.97431 1.56641,1.56641 1.53802,5.28579 -0.05,6.55107 -1.36953,1.0912 -11.39884,2.26676 -12.23187,1.43373 z M 552.75,425.42183 568,424.78943 v -3.69226 c 0,-2.51579 -1.60421,-6.70411 -5.03467,-13.14471 -9.87996,-18.54935 -10.36095,-36.71934 -1.4727,-55.6324 2.37278,-5.04897 4.08819,-9.40591 3.81202,-9.68208 -0.27617,-0.27617 -12.0452,-0.24404 -26.15339,0.0714 L 513.5,343.28289 505,347.56307 c -6.97405,3.51178 -10.2422,6.0446 -18.20455,14.10855 -8.11098,8.21447 -10.20464,11.00989 -12.75,17.02357 -5.87704,13.88511 -3.4087,26.28525 8.15975,40.99186 3.49694,4.44555 5.63075,6.27514 7.58081,6.5 4.02901,0.46458 45.44585,-0.0388 62.96399,-0.76522 z m -64.7668,-17.63296 c -4.65776,-5.57428 -5.1305,-6.57399 -4.61056,-9.75 1.20417,-7.35568 2.61012,-13.13813 3.68085,-15.13881 2.01377,-3.76277 2.01434,-1.29618 10e-4,5.17209 -2.41657,7.76443 -2.00453,9.76168 3.58251,17.36559 4.21592,5.73783 5.35376,8.56226 3.44936,8.56226 -0.5024,0 -3.24891,-2.79501 -6.10335,-6.21113 z m 115.74656,6.67015 c 2.07363,-0.84755 4.60651,-2.68435 5.62861,-4.08179 1.02211,-1.39744 6.56365,-15.44149 12.31454,-31.20901 12.16464,-33.35244 12.1859,-33.56376 3.65389,-36.31467 -4.39408,-1.41674 -8.61849,-1.57008 -30.28005,-1.09913 l -25.17355,0.54731 -3.30703,6.59913 c -5.5374,11.04985 -7.00648,17.28892 -6.96953,29.59914 0.0313,10.4402 0.22557,11.45802 3.81678,20 3.65845,8.70191 5.54553,13.64246 6.20681,16.25 0.49973,1.97055 29.17487,1.72593 34.10953,-0.29098 z M 136,314 c 0,-0.55 -0.675,-1 -1.5,-1 -0.825,0 -1.5,0.45 -1.5,1 0,0.55 0.675,1 1.5,1 0.825,0 1.5,-0.45 1.5,-1 z M 898.46899,202.05017 C 899.47601,200.42078 895.36694,199 889.64753,199 883.24583,199 881,199.67706 881,201.60699 c 0,1.08066 1.89269,1.39301 8.44098,1.39301 4.64254,0 8.70515,-0.42742 9.02801,-0.94983 z M 474.25,484.39142 c -2.57803,-1.15101 -1.19421,-3.30971 2.5,-3.8999 5.57912,-0.89132 6.79177,-1.85473 6.44241,-5.11823 -0.92335,-8.62517 -0.41825,-18.06073 1.12603,-21.03499 1.97051,-3.79519 6.23711,-7.3383 8.83674,-7.3383 1.7947,0 1.77856,0.20461 -0.33528,4.25 -1.9152,3.66525 -2.22757,5.86351 -2.27032,15.97717 -0.0479,11.33419 -0.13875,11.81635 -2.71054,14.38824 -1.99369,1.99376 -3.87443,2.74545 -7.5,2.99758 -2.66147,0.18509 -5.40154,0.0854 -6.08904,-0.22157 z M 373.76929,165.34952 c -2.17802,-0.61506 -4.24942,-7.30038 -3.35999,-10.84416 0.36937,-1.4717 1.8441,-3.76247 3.27717,-5.09059 2.12609,-1.9704 3.63683,-2.40729 8.20955,-2.37413 4.66007,0.0338 6.1556,0.51277 8.87895,2.84367 4.46318,3.82001 6.8849,12.26476 3.85107,13.42895 -0.75568,0.28998 -3.07582,-0.67437 -5.15586,-2.14301 -2.59412,-1.83161 -3.91474,-2.28187 -4.20491,-1.43363 -1.45188,4.2443 -6.90834,6.90841 -11.49598,5.6129 z M 417.91565,120.48889 406.33129,109 h -13.74898 c -10.55412,0 -13.65243,-0.29046 -13.33347,-1.25 0.30221,-0.90918 4.50782,-1.32503 15.42476,-1.52519 l 15.00925,-0.27519 12.25539,13.02519 c 10.18624,10.82607 11.85916,13.02331 9.90857,13.01408 -1.64631,-0.008 -5.80464,-3.44045 -13.93116,-11.5 z m 52.98037,9.20052 c -1.31781,-1.27082 -5.37605,-5.43332 -9.0183,-9.25 -10.96053,-11.4854 -9.8325,-10.87763 -21.23188,-11.43941 -13.7207,-0.67617 -12.72064,-2.42064 1.60014,-2.79122 l 11.25402,-0.29122 10.81837,11.29122 c 5.9501,6.21017 11.25343,12.07872 11.78518,13.04122 1.48003,2.67895 -2.26642,2.27565 -5.20753,-0.56059 z M 505.8495,120.75 495.17288,109.5 484.91584,109 c -6.94382,-0.33849 -10.39036,-0.90377 -10.66977,-1.75 -0.3148,-0.95339 2.39519,-1.24637 11.4206,-1.23469 6.50833,0.008 12.30796,0.34592 12.88806,0.75 0.90918,0.63331 15.22902,16.43456 20.85026,23.00726 1.89296,2.21337 1.88989,2.22743 -0.48694,2.22743 -1.74814,0 -5.26555,-3.02795 -13.06855,-11.25 z m 29.05208,0.24079 C 526.85468,112.35313 523.81539,109.75811 520.7925,108.94413 516.03182,107.66221 516.75517,106 522.0737,106 c 4.53672,0 5.51907,0.82285 19.39988,16.25 7.92978,8.81316 8.52825,9.75 6.22848,9.75 -1.95052,0 -4.93764,-2.56912 -12.80048,-11.00921 z M 888.24689,119.75 c 0.29005,-0.87669 4.22344,-1.39932 13.17082,-1.75 7.01649,-0.275 12.93899,-0.3164 13.1611,-0.092 0.22211,0.2244 -0.0974,1.0119 -0.70993,1.75 -1.55127,1.86916 -26.23928,1.95782 -25.62199,0.092 z M 415,67.122445 c 0,-1.278754 2.94038,-3.515401 3.66667,-2.789112 C 419.39296,65.059623 417.15631,68 415.87756,68 415.3949,68 415,67.6051 415,67.122445 Z M 444.13144,43.639914 C 442.12715,41.506438 441.80443,39.606036 440.77043,23.84764 440.14132,14.259936 439.92149,5.6469748 440.28191,4.7077257 440.83262,3.2726122 442.37273,3 449.92966,3 459.9659,3 461.86479,4.0302445 464.05383,10.663095 465.15013,13.98494 465.18409,14 471.57755,14 H 478 V 9.7 c 0,-2.365 0.54,-4.84 1.2,-5.5 1.71833,-1.7183332 17.21337,-1.6117714 18.65751,0.1283106 0.60632,0.7305708 1.46777,3.0930708 1.91433,5.25 L 500.58377,13.5 508.29188,13.792064 516,14.084129 V 9.577248 c 0,-3.4323648 0.46116,-4.7536856 1.93426,-5.5420642 C 520.62927,2.592856 533.31684,2.7168421 534.8,4.2 c 0.66,0.66 1.2,3.1264266 1.2,5.480948 0,5.049572 1.14712,5.608539 10.51795,5.125172 l 5.93462,-0.30612 0.752,-4.428291 c 0.41361,-2.4355598 1.14034,-4.8166215 1.61497,-5.2912481 0.47463,-0.4746266 4.87189,-0.7318957 9.77171,-0.5717092 L 573.5,4.5 l 0.5,5 0.5,5 h 6.959 c 6.92838,0 6.96173,-0.0132 7.57636,-3 1.48665,-7.2244118 2.1245,-7.6032269 12.26952,-7.2867996 L 610.5,4.5 l 0.93249,5.25 0.93249,5.25 h 5.81751 C 623.08402,15 624,14.720969 624,13.227844 c 0,-0.974686 1.38276,-3.449686 3.0728,-5.5000001 L 630.14561,4 h 8.30475 c 9.37774,0 10.23758,0.5221244 10.72513,6.51268 0.32356,3.975657 0.33799,3.988195 4.93289,4.286327 4.28633,0.278112 4.69453,0.09102 5.84115,-2.677167 0.67803,-1.636896 2.90344,-4.1339497 4.94537,-5.5490075 3.88608,-2.69305 7.34123,-3.0688417 16.07825,-1.7487094 4.36738,0.659897 4.49099,0.7805565 5.22815,5.1033574 0.41525,2.4351145 1.32734,4.8001915 2.02685,5.2557275 2.22822,1.451049 5.21305,0.400666 6.49659,-2.28619 0.6839,-1.43164 2.98787,-3.8118566 5.11992,-5.2893707 3.63191,-2.5169142 4.46851,-2.6681338 13.26112,-2.3970183 L 722.49044,5.5 l 1.05427,5 c 0.84036,3.985538 1.5004,5.064792 3.25317,5.31934 1.59361,0.231435 2.46543,-0.381702 3.16717,-2.227413 0.53255,-1.400714 3.12078,-3.8983671 5.75161,-5.5503397 4.35547,-2.7349185 5.56074,-3.0052862 13.47432,-3.022587 9.50883,-0.020788 9.67948,0.075614 11.33899,6.4056217 1.25037,4.769378 3.10943,5.654019 4.45338,2.11916 0.69386,-1.824978 2.89334,-3.516537 7.25616,-5.5804938 5.33836,-2.5254681 7.45763,-2.9618266 14.38805,-2.9624993 9.0611,-8.795e-4 9.73255,0.399854 10.82727,6.4619571 0.71006,3.93194 0.72856,3.945858 2.38039,1.790462 0.91563,-1.194756 4.36478,-3.3628327 7.66478,-4.8179483 5.14613,-2.2691542 7.28081,-2.6279517 15,-2.5211987 6.79323,0.093947 9.28031,0.4985952 10.14322,1.6503006 1.99718,2.6656064 2.44533,9.6550004 0.93536,14.5878834 -0.78324,2.558735 -1.74519,8.333431 -2.13766,12.832658 -0.57223,6.559848 -1.07029,8.312616 -2.51414,8.847755 -0.99031,0.367038 -86.00075,0.279823 -188.91211,-0.193811 -171.40867,-0.788883 -187.26095,-0.725942 -188.89185,0.75 -2.45894,2.225309 -4.39173,2.018264 -6.99138,-0.748933 z"
     style="fill:#adabab" />
  <path
     inkscape:connector-curvature="0"
     id="path4536"
     d="m 284,610.42745 c -3.025,-0.74305 -14.5,-3.38772 -25.5,-5.87704 -18.54414,-4.19657 -20.20844,-4.7557 -22.86351,-7.68104 -5.20361,-5.73331 -4.82503,-6.72387 24.40962,-63.86937 25.7504,-50.33478 41.05113,-77.03048 60.18109,-105 7.92801,-11.59139 26.37573,-40.97468 27.73447,-44.17512 0.54286,-1.27869 1.42569,-5.68841 1.96184,-9.79939 l 0.97481,-7.47451 -3.68523,-6.82295 c -4.60451,-8.52494 -5.93725,-9.73058 -15.21309,-13.76232 -7.0566,-3.06716 -9.74656,-3.52368 -45.5,-7.72203 -22.57971,-2.65143 -42.26087,-4.45259 -48.5,-4.43858 -11.45498,0.0257 -92.93761,-8.47763 -94.39437,-9.85079 -0.52252,-0.49254 -0.37149,-2.10537 0.36328,-3.87926 0.69171,-1.66993 0.9731,-4.16996 0.62532,-5.55564 -0.78193,-3.11543 0.69401,-2.99014 -35.41816,-3.00654 -26.873102,-0.0122 -28.396977,-0.1123 -29.75,-1.954 C 78.641731,308.49125 78,306.83527 78,305.87892 c 0,-3.91478 35.6918,-87.88039 38.60149,-90.8107 1.41426,-1.42429 24.3661,-5.32243 38.33409,-6.51066 14.82597,-1.26122 16.59632,-1.61125 18.07693,-3.57414 2.20144,-2.91852 13.18978,-5.52557 33.48749,-7.94512 l 16,-1.90724 3.5,-4.29114 c 8.75161,-10.72981 11.07141,-12.49241 18.02118,-13.69259 8.86748,-1.53137 16.29628,-0.61783 23.60153,2.90233 3.3675,1.62269 6.61953,2.95034 7.22675,2.95034 0.60722,0 2.96496,-2.3625 5.23943,-5.25 5.49559,-6.97682 8.4374,-8.68763 16.18232,-9.41087 8.50138,-0.79387 13.52819,0.94554 25.44879,8.80594 9.0622,5.97558 9.3855,6.0986 14.31054,5.44527 l 5.03888,-0.66843 1.54679,3.70197 1.54678,3.70198 129.66851,-0.68693 c 96.14059,-0.50932 136.64979,-0.37085 156.6685,0.53552 44.70695,2.02416 127.4778,1.56601 170.5,-0.94376 22.93692,-1.33806 36.85168,-1.77787 37.44641,-1.18358 1.20913,1.20824 -2.12198,59.56412 -3.9931,69.95289 -0.74295,4.125 -2.04009,9.975 -2.88253,13 -0.84245,3.025 -2.62288,9.55 -3.95651,14.5 -7.03144,26.09829 -7.22199,26.5 -12.57021,26.5 -1.41552,0 -4.21414,0.87924 -6.21916,1.95386 -2.76116,1.47989 -6.51754,2.10264 -15.48519,2.56721 -13.34487,0.69133 -25.42011,2.31719 -45.83971,6.17204 -12.5639,2.37183 -16.46189,2.65135 -38,2.72492 -25.55728,0.0873 -34.75199,-1.01513 -46.16322,-5.53485 -2.83977,-1.12476 -6.21477,-1.89611 -7.5,-1.7141 -2.25546,0.3194 -2.36081,0.74851 -3.02728,12.33092 -0.37977,6.6 -1.3451,15.825 -2.14518,20.5 l -1.45469,8.5 2.89519,6.66761 c 1.59235,3.66719 2.8859,7.26719 2.87455,8 -0.0113,0.73282 -4.63826,13.26916 -10.28203,27.85854 -9.83271,25.41796 -10.52599,26.84321 -16.59491,34.11558 l -6.33351,7.58943 -10.13446,3.07155 c -9.92621,3.00843 -10.62071,3.07706 -33.79795,3.34 l -23.66348,0.26844 -6.33652,-4.45557 L 541.5,440.5 514,440.77134 c -34.88237,0.34418 -37.77578,0.99859 -46.62745,10.54576 -3.2299,3.48369 -7.34126,9.28279 -9.13635,12.8869 l -3.26379,6.55291 1.51798,6.54543 c 1.01946,4.39582 1.21641,7.30935 0.59969,8.87154 -1.47299,3.73121 -7.89128,9.60826 -11.89707,10.8938 -5.23526,1.68012 -6.73577,3.28565 -11.86511,12.69555 -4.24127,7.78071 -4.4781,8.60348 -3.54012,12.29883 1.60755,6.33322 -2.15563,18.68214 -7.29796,23.94836 -2.17401,2.2264 -5.68933,4.56829 -7.81182,5.2042 -9.02166,2.70295 -11.00818,11.6066 -5.678,25.44888 3.41598,8.87116 3.69109,13.24225 1.35704,21.56077 -1.83692,6.54673 -4.39445,9.17017 -10.55764,10.82975 -9.95541,2.68071 -105.84731,3.81803 -115.7994,1.37343 z m 95.31794,-3.67124 c 4.46074,-1.30097 7.68743,-4.93658 7.66916,-8.64107 -0.007,-1.43833 -0.86841,-5.34344 -1.91404,-8.67803 -1.58294,-5.04816 -1.77678,-7.56414 -1.15813,-15.03264 l 0.74301,-8.96974 12.42103,-22.51236 c 53.85638,-97.61135 49.43735,-90.16506 60.53242,-102.00033 13.18237,-14.06183 13.66362,-16.33035 5.75106,-27.10942 -4.55684,-6.20765 -4.97163,-9.92823 -2.50512,-22.47023 3.15448,-16.0403 7.79614,-24.63952 20.59151,-38.14822 C 487.25198,347.06752 492,341.33789 492,340.46166 c 0,-2.7058 -1.82446,-5.19005 -5.46324,-7.43894 -3.21825,-1.98899 -8.81722,-2.5731 -72.26265,-7.53885 -37.82576,-2.96055 -74.01988,-5.85555 -80.43138,-6.43334 C 327.43123,318.47274 320.82588,318 319.16416,318 c -4.22358,0 -6.24083,2.30252 -5.50957,6.28869 0.91679,4.99758 2.87772,7.37373 6.58116,7.97472 1.85682,0.30132 8.30088,2.61539 14.32014,5.14239 10.8083,4.53752 11.02004,4.69071 17.06267,12.34437 5.29861,6.71128 6.40047,8.8662 8.2222,16.08031 l 2.10365,8.33048 -1.97685,8.47816 c -1.08726,4.66299 -2.60341,9.68927 -3.3692,11.16952 -0.7658,1.48025 -8.70422,13.94136 -17.64094,27.69136 -32.18513,49.51991 -43.12688,68.07126 -63.99429,108.5 -18.07965,35.02772 -20.51607,40.31353 -21.51892,46.68524 -1.23361,7.83785 -0.10069,13.63034 3.12757,15.9909 0.90456,0.66144 7.55846,2.58122 14.78644,4.26618 7.22798,1.68496 21.46678,5.07015 31.64178,7.52264 l 18.5,4.45908 27,-0.52717 c 15.17219,-0.29623 28.67251,-1.01495 30.81794,-1.64066 z m -52.6167,-20.38831 c -1.36736,-1.36736 -0.67281,-2.50255 1.33837,-2.18745 1.12179,0.17575 2.04556,0.76955 2.05282,1.31955 0.0161,1.2171 -2.41884,1.84026 -3.39119,0.8679 z m 93.30933,-202.85517 c -1.7818,-2.14693 -0.46259,-4.71621 2.22474,-4.33287 2.56293,0.3656 3.63722,3.65225 1.61308,4.935 -1.87471,1.18806 -2.42357,1.10195 -3.83782,-0.60213 z m 148.68163,42.29369 c 0.6557,-0.52545 1.3307,-2.37918 1.5,-4.1194 0.27553,-2.83236 0.7271,-3.23781 4.3078,-3.86789 2.2,-0.38713 9.07695,-0.7298 15.28212,-0.7615 12.17339,-0.0622 16.16221,-1.11063 19.97449,-5.25024 C 612.3096,409.0352 633,353.52717 633,349.45024 c 0,-4.25899 -1.71419,-6.19458 -7.05792,-7.96948 -4.62621,-1.53658 -9.84313,-1.62041 -58.75952,-0.94418 L 513.5,341.2787 504,346.22896 c -7.9471,4.14107 -10.93766,6.44764 -18.29501,14.11065 -11.45842,11.93446 -15.84505,20.3665 -16.50236,31.72102 -0.40658,7.02355 -0.19029,8.26738 2.17292,12.49562 1.44345,2.58261 2.62445,5.2845 2.62445,6.00419 0,1.57348 11.29551,15.97934 13.17629,16.80453 2.21254,0.97075 80.22083,-0.52073 81.51591,-1.55855 z M 391.66667,160.33333 C 391.3,159.96667 391,158.80417 391,157.75 c 0,-2.59345 2.41518,-1.66977 2.81955,1.07833 0.30937,2.10247 -0.78817,2.86972 -2.15288,1.505 z M 444.65499,42.171259 c -1.0184,-1.125315 -1.6518,-3.529379 -1.6467,-6.25 0.005,-2.431692 -0.53111,-9.896929 -1.19037,-16.589414 C 440.31773,4.1027182 440.37646,4 450.58349,4 c 6.31926,0 7.63135,0.3125281 9.4462,2.25 1.15918,1.2375 2.36116,3.5034821 2.67106,5.035516 C 463.42248,14.853491 465.6506,16 471.86283,16 477.97479,16 480,14.266662 480,9.0355602 480,4.7420769 481.0252,4 486.95679,4 c 8.05771,0 9.9382,0.9011308 11.21543,5.3744276 0.64787,2.2690644 1.60426,4.6880724 2.12531,5.3755724 1.25166,1.651516 14.85972,1.692746 16.50247,0.05 0.66,-0.66 1.2,-3.135 1.2,-5.5 V 5 h 7.98095 c 8.7676,0 8.54265,-0.1824913 9.24484,7.5 l 0.27421,3 9.22162,0.28715 c 10.21316,0.318026 9.78169,0.617357 10.50417,-7.28715 L 555.5,5.5 h 7.99294 7.99293 l 1.06075,5 1.06075,5 h 7.83594 7.83594 l 1.3003,-4.403856 c 0.71517,-2.4221208 1.88984,-4.7777301 2.61038,-5.2346872 C 595.22356,4.5717514 607.43662,4.8366219 608.8,6.2 c 0.66,0.66 1.2,2.6528571 1.2,4.428571 0,4.6047 2.22719,6.371429 8.032,6.371429 5.25535,0 6.15725,-0.615517 8.77124,-5.986089 2.36397,-4.8568946 5.36303,-6.085281 13.1922,-5.4033976 7.0611,0.6149874 7.96614,1.2966088 7.98925,6.0170416 0.0203,4.155926 1.9667,5.559528 7.18797,5.183554 3.79713,-0.273424 4.5124,-0.719107 5.90492,-3.679337 2.72537,-5.7936425 5.36982,-7.084426 14.56543,-7.1095362 C 684.43982,5.9982147 685,6.3490134 685,11.881787 685,15.602872 686.70663,17 691.25202,17 c 3.3545,0 3.98304,-0.375859 4.86647,-2.910065 0.55795,-1.600536 2.69623,-4.075536 4.75173,-5.5000004 C 704.1469,6.319197 705.6153,6 712.7847,6 c 8.11915,0 8.18114,0.019522 8.7331,2.75 1.40001,6.925744 1.93127,7.741562 5.2509,8.063406 2.67864,0.2597 3.39694,-0.118871 4.19166,-2.209155 0.5275,-1.387409 2.8568,-3.778442 5.17624,-5.3134065 3.52524,-2.3329439 5.50382,-2.8493764 12.0592,-3.1475887 4.90882,-0.2233086 8.35535,0.069271 9.21441,0.782222 0.7548,0.6264313 1.67386,3.1494662 2.04235,5.6067442 C 760.0374,16.432211 760.43562,17 762.58602,17 c 1.68575,0 2.75391,-0.763877 3.38341,-2.419588 0.55226,-1.452568 2.97319,-3.450884 6.05741,-5.0000001 C 776.39206,7.3878856 778.49472,7 786.01477,7 c 9.63903,0 9.05598,-0.375176 10.49003,6.75 0.73682,3.660925 3.01993,4.322819 4.02187,1.165976 0.42156,-1.328215 3.04789,-3.154752 7.24171,-5.03639 5.89968,-2.6470057 7.46724,-2.9227456 15.15594,-2.6659764 L 831.5,7.5 l 0.94254,3.816226 c 0.66566,2.695136 0.54346,5.485945 -0.41595,9.5 -0.74718,3.126076 -1.54346,8.919914 -1.7695,12.875197 -0.23244,4.067001 -0.95609,7.643803 -1.66561,8.232658 -0.86884,0.721074 -58.83718,0.743703 -188.52544,0.07359 -165.06159,-0.852885 -187.52226,-0.791532 -189.39094,0.517341 -2.77526,1.943869 -4.01384,1.873144 -6.02011,-0.343757 z"
     style="fill:#c90808" />
  <path
     inkscape:connector-curvature="0"
     id="path4534"
     d="m 283.5,610.01475 c -4.4,-0.97996 -15.425,-3.42194 -24.5,-5.42662 -18.87069,-4.16858 -21.51853,-5.06264 -23.53983,-7.94845 -2.03242,-2.9017 -1.87466,-3.30678 1.55501,-3.99272 1.65834,-0.33166 4.83184,-2.30041 7.0522,-4.375 3.89316,-3.63753 4.71374,-5.47897 6.82859,-15.32376 0.81255,-3.78247 5.6361,-14.44911 7.66413,-16.9482 0.6695,-0.825 5.19858,-9.28135 10.06462,-18.79189 4.86604,-9.51055 8.99595,-16.84609 9.17758,-16.30122 0.18162,0.54487 -2.69778,6.75122 -6.39866,13.79189 -14.92107,28.38627 -17.45682,34.15016 -18.66216,42.41997 -1.06155,7.28333 -0.99049,8.189 0.95705,12.19763 2.4058,4.95187 -2.22588,3.52463 54.30147,16.7328 l 13.5,3.15441 27,-0.65306 c 14.85,-0.35918 28.575,-1.13541 30.5,-1.72496 8.09301,-2.47857 9.76167,-7.38034 6.07997,-17.86023 -1.6253,-4.62639 -1.8042,-6.84687 -1.16543,-14.46534 0.84059,-10.02535 0.2629,-8.66291 13.48464,-31.80265 C 402.67963,533.45589 407,525.70138 407,525.4651 c 0,-0.23627 5.46856,-10.22508 12.15235,-22.19735 6.68379,-11.97226 16.15466,-28.94681 21.04638,-37.72121 7.74829,-13.89831 10.09067,-17.18665 18.1831,-25.52628 5.11751,-5.27385 9.60028,-10.81282 9.98207,-12.33401 1.02268,-4.07471 -0.87704,-9.75746 -4.79014,-14.32904 -4.32289,-5.05033 -5.12879,-8.1937 -3.7718,-14.71173 0.58918,-2.83001 1.5138,-7.91142 2.05471,-11.29202 0.5585,-3.49051 2.77445,-9.79462 5.12813,-14.5889 3.33908,-6.80144 6.17279,-10.56314 14.57909,-19.35346 12.99341,-13.587 13.53349,-16.50116 3.93611,-21.2384 -3.40648,-1.68143 -11.04807,-2.51947 -51.5,-5.64787 -26.125,-2.02042 -63.025,-4.92765 -82,-6.46051 -39.12332,-3.16052 -39,-3.17249 -39,3.78442 0,4.47713 2.8014,7.56465 7.69506,8.481 1.75728,0.32906 8.05728,2.64189 14,5.13964 9.03453,3.79724 11.21457,5.15222 13.30494,8.26948 1.375,2.05046 4.02497,5.43423 5.88882,7.51949 4.69775,5.25578 6.34562,14.74165 2.5609,14.74165 -0.73497,0 -2.03683,1.00013 -2.89302,2.22251 -1.54913,2.21169 -1.5567,2.2071 -1.5567,-0.94366 0,-2.11267 -1.70954,-5.81094 -5.13788,-11.11481 -5.07868,-7.85707 -5.2371,-7.99185 -13.75,-11.69738 -8.46407,-3.68427 -9.26537,-3.82502 -46.61212,-8.18748 -24.0591,-2.81033 -43.50299,-4.55078 -53,-4.7441 -8.25,-0.16793 -24.675,-1.47371 -36.5,-2.90174 -11.825,-1.42802 -28.475,-3.35844 -37,-4.28982 -8.525,-0.93137 -15.93192,-2.0691 -16.45981,-2.52827 -0.59815,-0.52029 -0.31288,-1.93005 0.75708,-3.74134 1.27068,-2.1511 1.47534,-3.5418 0.78746,-5.35106 -1.32086,-3.47412 -6.64637,-3.95629 -35.49344,-3.21355 C 96.341083,311.85046 84.15,311.73072 82.5,311.24321 c -5.233881,-1.54639 -5.323323,-4.48645 -0.496149,-16.30896 2.343187,-5.73884 7.074938,-17.44555 10.515001,-26.01492 3.440063,-8.56937 7.079214,-17.11937 8.087008,-19 1.00778,-1.88063 5.03951,-10.36997 8.95939,-18.8652 l 7.12704,-15.44587 10.40386,-2.27638 c 11.26508,-2.46481 35.6841,-5.02446 56.40385,-5.91235 7.15,-0.3064 13.675,-0.79713 14.5,-1.09051 0.825,-0.29338 5.68266,-0.86462 10.7948,-1.26942 10.76195,-0.85217 13.66395,-2.41792 15.74829,-8.49689 0.82395,-2.40304 3.90646,-6.49374 7.91051,-10.4978 l 6.56051,-6.5605 6.74295,-0.18583 c 3.70862,-0.1022 8.47816,-0.4955 10.59898,-0.87399 3.60388,-0.64316 3.812,-0.54941 3.18261,1.43362 C 258.97171,181.6645 259.27118,182 261.43261,182 262.84468,182 264,181.55 264,181 c 0,-1.64153 3.03791,-1.13969 6.66286,1.10065 4.20696,2.60005 7.75041,1.92106 9.73363,-1.86514 0.78808,-1.50453 2.99902,-4.24049 4.91319,-6.07991 3.2804,-3.15228 3.95603,-3.36572 11.76128,-3.7155 11.33933,-0.50816 14.36086,0.38329 24.66866,7.27806 8.73134,5.8403 9.0557,5.96336 14.52344,5.50993 l 5.59264,-0.46378 0.32215,3.36784 L 342.5,189.5 468.2638,189.13853 c 69.17009,-0.19882 127.85859,-0.0473 130.41889,0.3366 3.13194,0.46966 4.20874,0.97393 3.29095,1.54116 -1.07209,0.66259 -1.42846,5.68107 -1.66452,23.43982 l -0.30037,22.59672 2.74562,1.07614 c 1.64395,0.64435 6.10678,0.85032 11.12237,0.51333 8.36323,-0.56192 8.38661,-0.57127 14.5,-5.79695 3.36779,-2.87876 9.535,-8.74664 13.70492,-13.03973 4.16991,-4.29309 8.14963,-7.80562 8.84383,-7.80562 1.88958,0 0.4199,8.912 -3.04118,18.4414 -2.25952,6.22116 -2.88431,9.64152 -2.88431,15.78984 0,5.95007 -0.49805,8.82469 -2.05909,11.88459 -1.1325,2.21988 -1.92,5.23945 -1.75,6.71016 0.28129,2.43352 0.80373,2.73825 5.80909,3.38829 6.21883,0.80763 31.03345,1.0697 56.91104,0.60105 l 17.41105,-0.31533 0.95516,-2.84861 c 0.66218,-1.97485 0.58756,-3.53547 -0.24325,-5.08786 -0.86957,-1.62481 -0.92089,-3.31272 -0.18701,-6.15139 1.42064,-5.49513 0.62961,-25.54793 -1.04797,-26.56647 -3.90329,-2.36987 -4.0168,-2.59719 -3.32916,-6.66727 0.64312,-3.80661 0.84365,-4.0097 3.1088,-3.14849 2.3205,0.88225 2.42134,0.7479 2.42134,-3.22592 0,-2.40448 -0.67486,-4.89222 -1.60636,-5.92151 -1.48196,-1.63756 -1.44168,-2.00627 0.52016,-4.76143 1.80634,-2.53676 1.98873,-3.59971 1.21134,-7.0596 -0.61017,-2.71568 -0.56672,-4.28854 0.13039,-4.71937 0.57506,-0.35541 10.54032,-1.01637 22.14502,-1.46881 11.6047,-0.45244 37.07445,-1.71104 56.59945,-2.7969 22.21432,-1.23542 35.85299,-1.62169 36.4432,-1.03213 1.07684,1.07565 -1.91528,57.53074 -3.60166,67.95576 -0.5783,3.575 -1.95848,9.875 -3.06706,14 -1.10859,4.125 -3.04372,11.325 -4.30031,16 -6.8453,25.46728 -7.09998,26 -12.43011,26 -1.41552,0 -4.21414,0.87924 -6.21916,1.95386 -2.76116,1.47989 -6.51754,2.10264 -15.48519,2.56721 -13.34487,0.69133 -25.42011,2.31719 -45.83971,6.17204 -12.5639,2.37183 -16.46189,2.65135 -38,2.72492 -25.55728,0.0873 -34.75199,-1.01513 -46.16322,-5.53485 -2.83977,-1.12476 -6.21477,-1.89611 -7.5,-1.7141 -2.25546,0.3194 -2.36081,0.74851 -3.02728,12.33092 -0.37977,6.6 -1.3451,15.825 -2.14518,20.5 l -1.45469,8.5 2.97731,6.85472 c 1.93559,4.45635 2.76493,7.70093 2.37031,9.27322 -0.33386,1.33017 -5.01375,13.80151 -10.39977,27.71409 -9.31651,24.06542 -10.09904,25.66262 -16.09066,32.84237 l -6.2979,7.54676 -10.13446,3.07155 c -9.91767,3.00584 -10.63726,3.07725 -33.6394,3.3381 l -23.50494,0.26654 -6.49506,-4.45367 L 541.5,440.5 514,440.77134 c -34.88237,0.34418 -37.77578,0.99859 -46.62745,10.54576 -3.2299,3.48369 -7.34126,9.28279 -9.13635,12.8869 l -3.26379,6.55291 1.51798,6.54543 c 1.01946,4.39582 1.21641,7.30935 0.59969,8.87154 -1.47299,3.73121 -7.89128,9.60826 -11.89707,10.8938 -5.23526,1.68012 -6.73577,3.28565 -11.86511,12.69555 -4.24127,7.78071 -4.4781,8.60348 -3.54012,12.29883 1.60755,6.33322 -2.15563,18.68214 -7.29796,23.94836 -2.17401,2.2264 -5.68933,4.56829 -7.81182,5.2042 -9.02166,2.70295 -11.00818,11.6066 -5.678,25.44888 3.42591,8.89695 3.70187,14.20856 1.15942,22.31654 -2.09709,6.68773 -5.89988,9.63772 -13.45988,10.44141 -7.50626,0.79798 -73.614,2.60651 -90.69954,2.4813 -9.89769,-0.0725 -17.03921,-0.67179 -22.5,-1.888 z M 607.76541,431.96343 c 5.44077,-1.5492 9.50778,-6.5584 12.71394,-15.65931 3.43147,-9.74047 8.80208,-24.29928 13.02335,-35.30412 6.34012,-16.52865 6.55844,-17.45041 4.7707,-20.14213 -0.8613,-1.29683 -2.28767,-2.93938 -3.1697,-3.65012 -1.04782,-0.84433 -1.63894,-2.99992 -1.70538,-6.21883 -0.12524,-6.06806 -1.20344,-7.43131 -7.54272,-9.53688 -4.51504,-1.49966 -10.10485,-1.58687 -58.67304,-0.91546 L 513.5,341.2787 504,346.20179 c -7.99123,4.14122 -10.89899,6.38225 -18.30879,14.11065 -11.45644,11.94905 -15.82991,20.37002 -16.48858,31.74819 -0.40658,7.02355 -0.19029,8.26738 2.17292,12.49562 1.44345,2.58261 2.62445,5.27357 2.62445,5.97991 0,1.4489 6.50832,10.09979 11.75408,15.62357 1.91154,2.01286 3.17231,4.15036 2.80171,4.75 -1.98364,3.20959 0.51649,3.33058 57.82693,2.7985 40.33701,-0.37449 58.3704,-0.88709 61.38269,-1.7448 z M 571.8125,419.31689 c 0.72187,-0.28887 1.58438,-0.25335 1.91667,0.0789 0.33229,0.33229 -0.25834,0.56864 -1.3125,0.52522 -1.16495,-0.048 -1.4019,-0.28494 -0.60417,-0.60416 z m -66.74676,-92.35207 c 2.4651,-1.31928 2.49657,-2.96482 0.0567,-2.96482 -2.0866,0 -4.47425,2.31486 -3.4471,3.34201 0.86778,0.86778 1.11568,0.8402 3.3904,-0.37719 z M 292,325 c 0,-0.55 -0.42344,-1 -0.94098,-1 -0.51754,0 -1.2191,0.45 -1.55902,1 -0.33992,0.55 0.0835,1 0.94098,1 0.85746,0 1.55902,-0.45 1.55902,-1 z m 213,-6 c 0,-0.55 -0.45,-1 -1,-1 -0.55,0 -1,0.45 -1,1 0,0.55 0.45,1 1,1 0.55,0 1,-0.45 1,-1 z m -212.39583,-3.72917 c -1.01652,-1.01651 -1.85525,0.51389 -1.02122,1.86338 0.63003,1.01942 0.86558,1.02021 1.2043,0.004 0.2316,-0.69479 0.14921,-1.53513 -0.18308,-1.86742 z M 504,309.96862 c 0,-0.56727 -0.675,-1.29041 -1.5,-1.60699 -2.00272,-0.76852 -4.78662,0.3656 -4.00437,1.63131 0.81898,1.32513 5.50437,1.30442 5.50437,-0.0243 z m 316,-20.05195 c 0,-2.43705 -2.33677,-2.09257 -2.82332,0.4162 -0.19138,0.98676 0.31876,1.66713 1.25,1.66713 C 819.35431,292 820,291.145 820,289.91667 Z M 241.40215,244.71505 C 242.28097,242.08333 243,238.71574 243,237.23151 c 0,-1.48423 1.38491,-5.48361 3.07758,-8.88751 2.48701,-5.00132 3.78725,-6.47288 6.77589,-7.6687 4.92751,-1.97159 31.12522,-2.52157 154.7487,-3.24867 87.86944,-0.51682 98.4954,-0.4127 101.87212,0.99818 4.84587,2.02474 5.52571,1.98344 5.52571,-0.3356 0,-1.28457 -1.55672,-2.67743 -4.75,-4.25 L 505.5,211.5 381,211.87511 l -124.5,0.3751 -5.19741,2.15786 c -7.23547,3.00401 -9.86243,7.21174 -12.33535,19.75811 -2.06271,10.46519 -2.4258,15.04193 -1.28391,16.18382 1.03427,1.03426 1.96034,-0.36897 3.71882,-5.63495 z M 732,200.38197 c 0,-0.825 -0.45,-1.22189 -1,-0.88197 -0.55,0.33992 -1,1.29303 -1,2.11803 0,0.825 0.45,1.22189 1,0.88197 0.55,-0.33992 1,-1.29303 1,-2.11803 z M 326.6875,586.35417 C 325.3834,585.05007 326.00601,584 328.08333,584 c 1.16375,0 1.90861,0.52417 1.6875,1.1875 -0.48711,1.46134 -2.15686,2.09314 -3.08333,1.16667 z M 279,517.62212 c 0,-1.20699 3.13357,-7.58664 3.98485,-8.11276 1.48316,-0.91664 1.25953,0.0913 -1.00517,4.53048 C 280.23876,517.45231 279,518.9416 279,517.62212 Z M 285,505.5 c 0,-0.825 0.43588,-1.5 0.96862,-1.5 0.53273,0 0.70959,0.675 0.39301,1.5 -0.31659,0.825 -0.75246,1.5 -0.96862,1.5 C 285.17686,507 285,506.325 285,505.5 Z m 12.59349,-23 c 0.88312,-2.2 2.23587,-4.71043 3.0061,-5.57874 0.77022,-0.86831 1.40041,-2.03606 1.40041,-2.59501 0,-0.55895 0.9,-1.83076 2,-2.82625 1.1,-0.99549 2,-1.50841 2,-1.13984 0,1.02934 -5.75207,10.82746 -8.00739,13.63984 l -2.00481,2.5 z M 308,465.65499 c 0,-0.73976 0.90055,-2.16 2.00123,-3.1561 1.98602,-1.79733 1.98926,-1.78711 0.42676,1.34501 C 308.73253,467.24253 308,467.78894 308,465.65499 Z m 11,-17.08095 c 0,-1.18552 6.26562,-10.64176 6.73808,-10.16929 0.59474,0.59474 -4.3103,9.21283 -5.74994,10.10258 C 319.44466,448.84322 319,448.87324 319,448.57404 Z M 419.40836,382.62179 C 418.59899,380.51261 419.73506,379 422.12857,379 c 1.51073,0 1.93109,0.5568 1.69098,2.23978 -0.37294,2.61398 -3.55579,3.61115 -4.41119,1.38201 z M 617.56858,223.6738 c -2.01035,-1.47 -1.64203,-3.74763 1.19794,-7.40807 1.44055,-1.85672 2.24043,-2.09378 4.73348,-1.40286 2.49272,0.69083 2.96535,1.30053 2.79511,3.60568 -0.39601,5.36222 -4.86573,8.02834 -8.72653,5.20525 z M 177.8125,203.31689 c 0.72187,-0.28887 1.58437,-0.25335 1.91667,0.0789 0.33229,0.33229 -0.25834,0.56864 -1.3125,0.52522 -1.16495,-0.048 -1.4019,-0.28494 -0.60417,-0.60416 z m 473.37288,-1.00071 c -0.72305,-0.28926 -1.70806,-1.56073 -2.18892,-2.82549 -0.67838,-1.78426 -2.28852,-2.64256 -7.18538,-3.83021 -7.29276,-1.76874 -13.43688,-3.92901 -14.54241,-5.11311 -1.03944,-1.11332 36.33332,0.13051 38.38278,1.27745 1.22372,0.68483 0.4684,1.08008 -3.08122,1.61238 -4.38201,0.65712 -4.83164,1.00684 -6.60074,5.13398 -1.89404,4.41862 -2.30202,4.73798 -4.78411,3.745 z M 201.75,199.33772 c 0.6875,-0.27741 1.8125,-0.27741 2.5,0 0.6875,0.27741 0.125,0.50439 -1.25,0.50439 -1.375,0 -1.9375,-0.22698 -1.25,-0.50439 z M 208.5,198 c 1.65,-0.41985 5.025,-0.77176 7.5,-0.78201 3.65317,-0.0151 4.02954,0.13204 2,0.78201 -1.375,0.44035 -4.75,0.79225 -7.5,0.78201 -4.27216,-0.0159 -4.56329,-0.12976 -2,-0.78201 z M 391.66667,160.33333 C 391.3,159.96667 391,158.80417 391,157.75 c 0,-2.59345 2.41518,-1.66977 2.81955,1.07833 0.30937,2.10247 -0.78817,2.86972 -2.15288,1.505 z M 445.24962,42.75 c -0.5474,-0.6875 -1.25225,-4.4 -1.56634,-8.25 -0.3141,-3.85 -1.02345,-9.892481 -1.57635,-13.427736 -0.5529,-3.535255 -0.77659,-6.797755 -0.49708,-7.25 C 441.88935,13.370019 445.41138,13 449.43657,13 c 7.94166,0 10.25064,-1.259446 9.07866,-4.9520122 C 458.15282,6.9061401 458.31241,6 458.87591,6 460.2807,6 463,10.079729 463,12.187322 c 0,0.958271 0.87042,2.208143 1.93426,2.777494 2.86532,1.533474 11.38257,1.262781 13.62461,-0.433013 1.30234,-0.985037 4.45314,-1.478662 9.5745,-1.5 7.03337,-0.0293 7.68713,-0.208659 8.3173,-2.281803 0.65623,-2.1588506 0.72779,-2.1284675 1.76658,0.75 0.59545,1.65 1.57766,3.330609 2.18269,3.734687 1.75276,1.170605 14.51781,0.879701 16.88034,-0.384687 2.80467,-1.501016 16.4687,-1.501016 17.96972,0 1.50769,1.507685 17.96275,1.537252 19.46502,0.03498 1.61267,-1.612668 17.13058,-1.730718 17.74271,-0.134976 0.67326,1.755116 17.45444,1.755116 17.97772,0 1.55872,-5.2280673 1.70957,-5.3936023 2.66175,-2.920892 0.84887,2.204439 1.31186,2.311491 8.64984,2 6.34527,-0.269353 8.0707,-0.01136 9.50296,1.420892 1.15561,1.155614 3.30075,1.75 6.31574,1.75 C 622.98293,17 626,15.611993 626,13.119804 c 0,-0.995406 0.9,-2.624318 2,-3.619804 1.95985,-1.7736369 2,-1.7466335 2,1.345012 V 14 l 8.25,0.0318 c 5.66419,0.02184 8.85841,0.491982 10.19113,1.5 2.01479,1.523914 9.31021,1.987599 11.05887,0.702884 0.55,-0.404078 1.675,-2.048608 2.5,-3.654511 2.03956,-3.970097 3.19701,-4.0988011 5.20063,-0.578287 1.69987,2.986809 1.7041,2.987942 9.4702,2.537416 6.0278,-0.349684 8.14657,-0.109546 9.45127,1.071197 2.6614,2.40853 9.04809,1.461859 10.54834,-1.563535 1.31873,-2.659316 5.15473,-5.9889931 6.94089,-6.0247312 0.63823,-0.01277 0.91508,1.0043359 0.65034,2.3892462 -0.65264,3.414102 2.47355,4.772205 10.32947,4.487404 3.9076,-0.141663 6.93595,0.228202 7.64097,0.933222 C 722.87445,16.474449 725.10143,17 727.18095,17 c 3.17796,0 3.87897,-0.390543 4.39557,-2.448846 0.37678,-1.501242 2.13739,-3.242561 4.54984,-4.5 5.09135,-2.6537565 5.69884,-2.5875957 5.09806,0.555214 -0.69246,3.622333 0.98774,4.360442 9.96656,4.378319 4.23004,0.0084 7.9691,0.465313 8.30902,1.015313 1.18619,1.919293 5.42193,1.048783 7.05978,-1.450893 C 768.10498,12.190835 775.33028,8 777.85091,8 c 0.94157,0 0.95471,0.4946871 0.0577,2.170835 -1.87857,3.510135 1.18223,4.973362 9.88642,4.72625 4.45197,-0.126391 7.74512,0.243028 8.45,0.947905 1.7155,1.715504 3.55161,1.403582 4.73311,-0.804072 0.94688,-1.769252 6.44877,-4.772076 11.93261,-6.5125795 C 814.71372,7.9560874 815,8.2774449 815,10.873595 c 0,1.654604 0.51471,3.326482 1.14381,3.715283 0.62909,0.388802 4.48049,0.672345 8.55866,0.630096 8.78387,-0.091 9.14675,0.347982 6.84181,8.276713 -0.89579,3.081392 -1.90482,8.559358 -2.24229,12.173258 l -0.61358,6.570726 -128.09421,-0.626846 c -70.45181,-0.344765 -155.09681,-0.893052 -188.1,-1.218417 l -60.0058,-0.591571 -1.89919,2.098582 c -2.16069,2.387545 -3.89481,2.663135 -5.33959,0.848581 z"
     style="fill:#ad0504" />
  <path
     inkscape:connector-curvature="0"
     id="path4532"
     d="m 272,606.92445 c -9.075,-2.14795 -19.65,-4.54695 -23.5,-5.33111 -9.17411,-1.86857 -12.5,-3.21053 -12.5,-5.04359 0,-1.08816 0.75471,-1.36534 2.75,-1.00998 1.5125,0.26937 7.025,1.20057 12.25,2.06932 15.63118,2.59897 17.51995,2.97619 18.76977,3.74862 0.65814,0.40676 4.46669,1.37982 8.46343,2.16235 3.99674,0.78254 11.53913,2.3461 16.76087,3.47458 5.22174,1.12848 11.85903,2.15384 14.74953,2.27857 2.89049,0.12474 5.25566,0.56429 5.25592,0.97679 2.7e-4,0.4125 -5.96202,0.71171 -13.24952,0.6649 -11.74633,-0.0754 -15.1225,-0.5283 -29.75,-3.99045 z m 46.25,3.38622 c 0.9625,-0.25152 2.5375,-0.25152 3.5,0 0.9625,0.25153 0.175,0.45733 -1.75,0.45733 -1.925,0 -2.7125,-0.2058 -1.75,-0.45733 z m 8.5,-0.0164 c 1.2375,-0.23836 3.2625,-0.23836 4.5,0 1.2375,0.23835 0.225,0.43337 -2.25,0.43337 -2.475,0 -3.4875,-0.19502 -2.25,-0.43337 z m 16.0625,0.0226 c 0.72187,-0.28887 1.58438,-0.25335 1.91667,0.0789 0.33229,0.33229 -0.25834,0.56864 -1.3125,0.52522 -1.16495,-0.048 -1.4019,-0.28494 -0.60417,-0.60416 z M 347,610.02899 c -1.03938,-0.69178 2.31294,-1.00307 10.91667,-1.01368 6.82916,-0.008 12.22916,0.15126 12,0.35484 -1.09696,0.97448 -21.5586,1.56275 -22.91667,0.65884 z m 31.75,-1.69127 c 0.6875,-0.27741 1.8125,-0.27741 2.5,0 0.6875,0.27741 0.125,0.50439 -1.25,0.50439 -1.375,0 -1.9375,-0.22698 -1.25,-0.50439 z M 394,607 c 1.1,-1.1 2,-2.66463 2,-3.47695 0,-0.81232 1.125,-2.21407 2.5,-3.11501 2.55758,-1.67579 3.20234,-4.74925 1.54574,-7.36828 -0.79119,-1.25083 -1.21622,-1.19545 -2.96384,0.38612 -2.26855,2.05301 -2.47934,1.78628 -3.50384,-4.43356 -0.31777,-1.92923 -1.69713,-5.6104 -3.06523,-8.18038 -2.18836,-4.11082 -2.37747,-5.25222 -1.57267,-9.49231 0.50315,-2.6508 1.87564,-7.06023 3.04999,-9.79874 1.33911,-3.1227 1.73899,-5.11118 1.07252,-5.33333 -1.69876,-0.56626 -1.22759,-2.36444 1.94204,-7.41166 1.75753,-2.79863 3.49809,-4.52019 4.27042,-4.22382 0.71704,0.27516 3.19269,-1.11663 5.50146,-3.09284 4.0946,-3.50483 6.22341,-3.81276 6.22341,-0.90022 0,2.50113 1.88355,1.56583 3.64307,-1.80902 2.59811,-4.98331 3.38857,-10.78768 1.94062,-14.25 -3.76085,-8.9929 -3.76068,-9.46302 0.004,-11.6843 2.70702,-1.59719 3.22262,-2.3392 2.35328,-3.3867 -1.29923,-1.56547 -0.43907,-3.429 1.58275,-3.429 1.65176,0 3.82807,-3.62159 2.9906,-4.97665 -1.06212,-1.71855 2.47126,-8.29819 6.24989,-11.63813 2.53163,-2.2377 4.7729,-3.31538 6.95374,-3.34359 2.29775,-0.0297 3.58468,-0.7016 4.5,-2.34934 0.81897,-1.47429 2.1848,-2.29538 3.78194,-2.27358 2.32001,0.0317 2.52199,-0.34871 2.80541,-5.28325 0.19812,-3.44924 -0.21044,-6.10467 -1.16291,-7.55831 -0.87324,-1.33274 -1.13403,-2.78184 -0.64347,-3.57558 0.45366,-0.73404 0.4541,-2.30975 9.7e-4,-3.50157 -0.99102,-2.60657 0.26809,-4.97924 2.6487,-4.99126 0.95285,-0.005 2.6404,-1.58374 3.75011,-3.50874 1.70105,-2.9508 1.74581,-3.2815 0.28525,-2.1075 -0.95281,0.76588 -2.02152,1.10338 -2.37489,0.75 -0.92208,-0.92208 4.88385,-6.5816 6.78584,-6.61472 1.96324,-0.0342 4.90499,-3.14957 4.90499,-5.19449 0,-1.02938 1.09857,-1.55053 3.45521,-1.63912 1.90036,-0.0714 5.06444,-0.80228 7.03128,-1.62408 4.09857,-1.71249 3.20433,-1.67524 39.01351,-1.62506 l 27,0.0378 4.87548,3.25857 c 12.2704,8.20102 9.19592,7.5821 34.9857,7.04294 21.26938,-0.44465 23.82556,-0.69322 31.63882,-3.07666 6.72538,-2.05159 9.12634,-3.31401 11.5,-6.0467 1.65,-1.89957 4.66431,-5.12964 6.69846,-7.17794 2.03415,-2.04829 3.96245,-5.01993 4.28511,-6.60362 0.52825,-2.59285 1.9014,-6.84669 5.61009,-17.37945 0.67782,-1.925 2.69509,-7.325 4.48283,-12 1.78774,-4.675 3.77541,-10.19095 4.41706,-12.25768 0.64164,-2.06672 2.03058,-4.22005 3.08654,-4.78518 1.05595,-0.56513 1.91991,-1.88595 1.91991,-2.93516 0,-2.84688 -3.5484,-8.26366 -6.84198,-10.44459 l -2.90348,-1.9226 -0.14679,-20.54691 c -0.0853,-11.94445 -0.55913,-20.95926 -1.13166,-21.53179 -0.54168,-0.54168 -4.66029,-0.85958 -9.15246,-0.70644 -7.06382,0.2408 -9.12413,0.76057 -15.24561,3.8461 -3.89291,1.96223 -10.22802,4.6896 -14.07802,6.06084 -6.80283,2.42294 -8.08445,2.51699 -45.5,3.33887 -27.46515,0.60332 -41.1368,1.3051 -47.69966,2.44849 -8.8801,1.54711 -13.94887,1.2944 -12.75584,-0.63595 0.31544,-0.5104 1.8153,-0.928 3.33302,-0.928 1.51771,0 4.97865,-0.65116 7.69098,-1.44702 3.74587,-1.09913 14.3079,-1.59328 43.9315,-2.05536 38.79303,-0.6051 44.35153,-1.08766 52,-4.51434 2.2,-0.98564 6.24589,-2.75774 8.99086,-3.93799 2.74497,-1.18026 7.17218,-3.54566 9.83824,-5.25647 6.10559,-3.91795 5.26696,-4.49027 -8.5229,-5.81647 -7.64748,-0.73547 -97.88816,-1.59044 -113.3062,-1.0735 -1.1,0.0369 -7.4,0.26513 -14,0.50721 -10.14748,0.37221 -96.89881,1.55323 -158.5,2.15779 -22.98552,0.22558 -23.58123,0.26146 -22.45,1.3519 1.07229,1.03362 6.94185,1.62064 29.95,2.9953 8.8,0.52577 17.8548,1.2298 20.12178,1.5645 2.26698,0.3347 9.91698,1.02336 17,1.53035 7.08302,0.507 18.27822,1.42224 24.87822,2.03387 6.6,0.61163 14.25,1.25754 17,1.43535 2.75,0.17782 11.3,0.82335 19,1.43451 7.7,0.61116 20.525,1.54409 28.5,2.07317 19.01301,1.26136 23.62895,2.19161 26.84799,5.41065 2.84137,2.84137 1.61839,3.40738 -2.64765,1.22537 -2.72094,-1.39172 -14.50867,-2.71283 -41.20034,-4.61754 -7.975,-0.56909 -18.55,-1.46376 -23.5,-1.98815 -4.95,-0.52439 -16.65,-1.43834 -26,-2.03098 -9.35,-0.59265 -20.825,-1.49533 -25.5,-2.00596 -4.675,-0.51063 -16.15,-1.43244 -25.5,-2.04847 -9.35,-0.61602 -20.6,-1.54991 -25,-2.0753 -4.4,-0.5254 -11.6,-1.16886 -16,-1.42991 -10.01553,-0.59423 -11.14299,-0.94283 -9.49018,-2.93434 1.07295,-1.29282 0.33294,-1.48996 -5.63738,-1.50182 -3.77984,-0.008 -7.79826,-0.26233 -8.92983,-0.56627 -2.91062,-0.78178 -7.42226,2.95026 -5.69261,4.70894 0.69261,0.70423 1.25683,3.7458 1.26531,6.82098 0.018,6.51329 0.29308,6.9989 5.26862,9.3 4.70192,2.17456 9.87443,2.23659 13.87767,0.16643 2.18405,-1.12941 5.16509,-1.4958 10.39457,-1.27756 4.03276,0.1683 7.6615,-0.0232 8.06387,-0.42558 0.40237,-0.40237 1.75586,0.23067 3.00774,1.40676 1.27707,1.19974 3.07419,1.92964 4.09425,1.66289 2.8706,-0.75068 25.68259,9.35343 26.10712,11.56362 0.28258,1.47116 -0.0706,1.71158 -1.73723,1.18261 C 342.42983,345.00165 342,345.29002 342,346.93261 c 0,2.81291 -1.50271,2.62042 -10.10917,-1.29495 -7.97468,-3.62794 -3.93134,-3.01511 -60.39083,-9.15314 -12.65,-1.37526 -25.025,-2.93755 -27.5,-3.47176 -2.475,-0.53422 -6.975,-0.64274 -10,-0.24115 -3.0616,0.40644 -9.93345,0.21663 -15.5,-0.42813 -5.5,-0.63705 -24.625,-2.8208 -42.5,-4.85278 -17.875,-2.03197 -32.695,-3.88115 -32.93333,-4.10927 -0.23834,-0.22812 0.0438,-0.89191 0.62699,-1.47509 0.73969,-0.73969 2.23152,-0.74794 4.93333,-0.0273 2.13016,0.56817 9.94801,1.73853 17.37301,2.6008 7.425,0.86227 16.875,2.01201 21,2.55498 13.2207,1.74023 35.57009,3.96587 39.59679,3.94322 2.14676,-0.0121 5.85045,-0.90564 8.23042,-1.98568 4.2229,-1.91637 16.07944,-13.38357 16.14158,-15.61152 0.0172,-0.61553 -1.65629,-1.40128 -3.71879,-1.74609 -5.57719,-0.93241 -99.24388,0.54633 -99.88077,1.57684 -0.30101,0.48704 -1.25216,0.30118 -2.11367,-0.41303 -1.20275,-0.99709 -8.55296,-1.3174 -31.66098,-1.3797 -16.552018,-0.0446 -31.106034,-0.41213 -32.342256,-0.81666 -3.466557,-1.13435 -3.755975,-4.67478 -0.850807,-10.40785 1.406721,-2.77603 3.19707,-6.76791 3.978552,-8.87084 4.610401,-12.40636 14.799159,-36.72679 16.174581,-38.60852 1.58039,-2.16213 1.60215,-2.13146 0.91175,1.28501 -0.389,1.925 -1.28336,4.62868 -1.987471,6.00819 -2.322068,4.54944 -2.19057,6.30749 0.521071,6.96635 1.57245,0.38207 2.61878,1.42869 2.82014,2.82093 0.45321,3.13356 -2.66179,4.11831 -4.774413,1.50933 -1.610589,-1.98899 -1.66482,-1.95823 -2.769428,1.57092 -0.619668,1.97981 -0.74962,4.05519 -0.288781,4.61196 0.460839,0.55678 1.027024,3.13401 1.258188,5.72719 0.355559,3.98862 0.06166,5.0267 -1.908055,6.73934 -1.475962,1.28333 -2.200474,2.85209 -1.979042,4.28513 0.329246,2.1308 0.745449,2.24312 7.245352,1.95526 3.792819,-0.16797 21.971039,-0.169 40.396039,-0.002 88.53311,0.80104 177.60116,-0.25386 201.5,-2.38651 6.05,-0.53988 14.4875,-0.94204 18.75,-0.89369 15.73733,0.17849 23.59558,0.0836 38.12932,-0.46063 14.32243,-0.53627 14.96656,-0.47516 17.21027,1.6327 l 2.33096,2.18982 38.36542,-0.47025 c 21.10098,-0.25864 38.99165,-0.85729 39.75706,-1.33033 0.92916,-0.57426 -1.58843,-1.48698 -7.5757,-2.7465 -7.53346,-1.58478 -13.9548,-1.91758 -40.15861,-2.08128 -17.1552,-0.10717 -31.5177,-0.52128 -31.91666,-0.92024 C 415.99309,288.32643 419.11667,288 423.33333,288 427.77778,288 431,287.57971 431,287 c 0,-0.58769 3.48033,-1 8.44098,-1 4.64254,0 8.7191,-0.45 9.05902,-1 1.2337,-1.99616 -187.10865,-1.85147 -193.67054,0.14879 -2.8361,0.86452 -4.71163,0.81149 -8.25,-0.23327 C 244.06075,284.17184 242,283.21161 242,282.78168 c 0,-0.42992 13.3875,-0.85022 29.75,-0.93399 34.66591,-0.17749 31.84387,-0.0416 33.41161,-1.6093 C 306.14613,279.25387 300.80378,279 279.10113,279 c -29.33612,0 -30.81151,-0.22194 -36.49589,-5.49005 -1.36914,-1.26887 -3.30292,-2.2402 -4.29729,-2.1585 C 237.00652,271.45838 236.5,270.79959 236.5,269 c 0,-2.3588 0.25417,-2.47617 4.5,-2.07812 2.475,0.23203 6.75,0.45703 9.5,0.5 2.90223,0.0453 5.44128,0.63998 6.05179,1.4173 1.48804,1.89462 52.37154,1.30243 54.70574,-0.63668 1.19568,-0.9933 11.59719,-1.4622 44.36578,-2 l 42.80391,-0.7025 0.88573,-3.75 0.88573,-3.75 h 11.27821 c 8.80513,0 11.5512,-0.32892 12.52311,-1.5 0.68469,-0.825 2.38979,-1.5 3.78911,-1.5 1.39932,0 2.25548,-0.28874 1.90258,-0.64164 -0.3529,-0.3529 -6.6154,-0.95779 -13.91666,-1.34419 -9.8402,-0.52076 -3.05465,-0.75726 26.22497,-0.91402 40.12174,-0.21481 71.10902,-1.29031 74.21193,-2.57572 2.06393,-0.85501 2.46444,-2.03101 3.70569,-10.88073 1.52606,-10.88037 2.90097,-10.35361 4.95999,1.9003 1.10469,6.57438 1.59591,7.68553 3.7616,8.50893 3.24563,1.23399 42.88089,1.23189 47.18494,-0.002 2.06706,-0.59282 4.23676,-0.59757 5.77524,-0.0126 2.44926,0.93121 2.46258,1.00843 2.18245,12.65613 -0.27849,11.57996 -0.31154,11.72615 -2.78184,12.30399 -2.28658,0.53486 -2.52522,1.10715 -2.79539,6.70387 -0.34121,7.06806 -0.50843,7.20387 -10.20461,8.2877 -6.37443,0.71253 -6.29232,0.73326 4.25,1.07309 5.9125,0.19059 12.63031,0.36698 14.92847,0.39198 l 4.17847,0.0455 0.0715,-9 c 0.066,-8.30949 0.22498,-9 2.07153,-9 1.84274,0 2.03932,0.83333 2.5,10.59805 0.32354,6.85773 0.98437,11.18107 1.87244,12.25 1.56595,1.88486 7.16645,2.21306 8.86028,0.51923 0.84362,-0.84362 3.23154,-0.80621 9.35625,0.14656 7.03241,1.09398 8.38195,1.07127 9.31728,-0.15678 1.15296,-1.51378 9.44152,-4.34262 10.27675,-3.50739 0.26856,0.26856 -0.47756,1.0052 -1.65804,1.63697 -1.39519,0.74668 -2.0376,1.91243 -1.83564,3.33102 0.2676,1.87972 1.03868,2.22425 5.56068,2.4846 6.10702,0.3516 6.68256,-0.77774 2.6259,-5.15267 -2.41213,-2.60137 -2.49405,-2.96001 -1.01421,-4.43985 1.47984,-1.47984 2.15626,-1.35661 8.37409,1.52554 9.40784,4.36081 24.57324,5.80417 51.52305,4.9037 20.5681,-0.68724 22.33494,-1.07933 21.20883,-4.70662 -0.76399,-2.46089 2.21986,-17.8065 3.98667,-20.503 0.87548,-1.33615 2.49146,-2.42936 3.59107,-2.42936 1.09961,0 3.91902,-1.76955 6.26535,-3.93232 5.34943,-4.93093 12.011,-6.88707 17.67485,-5.19014 3.20698,0.96083 4.64146,0.85439 8.67823,-0.64396 4.87045,-1.8078 6.43336,-3.69367 7.87521,-9.50253 l 0.68729,-2.76895 -16.09175,0.0912 c -8.85046,0.0502 -16.55139,-0.19287 -17.11317,-0.54007 C 735.45964,246.16604 735,244.58501 735,242.99983 c 0,-2.57478 0.45322,-2.98363 4.25,-3.83389 l 4.25,-0.95176 -4.61514,-0.10709 C 734.45345,238.00426 729,235.16504 729,232.96075 c 0,-0.49174 1.575,-2.46908 3.5,-4.39408 4.21515,-4.21515 4.50214,-7.58699 1,-11.74904 -2.91109,-3.45963 -3.20746,-6.57984 -0.7927,-8.34555 0.93902,-0.68663 2.21481,-2.76124 2.8351,-4.61025 1.24855,-3.72176 0.11501,-3.47559 24.9576,-5.42019 4.4,-0.34442 8.12309,-0.74528 8.27354,-0.8908 0.15044,-0.14552 -0.0102,-1.00399 -0.35699,-1.90771 C 767.86622,194.209 765.6448,194 750.95203,194 c -10.14398,0 -17.07961,-0.39741 -17.45203,-1 -0.39706,-0.64246 3.42534,-1.02843 10.69098,-1.07952 6.21996,-0.0437 15.13402,-0.46895 19.80902,-0.94493 18.00778,-1.83344 73.50668,-4.86887 74.3112,-4.06435 0.88727,0.88727 -1.58108,48.73499 -3.35778,65.0888 -0.56765,5.225 -1.84438,12.425 -2.83719,16 -0.9928,3.575 -2.83233,10.325 -4.08784,15 -7.37793,27.47239 -7.63007,27.9966 -13.46952,28.00374 -1.68238,0.002 -4.41909,0.83324 -6.08159,1.84708 -2.355,1.43615 -5.88939,1.97187 -16,2.42516 -8.21906,0.36849 -21.77707,2.0983 -36.97728,4.71778 -19.26904,3.32067 -27.3511,4.242 -41,4.67386 -19.43436,0.61492 -37.13334,-1.16085 -47,-4.7156 -8.03612,-2.89525 -13.48936,-3.5739 -14.61161,-1.81841 -0.48043,0.75152 -0.80981,5.64139 -0.73195,10.86639 0.0779,5.225 -0.64185,14.225 -1.59935,20 l -1.74089,10.5 3.01601,6.34324 c 3.54018,7.44566 3.88646,5.61302 -5.79282,30.65676 -3.40116,8.8 -7.52989,19.6 -9.17495,24 -2.42153,6.47677 -4.2642,9.38391 -9.67774,15.26831 -6.52098,7.08817 -6.90432,7.33063 -15.4677,9.78316 -8.1883,2.34512 -10.44949,2.5295 -33.5,2.7317 L 553.5,448.5 l -6.35696,-4.40417 -6.35696,-4.40416 -27.19261,0.58233 c -33.65394,0.72071 -37.41389,1.51062 -45.29135,9.51507 -2.86284,2.90899 -7.09667,8.71563 -9.40851,12.90366 l -4.20335,7.61459 1.56159,6.52659 c 1.10437,4.61567 1.27868,7.27898 0.59533,9.09634 -1.63041,4.33607 -7.89191,9.92387 -13.03432,11.63191 -4.598,1.52721 -5.0474,2.02046 -9.81186,10.76918 -4.69944,8.62933 -4.96089,9.49219 -4.44454,14.66866 1.26049,12.63651 -5.58089,25.18665 -15.53151,28.49171 -8.83768,2.93541 -10.25874,10.70691 -4.79211,26.20711 l 3.24424,9.19881 -1.68096,8.12935 c -0.92454,4.47114 -2.26938,8.83888 -2.98855,9.70609 C 405.85404,607.08874 400.57953,609 396.03212,609 H 392 Z M 646,337.3 c 0,-2.01099 -0.28907,-2.41093 -1.13278,-1.56722 -0.62303,0.62303 -0.86216,1.83803 -0.53139,2.7 C 645.25126,340.81836 646,340.3087 646,337.3 Z M 272.24118,319.47246 271.49871,313.5 l -6.11911,-0.29434 -6.11912,-0.29433 -4.30991,5.14771 c -5.87049,7.01166 -5.0019,8.34857 5.65557,8.70485 4.34162,0.14515 8.34386,0.42869 8.89386,0.63011 2.48268,0.90917 3.48051,-1.97436 2.74118,-7.92154 z m 370.70667,-5.41906 c 1.13538,-0.7183 0.86561,-1.06211 -1.25,-1.5931 -3.60979,-0.906 -8.67618,0.30851 -6.6457,1.5931 0.79632,0.50378 2.57285,0.91597 3.94785,0.91597 1.375,0 3.15153,-0.41219 3.94785,-0.91597 z M 87.66643,295.57311 c -0.301152,-0.78478 0.122419,-1.98291 0.941268,-2.66249 C 90.217156,291.57489 90.136046,287.5 88.5,287.5 c -0.55,0 -1.150604,1.125 -1.334676,2.5 -0.184072,1.375 -0.746572,2.9275 -1.25,3.45 -1.458222,1.51346 -1.061433,3.55 0.691665,3.55 0.980995,0 1.393695,-0.55584 1.059441,-1.42689 z m 731.01912,-1.74742 c 2.63758,-2.47788 3.03144,-5.61332 0.81211,-6.46496 -2.73282,-1.04868 -6.92836,5.87524 -4.83099,7.9726 1.0244,1.02441 1.52255,0.83753 4.01888,-1.50764 z m -305.27592,0.32054 C 514.21949,292.83584 509.35642,291 505.07539,291 c -4.55498,0 -7.5998,2.57666 -3.88376,3.28662 4.23723,0.80953 11.6838,0.72396 12.218,-0.14039 z M 94.984944,287.18785 C 94.976663,286.25953 94.3362,283.7 93.561694,281.5 c -1.384444,-3.93254 -1.424411,-3.95784 -2.369779,-1.5 -0.61713,1.60446 -0.615028,2.93058 0.0059,3.70201 0.5321,0.66111 0.705343,2.02785 0.384986,3.03721 -0.424959,1.33892 -0.04167,1.87593 1.417381,1.98584 1.274413,0.096 1.994388,-0.46162 1.984794,-1.53721 z M 514,262.41667 c 0,-1.76593 -2.15276,-1.45839 -2.77083,0.39583 -0.21771,0.65312 0.31666,1.1875 1.1875,1.1875 C 513.2875,264 514,263.2875 514,262.41667 Z M 385.21215,586.96809 C 383.78098,584.67643 383.64555,583 384.89159,583 c 0.87712,0 2.52603,4.91572 1.86922,5.57252 -0.18508,0.18509 -0.88199,-0.53691 -1.54866,-1.60443 z M 326,585 c 0,-0.55 0.675,-1 1.5,-1 0.825,0 1.5,0.45 1.5,1 0,0.55 -0.675,1 -1.5,1 -0.825,0 -1.5,-0.45 -1.5,-1 z m 62,-23.88197 c 0,-0.55 0.45,-1.27811 1,-1.61803 0.55,-0.33992 1,-0.16803 1,0.38197 0,0.55 -0.45,1.27811 -1,1.61803 -0.55,0.33992 -1,0.16803 -1,-0.38197 z M 480.83585,426.53229 C 471.56911,416.89926 465,404.20012 465,395.91905 c 0,-3.10341 -0.38389,-4.79983 -1,-4.41905 -0.55,0.33992 -1,-0.0835 -1,-0.94098 0,-0.85746 0.63925,-1.55902 1.42054,-1.55902 0.80924,0 1.68648,-1.39858 2.03852,-3.25 0.33988,-1.7875 1.83813,-5.62297 3.32945,-8.52327 2.22916,-4.33524 2.46321,-5.42906 1.31577,-6.14907 -1.90622,-1.19615 -0.64026,-4.22057 1.43355,-3.42477 1.10096,0.42248 2.61183,-0.6153 4.75612,-3.26686 6.88935,-8.51915 14.75082,-14.97097 24.58385,-20.17567 l 9.99349,-5.28964 16.31435,-0.43792 c 48.29004,-1.29624 91.90941,-1.48766 96.1419,-0.42191 5.01548,1.26291 10.19386,5.29323 11.16427,8.68911 0.9658,3.37975 -0.7792,2.6643 -2.49181,-1.02164 -1.15981,-2.4962 -2.63395,-3.61303 -6.5,-4.9245 -4.36747,-1.48156 -8.22592,-1.62894 -30.5,-1.16498 -14.025,0.29214 -38.1,0.61172 -53.5,0.71019 l -28,0.17904 -9.57084,4.7891 c -8.29766,4.15202 -10.9076,6.14557 -19.61945,14.98595 -8.76489,8.8942 -10.43536,11.15496 -13.07608,17.69684 -1.66512,4.125 -3.336,10.25177 -3.71308,13.61504 -0.62408,5.56639 -0.40903,6.66292 2.39693,12.22148 1.69538,3.35855 3.08252,6.59538 3.08252,7.19296 0,0.59759 2.89644,4.83898 6.43653,9.42532 5.81167,7.52926 6.7584,9.5452 4.48265,9.5452 -0.41111,0 -2.24861,-1.56047 -4.08333,-3.46771 z M 419.17067,381.3523 c 0.19376,-1.00613 1.1755,-1.98787 2.18163,-2.18163 1.32108,-0.25442 1.73145,0.15595 1.47703,1.47703 -0.19376,1.00613 -1.1755,1.98787 -2.18163,2.18163 -1.32108,0.25442 -1.73145,-0.15595 -1.47703,-1.47703 z m -73.78308,-26.88351 c -0.91218,-1.39216 -1.40573,-2.78398 -1.09678,-3.09293 0.30894,-0.30895 1.28145,0.8301 2.16113,2.53121 1.92818,3.72868 1.24646,4.08846 -1.06435,0.56172 z m 2.07129,-5.53532 c -1.07627,-1.74144 0.14952,-2.11024 1.52106,-0.45764 0.78875,0.95039 0.86462,1.52417 0.20152,1.52417 -0.58488,0 -1.36004,-0.47994 -1.72258,-1.06653 z M 281.2,322.8 c -1.84712,-1.84712 -1.42485,-6.18153 0.83896,-8.61144 3.25247,-3.49112 6.06727,-2.66956 7.96624,2.32513 1.01766,2.67663 0.86882,3.19793 -1.4932,5.22965 -2.90985,2.50295 -5.49249,2.87617 -7.312,1.05666 z m -9.17236,-32.2667 c -1.0901,-1.31348 -0.88463,-1.5333 1.43325,-1.5333 1.64422,0 2.55048,0.46589 2.30994,1.1875 -0.6213,1.86392 -2.35068,2.02368 -3.74319,0.3458 z m 342.65986,-3.17913 c -0.37812,-0.37813 -0.65197,-2.975 -0.60855,-5.77084 0.0434,-2.79583 0.30685,-4.51803 0.58541,-3.8271 C 615.29957,279.33181 617,278.37427 617,276.44098 617,275.64844 616.235,275 615.3,275 c -1.32222,0 -1.43333,-0.26667 -0.5,-1.2 2.1629,-2.1629 3.31694,0.6139 3.00157,7.2222 -0.27727,5.80998 -1.38456,8.06148 -3.11407,6.33197 z M 109,272.12244 c 0,-0.48265 0.63494,-1.4045 1.41097,-2.04855 1.56708,-1.30056 3.16989,0.17725 2.08903,1.92611 -0.76156,1.23222 -3.5,1.32803 -3.5,0.12244 z M 224.5,271 c -0.33992,-0.55 0.0835,-1 0.94098,-1 0.85746,0 1.55902,0.45 1.55902,1 0,0.55 -0.42344,1 -0.94098,1 -0.51754,0 -1.2191,-0.45 -1.55902,-1 z M 105,261.93426 c 0,-4.60799 3.38831,-9.6856 3.79313,-5.68426 0.0695,0.6875 0.43116,2.53537 0.80358,4.10637 0.46248,1.95095 0.23749,3.13477 -0.7098,3.73468 C 106.2675,265.7499 105,265.04658 105,261.93426 Z m 125.72862,0.93375 c -0.95076,-0.53208 -2.45652,-2.37493 -3.34612,-4.09523 -1.52042,-2.94017 -1.50586,-3.20941 0.24277,-4.48804 1.02312,-0.74812 2.76348,-1.23074 3.86747,-1.07248 1.68809,0.24199 2.01172,1.05546 2.03534,5.11588 0.0313,5.38715 -0.3065,5.935 -2.79946,4.53987 z m 11.96915,0.49642 C 242.31399,262.98066 242,262.06667 242,261.33333 242,260.37037 243.66667,260 248,260 c 6.62037,0 8.16591,1.53395 2.25,2.23312 -2.0625,0.24376 -4.44851,0.75502 -5.30223,1.13614 -0.85373,0.38112 -1.86623,0.37894 -2.25,-0.005 z M 246,188 c 0,-0.55 0.45,-1 1,-1 0.55,0 1,0.45 1,1 0,0.55 -0.45,1 -1,1 -0.55,0 -1,-0.45 -1,-1 z M 391.66667,160.33333 C 391.3,159.96667 391,158.80417 391,157.75 c 0,-2.59345 2.41518,-1.66977 2.81955,1.07833 0.30937,2.10247 -0.78817,2.86972 -2.15288,1.505 z M 444.92752,41.86457 c -1.07183,-2.002733 -0.9654,-2.090893 1.71277,-1.418716 3.45388,0.866869 3.7471,1.11832 2.90083,2.487615 -1.08117,1.749361 -3.39182,1.214019 -4.6136,-1.068899 z M 827.48663,29.150179 C 826.90118,28.602435 771.20054,27.949798 690.5,27.545125 615.7,27.17004 529.52989,26.666097 499.01087,26.425253 436.7035,25.933547 442.21043,26.724205 442.07029,18.25 L 442,14 h 8.04827 8.04828 l 1.32966,-3.162336 c 1.28078,-3.0460751 1.37092,-3.0852565 2.45173,-1.0657417 C 462.49507,10.925049 463,12.524956 463,13.32727 c 0,0.802314 0.7118,1.731897 1.58179,2.065741 2.49898,0.958951 13.91758,0.706357 14.96821,-0.331116 1.47555,-1.457077 18.13873,-1.565118 19.86935,-0.128829 1.00887,0.83729 4.21496,1.07353 10.27359,0.757006 11.12854,-0.581394 21.71828,-0.597405 31.30706,-0.04733 4.125,0.236635 12.675,0.04577 19,-0.42415 9.26485,-0.688334 11.92809,-0.581936 13.70255,0.547427 1.59543,1.015421 4.07621,1.246465 9,0.838201 24.58058,-2.038137 26.47858,-2.097078 27.5075,-0.854217 1.53998,1.860176 14.19775,1.668483 15.78081,-0.23899 0.67967,-0.818944 1.74727,-1.161366 2.37245,-0.760939 0.62518,0.400428 5.18669,0.839395 10.13669,0.975483 4.95,0.136088 12.04737,0.517345 15.77194,0.847237 l 6.77193,0.599805 1.17331,-3.336298 c 1.15126,-3.27358 1.18466,-3.289301 1.77715,-0.836298 0.59321,2.456018 0.78346,2.501634 10.8143,2.592879 5.61575,0.05108 10.50617,0.388583 10.86758,0.75 0.83093,0.830925 9.78081,0.866772 10.6051,0.04248 0.98707,-0.987066 24.84942,-0.398733 29.04502,0.716114 2.86049,0.760086 4.20894,0.699182 5.34213,-0.24128 1.54285,-1.280449 11.70747,-1.376368 27.06953,-0.255444 3.98089,0.290474 7.72432,0.227566 8.31872,-0.139795 1.70595,-1.054336 29.04402,-0.481411 31.16387,0.653102 1.29599,0.693589 2.30099,0.69397 3.13574,0.0012 1.2107,-1.004789 30.71698,-1.100979 31.54471,-0.102836 0.22057,0.265977 0.0896,2.560334 -0.29102,5.09857 -0.79212,5.282229 -2.63546,8.427288 -4.12338,7.035204 z"
     style="fill:#930303" />
  <path
     inkscape:connector-curvature="0"
     id="path4530"
     d="m 400,607.4859 c 0,-0.28275 1.38451,-1.75115 3.07669,-3.26312 l 3.07669,-2.74902 -1.64513,-4.48688 c -0.90482,-2.46778 -2.00823,-5.83688 -2.45203,-7.48688 -0.44379,-1.65 -1.70026,-5.25 -2.79214,-8 -3.0017,-7.55998 -2.72583,-14.02576 0.82274,-19.28376 3.40917,-5.05142 3.70175,-7.77676 0.91318,-8.50599 -2.88696,-0.75496 -2.57229,-4.49238 0.49594,-5.89035 2.04654,-0.93247 2.8404,-0.8255 4.40907,0.59414 3.0891,2.79559 7.54829,-0.12082 10.54486,-6.8966 1.31325,-2.96949 3.32426,-5.98395 4.46893,-6.6988 2.42137,-1.51217 2.91694,-5.07658 0.5812,-4.18027 -1.69245,0.64946 -2.13493,-2.12793 -0.5,-3.13837 0.55,-0.33992 1,-1.47621 1,-2.52509 0,-2.65127 3.13732,-9.16966 5.28224,-10.97491 0.98024,-0.825 2.4374,-3.975 3.23813,-7 1.82703,-6.90208 1.83234,-8 0.0386,-8 -3.46287,0 -2.84719,-4.09204 0.87054,-5.78595 1.73831,-0.79203 3.00607,-0.70068 5.0593,0.36455 3.80315,1.9731 5.03771,1.79289 6.86949,-1.00276 0.8736,-1.33328 2.43168,-2.69181 3.4624,-3.01895 2.35584,-0.74771 3.93609,-5.9169 4.76255,-15.57887 0.46065,-5.38533 1.30807,-8.52144 3.02818,-11.20658 1.31368,-2.05071 2.38852,-4.33041 2.38852,-5.066 0,-0.73559 1.4625,-2.76224 3.25,-4.50366 1.7875,-1.74142 5.05,-4.97318 7.25,-7.18169 7.5139,-7.54298 11.34748,-8.38347 41,-8.98908 24.5578,-0.50156 34.03,0.1115 29,1.87691 -1.1,0.38607 -12.86675,0.82796 -26.14834,0.98197 -21.4414,0.24863 -24.93576,0.52271 -31.17281,2.44506 -8.83922,2.72438 -15.34051,8.58859 -21.11113,19.04237 -4.31903,7.82416 -4.80437,10.83973 -2.89409,17.98204 2.02026,7.55353 -2.40786,14.13163 -11.76688,17.48003 -5.24476,1.87644 -7.38778,4.39057 -13.1334,15.40772 -2.72019,5.21592 -2.90394,6.1547 -1.98807,10.15706 0.86767,3.79174 0.62554,5.61466 -1.72725,13.0036 -3.04022,9.54783 -6.42349,13.38622 -14.02083,15.90692 -5.04528,1.67396 -8.5372,6.49373 -8.5372,11.78358 0,2.09138 1.55171,8.08917 3.44825,13.32844 3.24304,8.95903 3.38975,9.89929 2.46536,15.79961 -1.57142,10.03026 -2.64208,12.41695 -6.36211,14.18222 -3.53838,1.67907 -4.5515,1.91888 -4.5515,1.07736 z m 24,-96.04492 c 0,-0.85746 0.45734,-1.27636 1.01631,-0.9309 0.55897,0.34546 0.75742,1.04702 0.44098,1.55902 C 424.60006,513.45614 424,513.19751 424,511.44098 Z m 190.05341,-67.82773 c 0.30213,-0.30212 2.32621,-1.27806 4.49795,-2.16876 3.21741,-1.31955 3.67086,-1.34846 2.44864,-0.15612 -0.825,0.80483 -2.84908,1.78077 -4.49795,2.16876 -1.64887,0.38799 -2.75076,0.45825 -2.44864,0.15612 z m 17.9619,-15.30423 C 632.02373,427.86406 632.46684,426.825 633,426 c 0.8354,-1.29269 0.97149,-1.26629 0.98469,0.19098 0.008,0.93004 -0.43469,1.9691 -0.98469,2.30902 -0.55,0.33992 -0.99311,0.25398 -0.98469,-0.19098 z M 480.2,423.8 c -1.44583,-1.44583 -1.55957,-2.8 -0.23518,-2.8 0.53065,0 1.44648,0.9 2.03518,2 1.1788,2.20261 0.0876,2.68759 -1.8,0.8 z m -4.95945,-6.78643 C 474.55825,415.92103 474,414.76947 474,414.45455 c 0,-1.06009 1.98021,0.63996 3.02981,2.60114 1.36878,2.55759 -0.18861,2.52093 -1.78926,-0.0421 z M 638.56062,411 C 639.3803,407.91466 641,405.99501 641,408.10887 c 0,0.82988 -0.6983,2.38238 -1.55178,3.45 -1.49132,1.8655 -1.5259,1.84373 -0.8876,-0.55887 z m -168.43997,-4.33291 c -2.8251,-6.43833 -2.66239,-7.10258 0.46259,-1.88842 1.41037,2.35327 2.36041,4.82827 2.11119,5.5 -0.24922,0.67173 -1.40742,-0.95348 -2.57378,-3.61158 z M 645.06584,394 c 0.003,-0.825 0.68286,-2.625 1.51131,-4 l 1.50628,-2.5 -0.66268,2.5 c -0.36447,1.375 -1.04456,3.175 -1.5113,4 -0.75434,1.33333 -0.84807,1.33333 -0.84361,0 z M 648,386.05902 c 0,-0.51754 0.44485,-1.21592 0.98855,-1.55194 0.56686,-0.35034 0.7345,0.0511 0.39301,0.94098 C 648.71677,387.18048 648,387.49745 648,386.05902 Z M 419.5,381 c 0.33992,-0.55 1.06803,-1 1.61803,-1 0.55,0 0.72189,0.45 0.38197,1 -0.33992,0.55 -1.06803,1 -1.61803,1 -0.55,0 -0.72189,-0.45 -0.38197,-1 z M 650,380.61803 c 0,-0.825 0.45,-1.77811 1,-2.11803 0.55,-0.33992 1,0.057 1,0.88197 0,0.825 -0.45,1.77811 -1,2.11803 -0.55,0.33992 -1,-0.057 -1,-0.88197 z m -3.49121,-21.60102 c -1.39132,-2.69053 -1.38932,-3.6955 0.0204,-10.25 2.69309,-12.52125 3.45901,-18.05117 3.46499,-25.01701 0.003,-3.82947 0.43846,-6.75 1.00579,-6.75 1.71395,0 1.10876,19.79129 -0.97535,31.89611 -1.07915,6.26786 -1.7246,11.78036 -1.43435,12.25 0.29025,0.46964 0.28773,0.85389 -0.006,0.85389 -0.29334,0 -1.22749,-1.34235 -2.07591,-2.98299 z M 335,346 c -0.90129,-0.58246 -1.02463,-0.97549 -0.30902,-0.98469 0.65504,-0.008 1.4691,0.43469 1.80902,0.98469 0.7673,1.24153 0.42112,1.24153 -1.5,0 z m -55.49327,-9.08723 c -33.54756,-3.83455 -37.33987,-4.41296 -36.22737,-5.52546 0.59966,-0.59966 30.09034,2.04168 40.22064,3.60236 3.3,0.5084 12.75,1.66093 21,2.56118 8.25,0.90024 15.675,2.0309 16.5,2.51257 2.65685,1.55118 -6.32457,0.86921 -41.49327,-3.15065 z M 235.5,331 c 1.1,-0.47269 2.675,-0.88417 3.5,-0.9144 1.33333,-0.0489 1.33333,0.0527 0,0.9144 -0.825,0.53316 -2.4,0.94464 -3.5,0.9144 l -2,-0.055 2,-0.85943 z m 459,-7.10917 c -14.33124,-0.90278 -26.01675,-3.11646 -31.71016,-6.00711 C 660.74925,316.84767 658.16175,316 657.03984,316 655.71392,316 655,315.34551 655,314.12996 c 0,-2.36854 -5.76569,-4.0292 -15.5,-4.46436 -7.28519,-0.32569 -12.43427,-2.13133 -10.78396,-3.78164 0.57434,-0.57434 3.77462,-0.29026 8.35736,0.74185 4.08463,0.91993 8.7766,1.71796 10.4266,1.7734 2.69202,0.0904 2.97967,-0.18886 2.80194,-2.72073 -0.10893,-1.55184 0.24175,-3.9783 0.77929,-5.39213 0.97183,-2.55611 1.02085,-2.56616 8.69805,-1.78402 10.97878,1.11849 60.03744,1.44949 64.22072,0.43328 1.925,-0.46762 8.83604,-1.16337 15.35787,-1.54612 l 11.85787,-0.6959 1.88839,-3.0968 c 1.03862,-1.70323 1.89008,-4.28689 1.89213,-5.74145 0.002,-1.45457 0.92101,-5.61445 2.04212,-9.24417 1.58586,-5.13444 2.65652,-6.91915 4.82283,-8.0394 4.37641,-2.26313 5.61938,-4.20344 3.46505,-5.40906 -1.69568,-0.94895 -1.68598,-1.10938 0.19455,-3.21874 1.08856,-1.221 3.38283,-2.81434 5.0984,-3.54076 2.49845,-1.05791 3.02953,-1.78988 2.66859,-3.67803 -0.50557,-2.64471 2.33454,-13.37374 3.77603,-14.26463 0.51296,-0.31703 1.91618,0.11246 3.11825,0.95443 1.20264,0.84236 3.17258,1.28313 4.38016,0.98004 1.20701,-0.30294 8.15102,0.1771 15.43114,1.06676 11.93239,1.45819 13.4681,1.46586 15.58641,0.0779 2.97601,-1.94995 4.87506,-1.94297 7.88462,0.029 1.33067,0.87189 3.86904,1.4271 5.71482,1.25 3.28939,-0.31563 3.32281,-0.37061 3.53693,-5.81864 0.28685,-7.29856 1.89394,-30.43092 2.83106,-40.75 0.69938,-7.70123 0.62295,-8.24923 -1.149,-8.23848 -1.04402,0.006 -13.99221,0.67208 -28.77376,1.47943 -16.25298,0.88773 -27.51202,1.11173 -28.48586,0.56674 -2.9199,-1.63406 -2.33317,-1.68612 52.16611,-4.6285 l 9.80471,-0.52935 -0.52828,3.30008 c -0.51474,3.21551 -1.48244,17.27566 -3.62421,52.6581 -1.09623,18.11 -0.8603,16.97046 -11.52029,55.64198 -3.2306,11.71976 -2.55222,10.76266 -8.49031,11.97851 -2.99548,0.61333 -6.51336,1.70159 -7.81752,2.41836 -1.30415,0.71677 -5.80415,1.48117 -10,1.69867 -17.19262,0.89123 -18.96947,1.1146 -47.46103,5.96631 -12.3178,2.09755 -37.42451,4.69791 -41.16778,4.26385 -0.55,-0.0638 -6.85,-0.48447 -14,-0.93487 z m 125.42742,-28.52569 c 4.91927,-6.25384 0.0345,-12.39392 -5.9833,-7.52097 -1.52286,1.23314 -2.27745,2.91894 -2.27745,5.08797 0,5.44254 4.78491,6.85181 8.26075,2.433 z M 781.75,256.36971 c 2.64624,-0.70916 3.04515,-3.37981 0.5,-3.34747 -0.9625,0.0122 -2.875,0.90222 -4.25,1.97776 -2.289,1.79048 -2.3312,1.95625 -0.5,1.96411 1.1,0.005 3.0125,-0.26276 4.25,-0.5944 z M 143.5,323 c 0.33992,-0.55 0.81648,-1 1.05902,-1 0.24254,0 0.44098,0.45 0.44098,1 0,0.55 -0.47656,1 -1.05902,1 -0.58246,0 -0.7809,-0.45 -0.44098,-1 z m 138.68045,-5.23978 c 0.3481,-2.4399 3.40098,-3.57879 5.08339,-1.89638 1.41414,1.41414 -0.86015,4.13616 -3.45584,4.13616 -1.44503,0 -1.8647,-0.57754 -1.62755,-2.23978 z M 252.5,310.35128 c -3.04195,-0.93536 -15.01757,-1.08879 -50,-0.6406 -112.948354,1.44708 -118.001981,1.46389 -120.75,0.40174 -2.188696,-0.84597 -2.75,-1.70243 -2.75,-4.19608 0,-2.9253 0.18244,-3.08555 2.75,-2.41551 4.025194,1.05042 68.046,1.06706 235.75,0.0613 164.87188,-0.9888 170.51839,-1.0373 229,-1.96688 27.10142,-0.43078 43.37293,-0.29255 48,0.40777 3.85,0.58271 12.06637,1.42429 18.25859,1.87017 11.40658,0.82134 13.40468,1.36357 11.61599,3.15226 -0.65611,0.65611 -4.52803,0.58172 -11.43333,-0.21967 -9.69016,-1.12459 -64.84868,-1.24107 -123.44125,-0.26067 -9.9,0.16565 -47.7,0.59193 -84,0.94729 -108.32247,1.06042 -129.80407,1.47905 -133.23045,2.59639 -1.77675,0.57939 -3.60252,0.82349 -4.05726,0.54244 -0.45475,-0.28105 -3.27605,-0.18227 -6.26955,0.21951 -3.50552,0.4705 -6.86645,0.29274 -9.44274,-0.49943 z M 257.5,275 c -0.40611,-0.65711 7.8888,-0.9759 24.19098,-0.92971 14.78497,0.0419 24.00092,0.41753 22.80902,0.92971 -2.88146,1.23821 -46.23475,1.23821 -47,0 z m 102.75,-0.74331 c 4.2625,-0.18745 11.2375,-0.18745 15.5,0 4.2625,0.18745 0.775,0.34082 -7.75,0.34082 -8.525,0 -12.0125,-0.15337 -7.75,-0.34082 z m 61.94942,-5.2e-4 c 4.78468,-0.18291 12.88468,-0.18377 18,-0.002 5.11532,0.18186 1.20058,0.33151 -8.69942,0.33256 -9.9,0.001 -14.08526,-0.14774 -9.30058,-0.33065 z m 90.53391,-1.38026 c 0.67834,-0.68342 1.48524,-0.99067 1.79313,-0.68278 0.30789,0.30789 -0.24711,0.86705 -1.23333,1.24258 -1.4252,0.54268 -1.54006,0.42782 -0.5598,-0.5598 z M 824,237.05902 c 0,-0.51754 0.45,-1.2191 1,-1.55902 0.55,-0.33992 1,0.0835 1,0.94098 0,0.85746 -0.45,1.55902 -1,1.55902 -0.55,0 -1,-0.42344 -1,-0.94098 z m -48.59164,-6.43723 C 774.59899,228.51261 775.73506,227 778.12857,227 c 1.51073,0 1.93109,0.5568 1.69098,2.23978 -0.37294,2.61398 -3.55579,3.61115 -4.41119,1.38201 z M 825,217.5 c 0,-0.825 0.45,-1.5 1,-1.5 0.55,0 1,0.675 1,1.5 0,0.825 -0.45,1.5 -1,1.5 -0.55,0 -1,-0.675 -1,-1.5 z m 2,-19 c 0,-1.375 0.45,-2.5 1,-2.5 0.55,0 1,1.125 1,2.5 0,1.375 -0.45,2.5 -1,2.5 -0.55,0 -1,-1.125 -1,-2.5 z M 391.44615,158.91287 c -0.36954,-0.59793 -0.23136,-1.52766 0.30707,-2.06609 0.6386,-0.6386 1.16679,-0.26065 1.51925,1.08713 0.5678,2.17129 -0.67703,2.83855 -1.82632,0.97896 z M 446.5,43 c -0.33992,-0.55 0.0835,-1 0.94098,-1 0.85746,0 1.55902,0.45 1.55902,1 0,0.55 -0.42344,1 -0.94098,1 -0.51754,0 -1.2191,-0.45 -1.55902,-1 z M 827.15881,27.098152 C 826.47368,26.674717 811.64517,26.273239 794.20656,26.205977 776.76795,26.138716 718.175,25.820552 664,25.498946 609.825,25.17734 538.05497,24.756103 504.51103,24.562863 l -60.98896,-0.351345 -0.66136,-2.355759 c -1.68174,-5.990408 -1.27172,-6.601667 4.08311,-6.087136 7.43934,0.714827 11.80332,-0.407923 13.39528,-3.446293 l 1.35728,-2.5904549 0.62951,3.1475619 0.62951,3.147562 17.7723,-0.0011 c 9.77476,-5.87e-4 42.9723,0.192596 73.7723,0.429295 30.8,0.2367 72.2,0.475299 92,0.530221 19.8,0.05492 36.9,0.147133 38,0.204915 2.23906,0.117614 75.55906,0.660492 96.5,0.714508 7.425,0.01915 15.75,0.160891 18.5,0.314976 2.75,0.154084 11.1875,0.129557 18.75,-0.05451 7.5625,-0.184062 13.74749,0.04094 13.74442,0.5 -0.0121,1.807689 -2.11201,8.289298 -2.82919,8.732543 -0.4184,0.258583 -1.32128,0.123703 -2.00642,-0.299732 z"
     style="fill:#7a0403" />
</svg>
