<?xml version="1.0" encoding="UTF-8" standalone="no"?>
<!-- Created with Inkscape (http://www.inkscape.org/) -->

<svg
   xmlns:dc="http://purl.org/dc/elements/1.1/"
   xmlns:cc="http://creativecommons.org/ns#"
   xmlns:rdf="http://www.w3.org/1999/02/22-rdf-syntax-ns#"
   xmlns:svg="http://www.w3.org/2000/svg"
   xmlns="http://www.w3.org/2000/svg"
   xmlns:sodipodi="http://sodipodi.sourceforge.net/DTD/sodipodi-0.dtd"
   xmlns:inkscape="http://www.inkscape.org/namespaces/inkscape"
   version="1.1"
   id="svg4554"
   width="1050"
   height="650"
   viewBox="0 0 1050 650"
   sodipodi:docname="p2.svg"
   inkscape:version="0.92.3 (2405546, 2018-03-11)">
  <metadata
     id="metadata4560">
    <rdf:RDF>
      <cc:Work
         rdf:about="">
        <dc:format>image/svg+xml</dc:format>
        <dc:type
           rdf:resource="http://purl.org/dc/dcmitype/StillImage" />
        <dc:title></dc:title>
      </cc:Work>
    </rdf:RDF>
  </metadata>
  <defs
     id="defs4558" />
  <sodipodi:namedview
     pagecolor="#ffffff"
     bordercolor="#666666"
     borderopacity="1"
     objecttolerance="10"
     gridtolerance="10"
     guidetolerance="10"
     inkscape:pageopacity="0"
     inkscape:pageshadow="2"
     inkscape:window-width="1858"
     inkscape:window-height="1057"
     id="namedview4556"
     showgrid="false"
     inkscape:zoom="0.77310341"
     inkscape:cx="510.59785"
     inkscape:cy="407.96149"
     inkscape:window-x="54"
     inkscape:window-y="-8"
     inkscape:window-maximized="1"
     inkscape:current-layer="svg4554" />
  <path
     inkscape:connector-curvature="0"
     id="path5119"
     d="m 298.5,613.058 c -9.01213,-0.48386 -17.10427,-1.81758 -32.5,-5.35655 -30.52314,-7.01627 -31,-7.18017 -31,-10.65492 0,-2.95641 4.27999,-4.37815 11.44789,-3.80278 5.03934,0.40451 6.55211,0.21983 6.55211,-0.79989 0,-0.7292 -0.39627,-1.57073 -0.8806,-1.87007 -1.78261,-1.10171 -1.84831,-6.03819 -0.18652,-14.01525 1.37245,-6.58814 3.76412,-12.16815 12.26741,-28.62109 5.80942,-11.2406 14.50965,-28.08745 19.33385,-37.43745 10.78971,-20.91204 22.05107,-39.49025 50.94158,-84.03992 20.14096,-31.05772 22.53012,-35.19057 23.9486,-41.42717 2.06958,-9.09921 1.9882,-13.90472 -0.3269,-19.30563 C 355.72777,360.19911 351,357.71628 351,362 c 0,3.50596 -1.85854,2.17429 -5.9315,-4.25 -3.81014,-6.00974 -4.30086,-6.38972 -12.76548,-9.88473 -5.10344,-2.10719 -11.53473,-3.93286 -15.30302,-4.34413 -50.53888,-5.5158 -74.23044,-8.4675 -75.33741,-9.3862 -0.74063,-0.61467 -1.56719,-0.89701 -1.83679,-0.62741 -0.26959,0.2696 -2.69826,0.90269 -5.39704,1.40688 -3.86183,0.72147 -14.13976,-0.12497 -48.25862,-3.97434 -38.48533,-4.34199 -43.71781,-4.73808 -46.61279,-3.52848 -6.27048,2.61997 -11.16889,2.71518 -29.45994,0.57257 C 87.605625,325.34949 85.498027,324.67488 81.001858,318.6711 77.554934,314.06839 77.420546,314 71.823287,314 c -8.391434,0 -11.32306,-4.05084 -8.866209,-12.25108 2.398499,-8.00547 18.292061,-47.55364 25.753373,-64.08247 8.469588,-18.76244 7.678531,-17.96559 19.673379,-19.81723 3.91389,-0.60419 7.79117,-1.3276 8.61617,-1.60757 0.825,-0.27998 3.075,-0.67855 5,-0.88572 1.925,-0.20717 8.9,-1.02472 15.5,-1.81679 20.97594,-2.51731 31.283,-2.95383 33.2539,-1.40835 1.58167,1.24027 1.61686,1.20441 0.37366,-0.38079 -0.75485,-0.9625 -0.97985,-1.76472 -0.5,-1.78272 0.47984,-0.018 4.02244,-0.44877 7.87244,-0.95729 3.85,-0.50851 13.975,-1.64527 22.5,-2.52612 19.02787,-1.96608 23,-2.90485 23,-5.43582 0,-2.34623 11.15977,-17.528 14.00293,-19.04962 3.00703,-1.60931 14.67394,-1.85502 20.19154,-0.42524 5.96312,1.54523 14.15284,6.21991 20.1589,11.50666 4.16582,3.6669 7.68265,4.68163 7.63006,2.20153 C 285.97432,194.85162 281.48177,191.575 276,188 c -5.48177,-3.575 -9.97432,-7.0625 -9.98343,-7.75 -0.0256,-1.93258 2.16471,-1.49086 6.19824,1.25 2.0235,1.375 4.3787,2.5 5.2338,2.5 0.85509,0 3.11458,-2.17121 5.02107,-4.82491 C 286.72961,173.24558 289.3211,172 297.39783,172 c 8.08037,0 11.43756,1.2198 20.45801,7.4332 4.04571,2.78674 8.22508,5.56671 9.28749,6.1777 1.0624,0.611 2.95628,2.0735 4.20861,3.25 2.18144,2.04936 6.3379,3.06431 5.23394,1.27805 -0.60646,-0.98127 -15.78967,-11.46251 -21.6768,-14.96387 C 310.98765,172.84281 309.84777,171 312.32656,171 c 0.7296,0 4.94823,2.43828 9.37472,5.41841 7.10962,4.78653 13.32348,7.55876 16.98133,7.57601 2.00698,0.009 2.30089,-3.07696 1.37711,-14.46159 -0.83569,-10.2991 -0.73574,-11.45649 1.64082,-19 2.4098,-7.64903 2.99666,-8.51062 12.28285,-18.03283 13.93095,-14.28501 19.15858,-20.11709 24.64984,-27.5 5.20647,-7.000011 44.47257,-46.94018 50.5603,-51.428244 2.03144,-1.497643 6.03586,-3.340883 8.89872,-4.09609 6.09727,-1.60843 7.8483,-2.935116 6.1351,-4.648318 -0.80427,-0.804264 -0.97785,-3.477153 -0.55256,-8.508339 0.53381,-6.314935 0.35904,-7.624148 -1.25598,-9.408727 -1.36307,-1.506176 -1.88192,-3.623096 -1.89744,-7.741661 L 440.5,13.5 449.25,13.211067 458,12.922134 V 9.4296823 c 0,-6.5426132 4.95671,-5.0970528 6.55203,1.9108147 l 0.64663,2.840498 15.15067,-0.711845 C 488.6822,13.077636 495.8375,12.560354 496.25,12.319636 496.6625,12.078917 497,10.783524 497,9.440983 497,5.9177572 498.79773,6.4400142 499.78483,10.25 l 0.84202,3.25 36.93657,0.444136 c 35.85772,0.431164 47.07986,0.458692 56.43658,0.13844 2.475,-0.08471 10.44778,0.140539 17.71728,0.500558 l 13.21729,0.654579 1.19323,-2.618857 C 627.55483,9.4868561 628.58007,9.2861964 629.28975,12 c 0.44753,1.711352 1.36639,2.000747 6.36663,2.005174 3.21399,0.0028 10.11862,0.273419 15.34362,0.601276 l 9.5,0.596103 1.70349,-3.101277 c 2.03206,-3.6994528 3.54271,-3.9606895 4.34806,-0.751911 0.57308,2.283342 0.98161,2.368076 14.53721,3.015174 l 13.94756,0.665809 3.68821,-3.688215 3.68822,-3.6882151 0.81892,3.1603391 c 0.97869,3.776851 1.60518,3.951844 16.00282,4.469912 l 10.73449,0.386258 3.68551,-3.375798 c 4.10984,-3.7644722 6.68039,-3.9340712 7.17307,-0.473264 0.41601,2.922149 0.55185,2.956773 13.52971,3.448557 10.23867,0.387985 10.97935,0.283016 13,-1.842356 1.1785,-1.23958 3.82399,-2.942314 5.87886,-3.7838527 l 3.73613,-1.5300711 0.82369,3.1931788 0.82369,3.193179 10.44018,0.566522 c 8.56033,0.464515 10.77082,0.287507 12.27644,-0.983052 2.39154,-2.018158 10.96856,-5.9741427 11.8368,-5.4594931 0.37019,0.2194271 0.96844,1.7437981 1.32946,3.3874911 L 815.15891,15 h 8.7981 c 10.7575,0 11.64495,0.681966 9.62436,7.395892 -0.77748,2.583367 -1.97,5.367447 -2.65003,6.186844 -2.13777,2.575851 -2.27936,11.067738 -0.23145,13.881294 1.70512,2.34261 2.35421,2.479998 12.30011,2.603442 5.775,0.07168 12.975,0.423318 16,0.781425 L 864.5,46.5 864.15861,51 c -0.18776,2.475 -0.53696,4.699206 -0.77601,4.94268 -0.23905,0.243475 -3.91042,-0.619033 -8.15861,-1.916683 -8.64746,-2.641446 -15.22589,-3.670566 -15.22025,-2.381032 0.002,0.470269 0.93673,2.385423 2.07704,4.255898 2.92698,4.801145 4.91663,16.46882 4.93453,28.937105 0.008,5.864118 0.40224,11.272687 0.87516,12.019044 1.51831,2.396215 5.04239,0.207515 7.5369,-4.680944 1.31238,-2.571837 3.80838,-6.026068 5.54668,-7.676068 2.98295,-2.831417 3.62037,-3 11.34325,-3 H 880.5 l 0.3213,-3.5 c 0.17671,-1.925 0.73921,-3.9275 1.25,-4.45 C 882.64429,72.963864 883,76.506749 883,82.8 V 93 h 10.94098 c 6.2153,0 11.20793,-0.431925 11.55902,-1 1.11431,-1.802984 4.5,-1.131104 4.5,0.893011 0,2.632579 -0.98032,2.777726 -14,2.072852 -6.325,-0.34243 -11.9168,-0.26053 -12.42623,0.181999 C 882.16847,96.36862 881.1398,105.40413 881.19981,116 l 0.0538,9.5 0.82973,-6.40653 c 1.02377,-7.9048 2.44821,-9.73571 4.03438,-5.18561 l 1.14398,3.28161 14.61915,-0.29178 c 12.33928,-0.24627 14.56982,-0.0661 14.30282,1.15527 -0.82316,3.76558 -3.03408,4.42923 -16.46452,4.94217 L 886.5,123.5 l 0.21487,10.35521 c 0.12566,6.05571 0.6955,10.93432 1.37244,11.75 1.56493,1.88562 24.16038,2.01295 25.69387,0.14479 0.56434,-0.6875 1.34789,-3.85027 1.74122,-7.02838 0.81013,-6.54595 1.8476,-7.50355 8.60144,-7.93929 L 928.5,130.5 928.64722,142 c 0.3341,26.09788 -7.33536,53.08393 -17.23175,60.63227 -1.84259,1.40541 -6.85236,3.44809 -11.13282,4.53928 -4.28046,1.09119 -8.68265,2.81545 -9.78265,3.83168 -1.1,1.01624 -3.575,1.99374 -5.5,2.17224 l -3.5,0.32453 -1.64064,11.06281 c -1.79511,12.10434 -6.70684,27.93628 -10.37362,33.43719 -1.45239,2.17887 -2.57966,5.76479 -2.98643,9.5 -0.81502,7.4839 -5.16137,21.3355 -7.53072,24 -0.97816,1.1 -2.35163,3.94307 -3.05217,6.31794 -0.70054,2.37487 -2.28151,5.11068 -3.51327,6.07958 -2.79097,2.19538 -24.51451,7.73066 -33.90104,8.63818 -3.84884,0.37212 -8.66841,1.52882 -10.71016,2.57044 -2.81571,1.43647 -5.85116,1.89386 -12.56849,1.89386 -8.03493,0 -24.44069,2.17281 -48.68635,6.44811 -11.49368,2.02672 -28.57224,3.53469 -40.03711,3.53513 -16.12745,6.3e-4 -37.06217,-3.15411 -43.69634,-6.58477 -1.61505,-0.83518 -4.14408,-1.37899 -5.62006,-1.20849 L 654.5,319.5 l -0.60388,13 c -0.33213,7.15 -1.15142,15.8786 -1.82064,19.3969 -1.1663,6.13159 -1.10324,6.64986 1.52055,12.49642 1.50551,3.35475 2.7373,7.23831 2.7373,8.63014 0,2.60212 -18.46661,51.79524 -20.872,55.60083 -0.73848,1.16835 -4.0423,5.25312 -7.34181,9.07726 -5.86534,6.79794 -6.20672,7.01811 -15.30932,9.87418 -9.06504,2.84429 -9.95555,2.92945 -33.81839,3.23418 l -24.50818,0.31297 -6.94492,-4.56144 -6.94492,-4.56144 -20.0469,0.0153 c -11.02579,0.008 -20.58607,0.35807 -21.24507,0.77699 -0.659,0.41893 -2.6303,3.82205 -4.38067,7.56249 -2.81513,6.0158 -3.1243,7.52557 -2.67848,13.07956 0.80537,10.03326 -0.61388,16.55944 -4.3297,19.90938 l -3.15433,2.84374 -12.25352,-0.70676 -12.25351,-0.70676 -3.00941,4.36303 c -4.09004,5.92971 -6.19068,7.66123 -11.88115,9.79338 -4.42956,1.6597 -5.25935,2.51962 -9.34817,9.68757 -4.23309,7.42087 -4.49375,8.31955 -4.60431,15.87413 -0.16244,11.10009 -2.51877,17.95428 -7.97942,23.21091 -2.53866,2.44381 -6.03817,4.65321 -8.36101,5.27868 -2.1972,0.59165 -4.68639,2.06294 -5.53153,3.26954 -2.51968,3.59736 -1.90661,11.52976 1.64452,21.27788 3.08451,8.46724 3.14513,8.94234 1.99605,15.64325 -1.83256,10.68667 -3.39802,13.59548 -8.54122,15.87056 -2.43737,1.07817 -6.61507,2.02237 -9.28377,2.09822 -2.66871,0.0759 -21.50219,0.53557 -41.85219,1.02157 -20.35,0.48601 -38.35,1.03124 -40,1.21162 -1.65,0.18039 -8.4,0.0381 -15,-0.31629 z m 106.46307,-75.46086 c 0.50246,-1.32157 1.39988,-2.70342 1.99426,-3.07077 1.82318,-1.12679 6.09091,-10.37852 5.07666,-11.00537 -1.00873,-0.62342 -1.92472,0.66846 -6.88753,9.71385 -3.47092,6.32623 -3.60858,6.76515 -2.12171,6.76515 0.56361,0 1.43586,-1.08129 1.93832,-2.40286 z M 435.87667,481.75 c 1.14082,-1.7875 3.18433,-4.825 4.54113,-6.75 2.55965,-3.63158 3.39301,-7.43694 1.48972,-6.80251 C 440.40756,468.69748 431.58665,485 432.81608,485 c 0.5425,0 1.91977,-1.4625 3.06059,-3.25 z M 473,475.82238 c 0,-2.60817 8.51078,-20.98636 11.26717,-24.33033 1.62228,-1.96811 4.53823,-4.34645 6.4799,-5.28521 4.47581,-2.16397 4.65755,-3.61962 0.50195,-4.02027 -7.09774,-0.6843 -12.34324,4.43567 -20.64037,20.14648 -3.96769,7.5129 -4.1457,8.39416 -2.44813,12.1199 1.16114,2.54843 4.83948,3.58929 4.83948,1.36943 z m 137.0088,-43.92057 c 1.92983,-0.87901 4.74065,-3.37577 6.24626,-5.54836 2.5699,-3.70837 4.04915,-7.32477 12.21122,-29.85345 1.79337,-4.95 5.15593,-14.175 7.47236,-20.5 3.74314,-10.22065 4.14744,-12.15847 3.63419,-17.419 -0.6551,-6.71438 -0.96823,-7.32767 -2.91599,-5.71117 -1.67321,1.38864 -2.90181,0.15342 -4.34641,-4.36983 -1.77563,-5.55978 -3.99894,-5.97201 -33.81043,-6.26885 l -27,-0.26884 -3.61559,8.26884 c -5.49685,12.57131 -7.22711,20.68073 -6.58146,30.84605 0.46831,7.37307 1.25741,10.2714 5.62092,20.6453 4.19094,9.96364 5.07613,13.11131 5.07613,18.05036 0,3.57364 -0.50328,6.39406 -1.25,7.00505 -0.77208,0.63175 -16.82584,1.30338 -41.98894,1.75665 -41.38028,0.74541 -44.36494,1.06129 -42.25688,4.47221 0.48095,0.77819 17.91305,1.00753 60.33609,0.7938 52.10069,-0.26249 60.1043,-0.50307 63.16853,-1.89876 z m -74.41744,-23.0646 c 1.41393,-1.41393 1.28299,-2.01944 -1.39459,-6.44883 -5.16978,-8.55213 -6.51127,-14.37173 -5.94101,-25.77304 0.3033,-6.06392 1.15444,-11.60443 2.12509,-13.83322 4.75288,-10.91353 -1.74985,-13.03649 -15.67744,-5.11825 -9.85147,5.60084 -10.67154,6.26267 -16.73811,13.50817 -4.96983,5.93562 -9.9653,18.16741 -9.9653,24.40076 0,2.88467 6.03759,12.4518 9.26437,14.68028 0.6796,0.46934 9.23009,0.69387 19.00109,0.49896 14.42793,-0.2878 18.05861,-0.64754 19.3259,-1.91483 z m -26.382,-84.21542 c 2.68473,-3.09341 3.73588,-7.62179 1.7692,-7.62179 -0.56179,0 -1.55216,1.1648 -2.20081,2.58845 -0.68398,1.50117 -2.77523,3.22698 -4.97856,4.10858 -3.76384,1.50598 -4.95925,3.67749 -2.54919,4.63069 2.21419,0.87572 5.18247,-0.50633 7.95936,-3.70593 z m -216.66391,0.92366 C 295.24989,322.84101 295.71228,321 293.68709,321 c -1.72138,0 -6.91496,5.43879 -6.03442,6.31933 1.18217,1.18217 2.3659,0.75301 4.89278,-1.77388 z m 212.88312,-5.11688 c 1.78617,-1.78617 2.04692,-4.01666 0.57585,-4.92584 -1.00863,-0.62337 -6.00442,4.07196 -6.00442,5.64329 0,1.44335 3.76542,0.94571 5.42857,-0.71745 z m 0.27946,-9.05125 c 0.49571,-1.48901 -3.89297,-2.59238 -5.18242,-1.30293 -0.67852,0.67852 -0.52044,1.32231 0.48275,1.966 1.83514,1.17751 4.19789,0.84415 4.69967,-0.66307 z m 173.89844,-17.68613 c -1.04145,-0.65515 -3.74145,-2.87308 -6,-4.92872 -2.25856,-2.05565 -4.38983,-3.74315 -4.73615,-3.75 -0.34632,-0.007 -3.23748,-2.03747 -6.42479,-4.51247 -3.18731,-2.475 -6.39146,-4.5 -7.12032,-4.5 C 654.59634,276 654,275.56583 654,275.03518 c 0,-0.53065 -0.96094,-1.47909 -2.13543,-2.10766 -1.94151,-1.03907 -2.08647,-0.92875 -1.59625,1.21482 0.29655,1.29671 1.34805,6.04404 2.33667,10.54962 l 1.79749,8.19195 6.04876,0.55754 c 3.32682,0.30664 7.39876,0.71534 9.04876,0.90821 1.65,0.19287 5.025,0.39164 7.5,0.4417 3.85662,0.078 4.22927,-0.0793 2.60647,-1.10017 z m 138.93465,-0.75772 c 1.17263,-1.89735 -0.53762,-2.36554 -2.27922,-0.62395 -1.55894,1.55895 -1.56168,1.69048 -0.0352,1.69048 0.9104,0 1.95188,-0.47994 2.31442,-1.06653 z M 644,280.62244 c 0,-1.30765 -0.675,-2.93775 -1.5,-3.62244 -1.27579,-1.05881 -1.5,-0.80309 -1.5,1.71089 0,1.62568 0.3,3.25578 0.66667,3.62244 1.339,1.339 2.33333,0.60992 2.33333,-1.71089 z m 78.90657,-11.17797 c 2.10324,-1.98731 3.98741,-75.26401 1.96816,-76.54306 C 724.11863,192.42248 712.925,191.9808 700,191.9199 c -36.46014,-0.17179 -61.2738,-0.78615 -75.81873,-1.87719 -7.3253,-0.54949 -19.5878,-0.71389 -27.25,-0.36534 L 583,190.3111 v 21.91019 c 0,13.19091 0.41196,22.67994 1.03518,23.84445 0.86862,1.62303 2.13616,1.93426 7.87756,1.93426 5.10858,0 7.18563,0.4136 8.19703,1.63227 1.16231,1.40049 2.81269,1.538 11.62245,0.96844 L 622,239.93688 v 2.92457 c 0,3.61583 1.27329,4.14765 9.83179,4.10645 l 6.66821,-0.0321 -5.44806,-2.71791 c -9.24359,-4.61139 -9.23207,-4.65601 4.71491,-18.25613 C 644.51361,219.3828 650.18917,214 650.3792,214 c 0.34133,0 -4.76307,19.952 -5.78715,22.62071 -0.36161,0.94236 -2.28151,1.37929 -6.06067,1.37929 -6.44357,0 -7.38047,1.68068 -1.46427,2.62672 2.23691,0.3577 4.65898,1.24223 5.38237,1.96562 1.6738,1.6738 1.03275,8.56372 -1.63902,17.61602 -1.08898,3.6896 -1.71965,7.12956 -1.40148,7.64437 0.75404,1.22006 6.35376,1.93874 21.09102,2.70685 6.6,0.344 12.13341,0.75473 12.29647,0.91273 0.16305,0.15801 11.18805,0.0654 24.5,-0.20575 18.20778,-0.37091 24.55197,-0.82228 25.6101,-1.82209 z M 618.44113,222.58059 c -1.90162,-1.39052 -1.89178,-1.47193 0.48318,-4 2.73213,-2.90825 4.85953,-3.30748 5.71703,-1.07287 0.5919,1.54249 -2.05615,6.49228 -3.47326,6.49228 -0.4322,0 -1.65933,-0.63873 -2.72695,-1.41941 z M 596,220.42857 c 0,-0.86428 -0.60736,-2.17879 -1.3497,-2.92112 -0.77139,-0.77139 -1.5996,-4.65399 -1.93294,-9.06151 -0.32078,-4.2415 -1.06342,-8.192 -1.6503,-8.77888 -1.31105,-1.31105 -1.41857,-4.76161 -0.13764,-4.41706 0.51118,0.1375 1.62763,-0.65 2.48099,-1.75 1.33971,-1.72689 1.68864,-1.79517 2.55527,-0.5 0.99253,1.48332 1.49952,29 0.53432,29 -0.275,0 -0.5,-0.70714 -0.5,-1.57143 z m 134.95432,45.12647 c 1.66064,-2.00095 0.91279,-5.96464 -1.20141,-6.36759 -1.90801,-0.36365 -4.22165,4.14866 -3.32511,6.485 0.67234,1.75209 3.02563,1.69105 4.52652,-0.11741 z m 27.49952,-8.48035 c 0.59772,-0.96713 -7.08723,-3.43309 -13.95384,-4.47753 l -4,-0.60842 4,2.18311 c 3.47724,1.89779 8.15929,3.32386 12.19098,3.71315 0.65504,0.0632 1.44833,-0.30139 1.76286,-0.81031 z M 239,255.24567 c 0,-0.96489 1.05855,-4.67739 2.35234,-8.25 1.29379,-3.57262 2.67904,-8.74567 3.07833,-11.49567 0.3993,-2.75 1.77377,-6.80851 3.05439,-9.01892 4.42995,-7.64628 1.89336,-7.42496 86.01494,-7.50475 40.7,-0.0386 95.69356,-0.27496 122.20792,-0.52525 45.9582,-0.43383 48.43775,-0.36448 53.1328,1.48614 l 4.92487,1.9412 2.30396,-2.45245 c 2.78703,-2.96666 2.37549,-3.42085 -6.06955,-6.69869 l -6.5,-2.52289 -116,0.39545 c -63.8,0.21749 -119.6,0.59536 -124,0.83971 -17.4908,0.97134 -23.96506,7.26201 -26.63694,25.88161 C 235.66189,245.69171 236.35658,257 238.07196,257 238.58238,257 239,256.21055 239,255.24567 Z m 492.81037,-11.50399 c 0.28441,-3.4288 0.0963,-3.74168 -2.25,-3.74168 -2.23509,0 -2.56037,0.42349 -2.56037,3.33333 0,3.77998 0.72057,4.86476 2.95124,4.44292 0.99818,-0.18876 1.65909,-1.62303 1.85913,-4.03457 z m 0.77842,-19.23944 C 733.43064,221.14806 732.47654,219 730.14488,219 c -1.39568,0 -2.05251,0.88492 -2.41231,3.25 -0.59788,3.93002 -0.19956,4.75 2.30739,4.75 1.21562,0 2.15232,-0.91794 2.54883,-2.49776 z M 733,201.93045 c 0,-3.64829 -0.23291,-4.03647 -2.25,-3.75 -1.80733,0.25668 -2.31106,1.05733 -2.56037,4.06955 -0.28452,3.43772 -0.0971,3.75 2.25,3.75 C 732.76735,206 733,205.63022 733,201.93045 Z M 242.5,200 c 2.38795,-0.60763 1.7249,-0.78751 -3.25,-0.88169 -3.57888,-0.0677 -6.25,0.30907 -6.25,0.88169 0,1.13685 5.03226,1.13685 9.5,0 z m 12.35066,-0.51999 c 1.59803,-0.46138 2.02404,-1.00531 1.33054,-1.69881 -0.69351,-0.69351 -2.00645,-0.58354 -4.10067,0.34345 -3.27493,1.44962 -4.27372,3.34288 -1.33053,2.52208 0.9625,-0.26842 2.8078,-0.79344 4.10066,-1.16672 z M 265,197.60699 c 0,-0.94863 -2.99338,-1.42672 -3.52699,-0.56332 C 261.14793,197.56965 261.80852,198 262.94098,198 264.07344,198 265,197.82314 265,197.60699 Z M 312,192 c 1.09851,-0.70991 0.36246,-0.97347 -2.75,-0.98469 C 306.9125,191.00689 305,191.45 305,192 c 0,1.27601 5.02551,1.27601 7,0 z m 15.26631,-0.6867 c 2.11863,-1.24826 -0.70946,-1.91716 -4.18432,-0.98966 -4.62864,1.23545 -4.3949,3.11564 0.26321,2.11731 1.73514,-0.37188 3.49964,-0.87932 3.92111,-1.12765 z M 907.5,177.5 c 0,-0.59394 -4.77116,-1.1144 -11.75,-1.28174 -10.73688,-0.25744 -13.01376,0.18465 -11.05243,2.14598 C 885.79606,179.46273 907.5,178.64013 907.5,177.5 Z m -739.05385,30.41287 c -0.36954,-0.59793 -0.2103,-1.54872 0.35385,-2.11287 1.26163,-1.26163 3.2,-0.19612 3.2,1.75902 0,1.68362 -2.57364,1.93987 -3.55385,0.35385 z"
     style="fill:#d2d2d2" />
  <path
     inkscape:connector-curvature="0"
     id="path5117"
     d="m 281.5,608.88219 c -26.67534,-6.3207 -34.5,-8.36568 -34.5,-9.0166 0,-2.06165 5.39153,-1.7169 17.78379,1.13715 7.54392,1.73744 18.66621,4.30235 24.71621,5.6998 6.05,1.39745 11.675,2.92238 12.5,3.38873 2.84755,1.60965 -12.39918,0.7104 -20.5,-1.20908 z m 24.5,-2.44498 c -7.975,-1.89423 -22.26066,-5.28169 -31.7459,-7.52769 -14.58106,-3.45263 -17.55151,-4.47216 -19.22372,-6.59803 -2.80047,-3.56022 -3.46195,-8.47306 -2.1833,-16.21555 0.9386,-5.68344 4.20727,-12.70983 21.46894,-46.15005 21.51319,-41.67648 28.87463,-54.17636 62.00067,-105.27845 20.61971,-31.80914 21.70242,-33.86431 23.82608,-45.22618 1.63099,-8.726 -1.44808,-18.87577 -8.29229,-27.33441 -2.70061,-3.33765 -5.81377,-6.55202 -6.91812,-7.14305 -2.86908,-1.53549 -6.24179,-0.25506 -5.6174,2.1326 0.65521,2.50555 0.1239,2.43058 -7.60246,-1.07272 -7.67691,-3.48088 -4.24971,-2.94071 -51.2125,-8.07168 -28.49233,-3.11296 -37.26724,-4.39332 -38.16221,-5.56831 -1.04054,-1.36609 -1.4803,-1.36136 -4.20034,0.0452 -3.27956,1.69593 -10.67339,2.13096 -11.56968,0.68073 -0.30265,-0.48969 1.11774,-1.20327 3.15643,-1.58573 5.75388,-1.07944 8.21037,-2.74791 16.20621,-11.00744 5.82779,-6.01996 7.1219,-7.87068 6,-8.58065 -1.65945,-1.05014 -64.75057,-1.24584 -89.31528,-0.27703 l -16.70428,0.6588 0.57907,2.63651 c 0.31849,1.45008 -0.0876,4.23203 -0.90237,6.18212 -1.22139,2.92319 -2.47188,3.92462 -7.12348,5.70469 -6.92363,2.64952 -8.13375,2.65484 -30.19466,0.13272 -19.85835,-2.27031 -23.392086,-3.48233 -27.356168,-9.38275 -2.498046,-3.71827 -2.913975,-3.92426 -8.51975,-4.21938 -7.424368,-0.39087 -9.842762,-2.73544 -9.138674,-8.85974 0.569904,-4.95714 19.313663,-52.3621 27.79778,-70.30354 5.973291,-12.63178 6.410286,-13.25578 9.950692,-14.20912 6.47071,-1.74238 12.69406,-2.29782 13.37635,-1.19385 0.35385,0.57253 -2.26234,7.48806 -5.81374,15.36785 C 100.95336,251.06369 83,295.97688 83,298.1303 c 0,1.28679 2.54984,1.44326 18.25,1.11992 26.91772,-0.55436 386.656,-1.98845 447.75,-1.78494 52.14204,0.17369 63.35638,0.7163 85.84957,4.15388 5.9587,0.91066 10.7229,1.20837 11.22955,0.70172 0.50665,-0.50665 -0.41769,-3.34404 -2.17873,-6.68793 -1.6823,-3.19438 -2.82063,-6.04604 -2.52963,-6.33704 0.29099,-0.291 2.7772,0.85419 5.52489,2.54487 4.18313,2.5739 6.67203,3.25302 15.30008,4.17473 15.28753,1.63314 56.69302,2.32171 58.32187,0.96988 0.85595,-0.71037 1.57146,-4.9604 2.03239,-12.07214 C 723.31071,273.17598 725.0301,269 729.102,269 c 1.07626,0 4.2216,-1.7902 6.98965,-3.97821 5.40065,-4.26897 11.72034,-6.53678 15.54264,-5.57744 3.72415,0.9347 2.8183,2.03829 -3.38429,4.12303 l -5.75,1.93262 6.39467,0.30147 c 7.82942,0.36912 9.10533,-0.0712 9.10533,-3.14228 0,-2.02999 0.62031,-2.50276 3.99091,-3.04175 3.42083,-0.54701 4.21574,-1.17236 5.56487,-4.3778 0.86568,-2.0568 1.82602,-4.97714 2.13409,-6.48964 L 770.25,246 h -13.68402 c -7.52621,0 -13.44757,-0.38258 -13.15857,-0.85018 0.28899,-0.4676 4.70305,-1.40656 9.80901,-2.08657 5.10597,-0.68002 11.0579,-1.54409 13.22652,-1.92017 l 3.94293,-0.68377 0.2365,-9.47965 C 770.75244,225.76585 771.14144,217 771.4868,211.5 c 0.65882,-10.49186 0.78746,-18.60418 0.30099,-18.98021 C 771.6295,192.39745 739.1,191.66794 699.5,190.89867 655.504,190.04401 572.1042,189.5 485.07397,189.5 H 342.64795 l -0.75019,-2.79748 c -0.4126,-1.53861 -0.89252,-9.41361 -1.06648,-17.5 -0.44644,-20.75209 0.15929,-22.10406 18.43186,-41.13936 7.68879,-8.00974 16.5125,-17.92303 19.60824,-22.02953 6.43837,-8.540513 31.44679,-34.574283 44.31991,-46.137032 7.08871,-6.367145 9.76234,-8.113732 14.5,-9.472315 7.42121,-2.128128 8.54783,-3.059086 7.80346,-6.4482 -0.56871,-2.589325 -0.38852,-2.732039 4.20554,-3.330875 5.89218,-0.768046 379.06812,1.093629 380.36891,1.897558 0.51194,0.316398 0.9308,2.137833 0.9308,4.047636 0,1.934083 0.55376,3.619511 1.25,3.804514 6.23657,1.657159 7.39155,2.432422 9.60693,6.448464 2.78502,5.048698 5.11774,18.926934 5.15292,30.65662 0.0396,13.2046 -4.92674,92.69045 -6.06064,97 -0.57885,2.2 -1.91579,16.825 -2.971,32.5 l -1.91854,28.5 2.52975,2.25329 c 2.08461,1.85679 2.89716,2.05667 4.61762,1.13591 1.14832,-0.61457 6.8,-1.49455 12.5593,-1.95552 5.75929,-0.46097 10.63539,-1.00207 10.83576,-1.20245 0.31856,-0.31856 1.28439,-10.77001 2.88611,-31.23123 1.13389,-14.48479 6.66879,-96.06271 7.21539,-106.34621 0.464,-8.729495 0.30441,-11.530804 -0.69198,-12.146606 -1.00699,-0.622354 -0.79696,-1.499905 0.94421,-3.945147 1.23159,-1.729616 2.64217,-4.363644 3.13461,-5.853396 0.91117,-2.756466 0.77392,1.644492 -0.85108,27.291359 -0.41818,6.6 -0.75561,17.625 -0.74984,24.5 l 0.0105,12.5 2.5,0.0362 c 2.43707,0.0352 2.49149,0.19634 2.16188,6.39944 -0.18597,3.49981 0.22763,8.38393 0.91909,10.85361 1.1217,4.00632 1.06866,4.62821 -0.49206,5.76943 -1.02904,0.75246 -1.61333,2.2389 -1.41909,3.61023 0.32433,2.28982 0.56288,2.33606 13.46237,2.60933 11.4583,0.24275 13.21313,0.0673 13.76725,-1.37674 1.2476,-3.25118 -1.25876,-4.39813 -9.77188,-4.47175 -4.47016,-0.0386 -8.96586,-0.39986 -9.99045,-0.80268 -1.96861,-0.77397 -2.41265,-0.59479 13.36289,-5.39205 11.383,-3.46151 11,-3.1798 11,-8.0907 v -4.39861 l -4.25,0.34926 c -12.18353,1.00122 -21.82619,1.09081 -22.37189,0.20784 -1.23745,-2.00223 1.41825,-2.67301 12.62189,-3.18806 6.325,-0.29077 15.05491,-0.82562 19.39981,-1.18856 l 7.8998,-0.65988 -0.6695,3.86687 c -0.36822,2.12677 -0.93447,6.79186 -1.25832,10.36686 -0.76569,8.45247 -4.85609,22.10725 -8.62382,28.78848 -3.96149,7.02481 -7.67103,9.64642 -17.16227,12.1289 -4.35287,1.13852 -8.6633,2.74786 -9.57874,3.57633 -0.91544,0.82846 -2.97901,1.51318 -4.5857,1.5216 -1.60669,0.008 -3.47193,0.36517 -4.14497,0.79277 -0.67304,0.4276 -1.93452,5.70821 -2.80329,11.73469 -1.81081,12.56122 -6.55614,28.26591 -10.15817,33.6185 -1.51288,2.24813 -2.87054,6.30081 -3.51754,10.5 -1.2996,8.43476 -5.45208,21.80734 -7.22979,23.28271 -0.72502,0.60171 -1.87648,3.08795 -2.5588,5.52496 -0.68233,2.43702 -2.03333,5.14837 -3.00224,6.02521 -2.39631,2.16863 -25.79518,8.15968 -34.83346,8.91877 -4.02985,0.33844 -8.62878,1.28853 -10.21983,2.1113 -1.78725,0.92422 -8.15938,1.86426 -16.673,2.45966 -7.5791,0.53005 -23.23017,2.55222 -34.78017,4.49372 -27.08557,4.55295 -41.36889,5.61588 -59.59508,4.43492 -15.82333,-1.02526 -27.34026,-3.14124 -33.23091,-6.10544 -2.10429,-1.05889 -5.02929,-1.78617 -6.5,-1.61617 -2.63036,0.30404 -2.67734,0.43969 -2.87777,8.30909 -0.11207,4.4 -0.97691,13.89132 -1.92187,21.09183 -1.60844,12.25614 -1.61139,13.35854 -0.0462,17.27023 0.91953,2.29813 1.67187,4.41574 1.67187,4.7058 0,0.29006 -2.30369,-1.77632 -5.11932,-4.59194 -5.05177,-5.05177 -5.11097,-5.18226 -4.48661,-9.88894 0.348,-2.62329 1.3241,-7.42404 2.16913,-10.66833 C 647.26702,336.87728 648.68677,322 647.60721,322 c -0.37907,0 -1.53898,1.9125 -2.57758,4.25 l -1.88836,4.25 -0.22616,-3.5 c -0.12439,-1.925 -0.14875,-4.45124 -0.0541,-5.61386 0.30811,-3.78591 -2.17688,-4.71073 -11.15295,-4.15074 -7.28927,0.45477 -9.32949,1.05665 -17.51218,5.16624 -15.56938,7.81941 -20.09415,8.46209 -61.19585,8.69196 -30.79533,0.17223 -36.48201,0.44423 -42.90996,2.05247 C 502.05257,335.157 499,335.4473 499,334.20074 c 0,-0.4396 3.7125,-1.76486 8.25,-2.94503 7.65787,-1.99176 10.83139,-2.15214 44.21595,-2.23458 32.4728,-0.0802 36.72446,-0.28249 43.77574,-2.08284 9.08496,-2.3196 35.20708,-14.40314 34.3021,-15.86743 -2.30059,-3.72245 -26.63795,-4.02352 -193.04379,-2.38812 -119.1499,1.17097 -159.64117,1.86462 -161.55822,2.76762 -1.52739,0.71945 -5.05418,1.02446 -8.7525,0.75695 -4.33239,-0.31338 -6.69433,-0.0361 -7.8579,0.92232 -2.9129,2.39943 -9.35422,11.02439 -8.84664,11.84568 0.26878,0.4349 4.20717,1.31439 8.75198,1.95444 4.5448,0.64004 9.7907,1.42994 11.65755,1.75533 l 3.39426,0.59163 -0.51074,-7.13835 C 272.49688,318.21226 272.62458,315 273.06156,315 c 1.00264,0 2.36385,10.50266 1.53502,11.84373 -1.0246,1.65783 2.15649,3.97623 7.97045,5.80892 5.27183,1.6618 5.73969,1.65726 10.92683,-0.1059 4.27169,-1.45199 6.94023,-1.70066 12.60269,-1.17439 l 7.18351,0.66763 -0.66718,-5.67665 c -0.58075,-4.94128 -0.39336,-5.9681 1.44651,-7.92656 l 2.11369,-2.24992 -7.83654,-0.63302 C 304.02644,315.20568 298.925,314.61993 297,314.25216 l -3.5,-0.66866 3.5,-0.37782 c 1.925,-0.2078 9.125,0.11753 16,0.72296 6.875,0.60542 21.05,1.76244 31.5,2.57114 10.45,0.80871 30.475,2.37781 44.5,3.48689 42.60292,3.36898 69.96437,5.50236 84.91511,6.62086 l 9.4151,0.70436 4.8349,4.66022 c 7.56188,7.28868 7.13824,9.06032 -5.26747,22.02789 -13.1826,13.77964 -17.34077,21.58954 -20.4914,38.48698 -2.02428,10.85663 -2.09717,12.31698 -0.77291,15.48636 0.80417,1.92465 2.28801,4.40551 3.29742,5.51301 4.6545,5.10681 6.32199,12.27744 3.91357,16.82939 -0.63562,1.20134 -5.24812,6.51308 -10.25,11.80385 -7.5581,7.99464 -10.55438,12.21766 -17.73777,25 -4.7539,8.45923 -9.88411,17.85541 -11.40047,20.88041 -1.51637,3.025 -3.97691,7.525 -5.46789,10 -3.48678,5.78801 -20.64144,36.4013 -25.48172,45.47332 -2.0463,3.83533 -5.67737,10.42196 -8.06904,14.63695 -3.93369,6.93259 -4.41141,8.50908 -5.00804,16.52668 -0.55993,7.52457 -0.32763,9.95063 1.53826,16.06473 2.96863,9.72751 1.6189,13.60403 -5.94735,17.08125 -2.93713,1.34982 -8.24162,1.65763 -32.0203,1.85808 l -28.5,0.24026 z M 424.45729,383.0691 c 0.73955,-1.1966 -1.14162,-2.38223 -2.4736,-1.55902 C 420.86533,382.20126 421.59952,384 423,384 c 0.48508,0 1.14086,-0.41891 1.45729,-0.9309 z m 228.96333,-69.04848 c -1.65196,-1.65196 -15.77773,-3.21555 -18.77047,-2.07771 C 629.19859,314.01559 631.95173,315 643.2,315 c 7.30945,0 10.85979,-0.34021 10.22062,-0.97938 z m 165.75064,-19.67561 c 3.6229,-3.27867 1.04305,-8.60044 -3.09553,-6.38554 -2.18228,1.16792 -3.69856,5.22376 -2.61086,6.98369 0.96588,1.56283 3.62673,1.28391 5.70639,-0.59815 z M 898.5691,201.8882 c 1.15107,-1.86248 -1.75096,-2.8568 -8.38484,-2.87289 -6.43953,-0.0156 -10.70898,1.32665 -9.65325,3.03486 0.8391,1.35771 17.18962,1.21088 18.03809,-0.16197 z M 395,608.0934 c 0,-2.58782 2.71054,-5.80393 5.47667,-6.49819 1.38783,-0.34832 2.52966,-1.18724 2.53739,-1.86426 0.008,-0.67702 -1.45477,-5.43264 -3.25,-10.56804 l -3.26406,-9.33709 -3.85144,0.61513 -3.85144,0.61513 0.71604,-6.27804 c 0.83244,-7.29853 1.95514,-9.9193 3.9254,-9.16324 0.80544,0.30907 1.90125,-0.38122 2.56044,-1.61293 1.07257,-2.00412 1.00269,-2.07314 -1.00895,-0.99654 -3.24203,1.73508 -3.55672,0.4988 -1.2112,-4.75824 1.1649,-2.6109 2.3828,-5.64709 2.70644,-6.74709 0.32364,-1.1 2.15948,-3.77709 4.07965,-5.9491 3.45977,-3.91351 3.52903,-3.939 7.68682,-2.82922 2.30758,0.61593 4.54613,0.90323 4.97456,0.63845 1.71747,-1.06146 4.54421,-9.18919 5.06628,-14.56708 0.48776,-5.02452 0.32402,-5.77996 -1.3693,-6.31739 -1.05781,-0.33574 -1.91846,-1.14261 -1.91254,-1.79305 0.006,-0.65043 2.48092,-5.64163 5.5,-11.09154 C 423.52984,504.14116 426,498.8436 426,497.81873 426,495.33698 433.76795,487 436.08031,487 c 1.00407,0 2.98022,0.52609 4.39144,1.16908 2.27555,1.03681 2.90123,0.84776 5.53017,-1.67092 2.86157,-2.74156 2.95389,-3.1141 2.66333,-10.7475 -0.20987,-5.51349 -0.73457,-8.18139 -1.73312,-8.81215 -2.30162,-1.45387 5.31742,-14.74684 12.56787,-21.92722 5.59994,-5.54582 6.49758,-6.04641 13.46271,-7.50765 5.33131,-1.11847 15.64678,-1.70857 36.11771,-2.06611 l 28.655,-0.50048 4.30013,3.59265 c 4.02698,3.36444 4.11478,3.54113 1.38229,2.78148 -1.60481,-0.44615 -5.39284,-0.78593 -8.41784,-0.75506 -46.78484,0.47737 -47.33812,0.50532 -54.44338,2.75017 -5.76517,1.82146 -7.82843,3.11384 -12.15903,7.61614 -2.8686,2.98234 -6.93045,8.66699 -9.02634,12.63257 l -3.81071,7.21013 1.5541,6.49531 c 1.44334,6.03235 1.42976,6.73565 -0.19048,9.86743 -2.53972,4.90905 -6.7393,8.48618 -12.42416,10.5827 -4.66457,1.72025 -5.3224,2.41236 -9.80572,10.31669 -4.41229,7.7791 -4.76251,8.88208 -4.27784,13.47274 0.58029,5.4965 -2.13016,17.88794 -4.80603,21.97184 -2.18633,3.33675 -7.4016,7.05342 -11.9378,8.50749 -8.35591,2.67846 -9.6109,11.37583 -3.78342,26.21974 2.70329,6.88589 2.92935,8.2716 2.14031,13.11967 -2.24795,13.81193 -3.74648,15.94151 -12.34845,17.54853 C 395.64581,609.62114 395,609.51437 395,608.0934 Z M 237.47616,597.96143 c -1.00797,-1.63093 1.23102,-3.65425 2.56622,-2.31905 0.72318,0.72318 0.59733,1.41175 -0.41097,2.24856 -1.07422,0.89152 -1.63646,0.90991 -2.15525,0.0705 z M 474.12188,484.15606 c -2.06829,-1.39944 -0.50719,-2.99656 3.6632,-3.74772 5.66778,-1.02086 6.49119,-2.08312 5.69817,-7.35104 -1.09396,-7.26707 -0.65474,-15.82499 0.97382,-18.97427 1.84481,-3.56749 6.16198,-7.08303 8.69811,-7.08303 1.79297,0 1.77598,0.2085 -0.34628,4.25 -1.93179,3.67878 -2.23693,5.82619 -2.27032,15.97722 -0.0373,11.34107 -0.1262,11.81485 -2.69954,14.38824 -1.95885,1.95888 -3.93779,2.76815 -7.5,3.06703 -2.66147,0.22331 -5.45919,-0.0136 -6.21716,-0.52643 z m 82.18957,-35.2222 c -4.20435,-1.47481 2.27058,-2.23977 22.07075,-2.60749 18.86825,-0.35042 22.07652,-0.66267 30.1178,-2.93131 10.36824,-2.92512 10.29078,-2.87562 17.38369,-11.10879 4.94186,-5.73632 6.06901,-8.10658 14.67047,-30.85025 5.12452,-13.55008 10.02123,-25.41434 10.88158,-26.36501 0.86034,-0.95067 1.56426,-2.34556 1.56426,-3.09975 0,-0.98197 0.30663,-1.06463 1.08011,-0.29115 1.44971,1.44971 0.79341,3.53904 -9.45827,30.11003 -10.22535,26.50277 -9.63251,25.30813 -16.8692,33.99321 l -5.74736,6.89767 -10.25264,3.09341 c -9.88292,2.98185 -11.03714,3.10521 -32.00757,3.42084 -11.96521,0.1801 -22.51034,0.0625 -23.43362,-0.26141 z m -72.9082,-20.78013 c -3.33837,-2.41616 -11.7365,-13.92036 -14.39196,-19.71488 -2.9278,-6.38881 -3.14432,-7.57301 -2.7314,-14.93885 0.35765,-6.37999 1.19479,-9.72126 4.13397,-16.5 3.26367,-7.5271 4.83756,-9.65974 13.75074,-18.63239 8.96798,-9.02781 11.1156,-10.6285 19.70032,-14.68333 l 9.63508,-4.55096 53.20219,-0.35218 c 29.2612,-0.1937 52.96216,-0.1112 52.66878,0.18334 -0.29337,0.29453 -11.37755,0.76052 -24.6315,1.03552 l -24.0981,0.5 -0.67189,2.5 c -0.36954,1.375 -1.80256,4.975 -3.18449,8 -5.44634,11.92189 -7.61322,24.46793 -5.95865,34.5 0.54427,3.3 3.0756,10.87928 5.62519,16.84284 4.19802,9.81929 4.6079,11.47126 4.34204,17.5 L 570.5,426.5 l -7,0.64552 c -10.00041,0.92222 -79.01527,1.79093 -80.09675,1.00821 z M 534.75,410.4173 c 3.0913,-0.62568 2.85456,-2.7231 -1.23221,-10.9173 -5.80367,-11.63666 -6.63663,-26.09981 -2.125,-36.89766 2.20626,-5.28031 2.03869,-8.30105 -0.53695,-9.67949 -3.58648,-1.91943 -8.92814,-0.41523 -18.14963,5.11088 -9.48131,5.68182 -16.4848,12.60055 -20.16522,19.92117 C 489.88151,383.2448 487,392.74502 487,396.2233 c 0,3.14876 7.28706,12.93563 10.77977,14.47775 2.58604,1.1418 31.00462,0.92368 36.97023,-0.28375 z M 221.8125,332.31689 c 0.72187,-0.28887 1.58437,-0.25335 1.91667,0.0789 0.33229,0.33229 -0.25834,0.56864 -1.3125,0.52522 -1.16495,-0.048 -1.4019,-0.28494 -0.60417,-0.60416 z m -9.0625,-0.97917 c 0.6875,-0.27741 1.8125,-0.27741 2.5,0 0.6875,0.27741 0.125,0.50439 -1.25,0.50439 -1.375,0 -1.9375,-0.22698 -1.25,-0.50439 z m -52.9375,-6.02083 c 0.72187,-0.28887 1.58437,-0.25335 1.91667,0.0789 0.33229,0.33229 -0.25834,0.56864 -1.3125,0.52522 -1.16495,-0.048 -1.4019,-0.28494 -0.60417,-0.60416 z m -9.0625,-0.97917 c 0.6875,-0.27741 1.8125,-0.27741 2.5,0 0.6875,0.27741 0.125,0.50439 -1.25,0.50439 -1.375,0 -1.9375,-0.22698 -1.25,-0.50439 z M 280.5,321 c -1.45433,-4.58219 2.43827,-8.73428 7.09314,-7.56598 2.99283,0.75115 3.33381,5.41713 0.57812,7.91099 -2.58718,2.34137 -6.87991,2.14831 -7.67126,-0.34501 z m -24,-43.82141 c -5.17168,-0.71907 -11.90366,-4.18217 -12.83188,-6.60106 -0.89417,-2.33017 0.42058,-2.57628 4.2089,-0.78788 3.37247,1.59209 12.54265,1.68579 132.62298,1.35513 143.04978,-0.3939 132.68616,0.12513 136.75935,-6.84914 1.78154,-3.05042 2.09543,-5.11235 3.31804,-21.79564 0.32244,-4.4 0.84566,-8.675 1.16271,-9.5 0.62891,-1.63648 2.98623,10.83025 3.9049,20.65108 0.9471,10.12477 -2.69285,17.29204 -10.91119,21.48472 -3.97135,2.02603 -5.35748,2.05182 -128.62421,2.39304 -68.53528,0.18972 -126.8596,0.0321 -129.6096,-0.35025 z m -10.32332,-88.73141 c 0.45227,-2.17211 2.22702,-2.30502 2.63295,-0.19718 0.2108,1.0946 -0.27967,1.75 -1.30963,1.75 -0.96073,0 -1.51197,-0.64684 -1.32332,-1.55282 z M 888.24855,119.75 c 0.29804,-0.89723 4.17306,-1.32903 13.73072,-1.53005 11.85796,-0.2494 13.1765,-0.11257 12.04567,1.25 -1.68959,2.03583 -26.44897,2.30483 -25.77639,0.28005 z M 592,26.755837 c -81.675,-0.49592 -148.83123,-1.222591 -149.23607,-1.614824 -0.40484,-0.392233 -0.85484,-2.94692 -1,-5.677082 L 441.5,14.5 449.99012,14 c 7.51497,-0.442571 8.5267,-0.729715 8.80855,-2.5 0.17514,-1.1 0.52241,-2.6131808 0.77171,-3.3626241 0.70241,-2.1115298 3.07469,0.3379515 3.7897,3.9130431 l 0.60112,3.005566 18.2694,-0.097 c 10.04817,-0.05335 21.8694,-0.02598 26.2694,0.06083 4.4,0.08681 11.6,0.109297 16,0.04998 4.4,-0.05932 34.55,0.154591 67,0.475355 32.45,0.320765 63.275,0.452408 68.5,0.29254 5.225,-0.159867 12.875,-0.243004 17,-0.184749 4.125,0.05826 38.1,0.352715 75.5,0.654353 37.4,0.301639 70.86258,0.580898 74.36129,0.620575 L 833.22258,17 l -0.70005,3.73159 c -0.38503,2.052375 -1.12594,4.527375 -1.64647,5.5 -1.09754,2.050758 8.91268,2.028789 -238.87606,0.524247 z"
     style="fill:#d4a5a4" />
  <path
     inkscape:connector-curvature="0"
     id="path5115"
     d="m 281.5,608.88219 c -26.67534,-6.3207 -34.5,-8.36568 -34.5,-9.0166 0,-2.06165 5.39153,-1.7169 17.78379,1.13715 7.54392,1.73744 18.66621,4.30235 24.71621,5.6998 6.05,1.39745 11.675,2.92238 12.5,3.38873 2.84755,1.60965 -12.39918,0.7104 -20.5,-1.20908 z M 395,608.0934 c 0,-2.58782 2.71054,-5.80393 5.47667,-6.49819 1.38783,-0.34832 2.52966,-1.18724 2.53739,-1.86426 0.008,-0.67702 -1.45477,-5.43264 -3.25,-10.56804 l -3.26406,-9.33709 -3.85144,0.61513 -3.85144,0.61513 0.71604,-6.27804 c 0.83244,-7.29853 1.95514,-9.9193 3.9254,-9.16324 0.80544,0.30907 1.90125,-0.38122 2.56044,-1.61293 1.07257,-2.00412 1.00269,-2.07314 -1.00895,-0.99654 -3.24203,1.73508 -3.55672,0.4988 -1.2112,-4.75824 1.1649,-2.6109 2.3828,-5.64709 2.70644,-6.74709 0.32364,-1.1 2.15948,-3.77709 4.07965,-5.9491 3.45977,-3.91351 3.52903,-3.939 7.68682,-2.82922 2.30758,0.61593 4.54613,0.90323 4.97456,0.63845 1.71747,-1.06146 4.54421,-9.18919 5.06628,-14.56708 0.48776,-5.02452 0.32402,-5.77996 -1.3693,-6.31739 -1.05781,-0.33574 -1.91846,-1.14261 -1.91254,-1.79305 0.006,-0.65043 2.48092,-5.64163 5.5,-11.09154 C 423.52984,504.14116 426,498.8436 426,497.81873 426,495.33698 433.76795,487 436.08031,487 c 1.00407,0 2.98022,0.52609 4.39144,1.16908 2.27555,1.03681 2.90123,0.84776 5.53017,-1.67092 2.86157,-2.74156 2.95389,-3.1141 2.66333,-10.7475 -0.20987,-5.51349 -0.73457,-8.18139 -1.73312,-8.81215 -2.30162,-1.45387 5.31742,-14.74684 12.56787,-21.92722 5.59994,-5.54582 6.49758,-6.04641 13.46271,-7.50765 5.33131,-1.11847 15.64678,-1.70857 36.11771,-2.06611 l 28.655,-0.50048 4.30013,3.59265 c 4.02698,3.36444 4.11478,3.54113 1.38229,2.78148 -1.60481,-0.44615 -5.39284,-0.78593 -8.41784,-0.75506 -46.78484,0.47737 -47.33812,0.50532 -54.44338,2.75017 -5.76517,1.82146 -7.82843,3.11384 -12.15903,7.61614 -2.8686,2.98234 -6.93045,8.66699 -9.02634,12.63257 l -3.81071,7.21013 1.5541,6.49531 c 1.44334,6.03235 1.42976,6.73565 -0.19048,9.86743 -2.53972,4.90905 -6.7393,8.48618 -12.42416,10.5827 -4.66457,1.72025 -5.3224,2.41236 -9.80572,10.31669 -4.41229,7.7791 -4.76251,8.88208 -4.27784,13.47274 0.58029,5.4965 -2.13016,17.88794 -4.80603,21.97184 -2.18633,3.33675 -7.4016,7.05342 -11.9378,8.50749 -8.35591,2.67846 -9.6109,11.37583 -3.78342,26.21974 2.70329,6.88589 2.92935,8.2716 2.14031,13.11967 -2.24795,13.81193 -3.74648,15.94151 -12.34845,17.54853 C 395.64581,609.62114 395,609.51437 395,608.0934 Z m -88,-2.68719 c -7.975,-1.90593 -20.43394,-4.79641 -27.68652,-6.42328 -7.25259,-1.62688 -15.54774,-3.75108 -18.43367,-4.72044 -4.75796,-1.59817 -5.37705,-2.15696 -6.64053,-5.99364 -1.20868,-3.6703 -1.18782,-5.22517 0.15742,-11.73006 1.27778,-6.17868 4.83748,-13.88442 20.21921,-43.76885 C 284.88354,512.82147 294.86813,493.8 296.8039,490.5 c 7.82008,-13.33129 20.42544,-33.34552 40.69833,-64.61901 16.75895,-25.8528 21.58732,-34.04329 22.49016,-38.1507 3.53709,-16.09163 1.53462,-25.57117 -7.82005,-37.01938 -5.70804,-6.98548 -6.36184,-7.45113 -15.79418,-11.24902 -5.4118,-2.17904 -10.29831,-4.07596 -10.8589,-4.21537 -1.58634,-0.3945 8.51038,4.52756 12.97073,6.32312 3.71404,1.49513 3.86098,1.70056 2.12458,2.97024 -1.08038,0.78999 -1.61542,2.01551 -1.27138,2.91208 0.82573,2.1518 -0.12918,1.97307 -7.63069,-1.42828 -7.67691,-3.48088 -4.24971,-2.94071 -51.2125,-8.07168 -28.49233,-3.11296 -37.26724,-4.39332 -38.16221,-5.56831 -1.04054,-1.36609 -1.4803,-1.36136 -4.20034,0.0452 -3.27956,1.69593 -10.67339,2.13096 -11.56968,0.68073 -0.30265,-0.48969 1.11774,-1.20327 3.15643,-1.58573 5.75388,-1.07944 8.21037,-2.74791 16.20621,-11.00744 5.82779,-6.01996 7.1219,-7.87068 6,-8.58065 -1.65707,-1.04864 -64.26086,-1.23961 -89.72493,-0.27369 l -17.29451,0.65602 0.60794,2.76793 c 0.81958,3.73153 -1.76572,8.47306 -5.74065,10.52858 -4.9743,2.5723 -13.85903,2.72029 -32.06158,0.53402 -19.126923,-2.29729 -23.117845,-3.73987 -26.001686,-9.39869 -2.10065,-4.122 -2.015906,-4.08765 -9.348854,-3.78922 -4.359426,0.17742 -5.377651,-0.13913 -6.75,-2.09843 C 64.727263,309.5933 64,307.62286 64,306.48359 c 0,-4.33692 30.542748,-78.72296 34.128425,-83.11885 1.09397,-1.34117 13.860445,-4.7092 14.693285,-3.87636 0.31524,0.31523 -0.19069,1.86624 -1.12428,3.44668 -0.93359,1.58044 -1.69743,3.34942 -1.69743,3.93108 0,0.58165 -1.58345,4.39352 -3.51879,8.47082 -3.82485,8.05809 -20.154035,48.02688 -24.061154,58.89426 -3.012854,8.38005 -3.19277,10.94461 -0.537794,7.66585 1.821599,-2.24958 2.458113,-2.3356 19.749998,-2.669 27.83414,-0.53667 388.64563,-1.9584 447.36774,-1.76279 52.14204,0.17369 63.35638,0.7163 85.84957,4.15388 5.9587,0.91066 10.7229,1.20837 11.22955,0.70172 0.50665,-0.50665 -0.41769,-3.34404 -2.17873,-6.68793 -1.6823,-3.19438 -2.82063,-6.04604 -2.52963,-6.33704 0.29099,-0.291 2.7772,0.85419 5.52489,2.54487 4.18313,2.5739 6.67203,3.25302 15.30008,4.17473 15.28753,1.63314 56.69302,2.32171 58.32187,0.96988 0.85595,-0.71037 1.57146,-4.9604 2.03239,-12.07214 C 723.31071,273.17598 725.0301,269 729.102,269 c 1.07626,0 4.2216,-1.7902 6.98965,-3.97821 5.40065,-4.26897 11.72034,-6.53678 15.54264,-5.57744 3.72415,0.9347 2.8183,2.03829 -3.38429,4.12303 l -5.75,1.93262 6.39467,0.30147 c 7.82942,0.36912 9.10533,-0.0712 9.10533,-3.14228 0,-2.02999 0.62031,-2.50276 3.99091,-3.04175 3.42083,-0.54701 4.21574,-1.17236 5.56487,-4.3778 0.86568,-2.0568 1.82602,-4.97714 2.13409,-6.48964 L 770.25,246 h -13.68402 c -7.52621,0 -13.44757,-0.38258 -13.15857,-0.85018 0.28899,-0.4676 4.70305,-1.40656 9.80901,-2.08657 5.10597,-0.68002 11.0579,-1.54409 13.22652,-1.92017 l 3.94293,-0.68377 0.31959,-9.97965 c 0.17578,-5.48881 0.28672,-12.58967 0.24655,-15.77969 -0.0402,-3.19002 0.38195,-8.14002 0.93804,-11 0.55609,-2.85998 0.69582,-6.8477 0.31051,-8.8616 L 771.5,191.17674 730,190.58861 c -22.825,-0.32348 -57.475,-1.09992 -77,-1.72544 -24.14695,-0.77359 -79.24938,-0.9495 -172.30051,-0.55007 -105.96191,0.45486 -136.88753,0.31669 -137.18656,-0.61293 -0.21233,-0.66009 -0.84803,-7.57 -1.41266,-15.35534 -1.00376,-13.83998 -0.97045,-14.32223 1.49577,-21.65734 2.1845,-6.49723 3.35166,-8.29286 8.71317,-13.40491 7.24544,-6.90833 24.15337,-25.89728 26.68243,-29.9665 2.56451,-4.12628 30.83759,-33.15209 42.95706,-44.100738 10.91138,-9.857269 11.84573,-10.463703 18.84575,-12.231712 3.08264,-0.778588 4.63132,-1.823997 5.48824,-3.704731 0.93636,-2.055082 0.92678,-2.709077 -0.0444,-3.032819 C 444.48247,43.660824 444.69704,41 446.5,41 c 0.825,0 1.5,0.438862 1.5,0.975249 0,0.632778 0.90393,0.631576 2.57411,-0.0034 1.41576,-0.538272 6.25326,-0.771859 10.75,-0.519083 4.49674,0.252775 88.95089,0.751163 187.67589,1.107529 98.725,0.356365 179.8375,0.852648 180.25,1.102851 0.4125,0.250202 0.75,2.201873 0.75,4.337047 0,3.768378 0.12447,3.906748 4.24769,4.722152 5.76744,1.140566 8.27048,5.755506 10.25199,18.901969 2.38604,15.830312 2.48573,13.599883 -6.49722,145.375706 l -1.94279,28.5 2.52975,2.25329 c 2.08461,1.85679 2.89716,2.05667 4.61762,1.13591 1.14832,-0.61457 6.8,-1.49455 12.5593,-1.95552 5.75929,-0.46097 10.63539,-1.00207 10.83576,-1.20245 0.31856,-0.31856 1.28439,-10.77001 2.88611,-31.23123 1.13389,-14.48479 6.66879,-96.06271 7.21539,-106.34621 0.464,-8.72949 0.30441,-11.530799 -0.69198,-12.146601 -1.00699,-0.622354 -0.79696,-1.499905 0.94421,-3.945147 1.23159,-1.729616 2.64217,-4.363644 3.13461,-5.853396 0.91117,-2.756466 0.77392,1.644492 -0.85108,27.291354 -0.41818,6.6 -0.75561,17.625 -0.74984,24.5 l 0.0105,12.5 2.5,0.0362 c 2.43707,0.0352 2.49149,0.19634 2.16188,6.39944 -0.18597,3.49981 0.22763,8.38393 0.91909,10.85361 1.1217,4.00632 1.06866,4.62821 -0.49206,5.76943 -1.02904,0.75246 -1.61333,2.2389 -1.41909,3.61023 0.32433,2.28982 0.56288,2.33606 13.46237,2.60933 11.4583,0.24275 13.21313,0.0673 13.76725,-1.37674 1.2476,-3.25118 -1.25876,-4.39813 -9.77188,-4.47175 -4.47016,-0.0386 -8.96586,-0.39986 -9.99045,-0.80268 -1.96861,-0.77397 -2.41265,-0.59479 13.36289,-5.39205 11.383,-3.46151 11,-3.1798 11,-8.0907 v -4.39861 l -4.25,0.34926 c -12.18353,1.00122 -21.82619,1.09081 -22.37189,0.20784 -1.23745,-2.00223 1.41825,-2.67301 12.62189,-3.18806 6.325,-0.29077 15.05491,-0.82562 19.39981,-1.18856 l 7.8998,-0.65988 -0.6695,3.86687 c -0.36822,2.12677 -0.93447,6.79186 -1.25832,10.36686 -0.76569,8.45247 -4.85609,22.10725 -8.62382,28.78848 -3.96149,7.02481 -7.67103,9.64642 -17.16227,12.1289 -4.35287,1.13852 -8.6633,2.74786 -9.57874,3.57633 -0.91544,0.82846 -2.97901,1.51318 -4.5857,1.5216 -1.60669,0.008 -3.47193,0.36517 -4.14497,0.79277 -0.67304,0.4276 -1.93452,5.70821 -2.80329,11.73469 -1.81081,12.56122 -6.55614,28.26591 -10.15817,33.6185 -1.51288,2.24813 -2.87054,6.30081 -3.51754,10.5 -1.2996,8.43476 -5.45208,21.80734 -7.22979,23.28271 -0.72502,0.60171 -1.87648,3.08795 -2.5588,5.52496 -0.68233,2.43702 -2.03333,5.14837 -3.00224,6.02521 -2.39631,2.16863 -25.79518,8.15968 -34.83346,8.91877 -4.02985,0.33844 -8.62878,1.28853 -10.21983,2.1113 -1.78725,0.92422 -8.15938,1.86426 -16.673,2.45966 -7.5791,0.53005 -23.23017,2.55222 -34.78017,4.49372 -27.08557,4.55295 -41.36889,5.61588 -59.59508,4.43492 -15.82333,-1.02526 -27.34026,-3.14124 -33.23091,-6.10544 -2.10429,-1.05889 -5.02929,-1.78617 -6.5,-1.61617 -2.63036,0.30404 -2.67734,0.43969 -2.87777,8.30909 -0.11207,4.4 -0.97691,13.89132 -1.92187,21.09183 -1.60844,12.25614 -1.61139,13.35854 -0.0462,17.27023 0.91953,2.29813 1.67187,4.41575 1.67187,4.7058 0,0.29006 -2.30369,-1.77632 -5.11932,-4.59194 -5.05177,-5.05177 -5.11097,-5.18226 -4.48661,-9.88894 0.348,-2.62329 1.3241,-7.42404 2.16913,-10.66833 C 647.26702,336.87728 648.68677,322 647.60721,322 c -0.37907,0 -1.53898,1.9125 -2.57758,4.25 l -1.88836,4.25 -0.22616,-3.5 c -0.12439,-1.925 -0.14875,-4.45124 -0.0541,-5.61386 0.30811,-3.78591 -2.17688,-4.71073 -11.15295,-4.15074 -7.28927,0.45477 -9.32949,1.05665 -17.51218,5.16624 -15.56938,7.81941 -20.09415,8.46209 -61.19585,8.69196 -30.79533,0.17223 -36.48201,0.44423 -42.90996,2.05247 C 502.05257,335.157 499,335.4473 499,334.20074 c 0,-0.4396 3.7125,-1.76486 8.25,-2.94503 7.65787,-1.99176 10.83139,-2.15214 44.21595,-2.23458 32.4728,-0.0802 36.72446,-0.28249 43.77574,-2.08284 9.08496,-2.3196 35.20708,-14.40314 34.3021,-15.86743 -2.30059,-3.72245 -26.63795,-4.02352 -193.04379,-2.38812 -119.1499,1.17097 -159.64117,1.86462 -161.55822,2.76762 -1.52739,0.71945 -5.05418,1.02446 -8.7525,0.75695 -4.33239,-0.31338 -6.69433,-0.0361 -7.8579,0.92232 -2.9129,2.39943 -9.35422,11.02439 -8.84664,11.84568 0.26878,0.4349 4.20717,1.31439 8.75198,1.95444 4.5448,0.64004 9.7907,1.42994 11.65755,1.75533 l 3.39426,0.59163 -0.51074,-7.13835 C 272.49688,318.21226 272.62458,315 273.06156,315 c 1.00264,0 2.36385,10.50266 1.53502,11.84373 -1.0246,1.65783 2.15649,3.97623 7.97045,5.80892 5.24833,1.65439 5.75462,1.65219 10.75279,-0.0467 4.04057,-1.37343 7.14727,-1.66274 13.52776,-1.25975 l 8.28262,0.52313 -0.63976,-3.18465 c -0.35186,-1.75155 -0.85418,-3.94912 -1.11625,-4.88349 -0.79311,-2.82766 3.02054,-5.76025 6.82172,-5.24571 2.75185,0.3725 25.65783,2.21407 61.30409,4.92866 3.85,0.29319 15.325,1.20798 25.5,2.03287 35.1704,2.85128 58.53701,4.68091 68.07942,5.33071 8.40731,0.5725 10.02854,0.99503 13.25,3.45321 6.23982,4.76139 5.45129,7.18713 -6.24371,19.20758 -12.85308,13.21075 -17.95651,22.74672 -20.59979,38.49153 -2.19912,13.09916 -2.13516,15.63058 0.48441,19.17374 6.00421,8.12113 7.02967,10.21903 7.02967,14.38138 0,4.0512 -0.52546,4.82638 -9.99387,14.74347 l -9.99386,10.46744 -31.93113,57.41706 -31.93112,57.41706 -0.65271,9.44993 c -0.55941,8.09905 -0.35571,10.29426 1.42498,15.35647 2.64526,7.52 2.6138,9.8885 -0.17229,12.97252 -4.42763,4.90109 -9.39549,5.62687 -38.03495,5.5567 L 321.5,608.87155 Z M 331.81311,586.25 C 331.4065,584.11662 327,583.21372 327,585.26378 c 0,1.91278 0.97505,2.73622 3.23999,2.73622 1.27626,0 1.79638,-0.5786 1.57312,-1.75 z M 425.8323,383.6323 c 0.48724,-2.53004 -1.20602,-3.96585 -3.73164,-3.16425 -2.35806,0.74842 -2.71216,2.52045 -0.87147,4.36114 1.68561,1.68561 4.17252,1.03897 4.60311,-1.19689 z m 227.58832,-69.61168 c -1.65196,-1.65196 -15.77773,-3.21555 -18.77047,-2.07771 C 629.19859,314.01559 631.95173,315 643.2,315 c 7.30945,0 10.85979,-0.34021 10.22062,-0.97938 z m 165.75064,-19.67561 c 3.6229,-3.27867 1.04305,-8.60044 -3.09553,-6.38554 -2.18228,1.16792 -3.69856,5.22376 -2.61086,6.98369 0.96588,1.56283 3.62673,1.28391 5.70639,-0.59815 z M 898.5691,201.8882 c 1.15107,-1.86248 -1.75096,-2.8568 -8.38484,-2.87289 -6.43953,-0.0156 -10.70898,1.32665 -9.65325,3.03486 0.8391,1.35771 17.18962,1.21088 18.03809,-0.16197 z M 395,161.58179 C 395,159.41332 393.8902,157 392.89301,157 c -1.03336,0 -1.21764,4.34204 -0.22634,5.33333 1.1283,1.12831 2.33333,0.74018 2.33333,-0.75154 z M 237.47616,597.96143 c -1.00797,-1.63093 1.23102,-3.65425 2.56622,-2.31905 0.72318,0.72318 0.59733,1.41175 -0.41097,2.24856 -1.07422,0.89152 -1.63646,0.90991 -2.15525,0.0705 z M 474.12188,484.15606 c -2.06829,-1.39944 -0.50719,-2.99656 3.6632,-3.74772 5.66778,-1.02086 6.49119,-2.08312 5.69817,-7.35104 -1.09396,-7.26707 -0.65474,-15.82499 0.97382,-18.97427 1.84481,-3.56749 6.16198,-7.08303 8.69811,-7.08303 1.79297,0 1.77598,0.2085 -0.34628,4.25 -1.93179,3.67878 -2.23693,5.82619 -2.27032,15.97722 -0.0373,11.34107 -0.1262,11.81485 -2.69954,14.38824 -1.95885,1.95888 -3.93779,2.76815 -7.5,3.06703 -2.66147,0.22331 -5.45919,-0.0136 -6.21716,-0.52643 z m 82.18957,-35.2222 c -4.20435,-1.47481 2.27058,-2.23977 22.07075,-2.60749 18.86825,-0.35042 22.07652,-0.66267 30.1178,-2.93131 10.36824,-2.92512 10.29078,-2.87562 17.38369,-11.10879 4.94186,-5.73632 6.06901,-8.10658 14.67047,-30.85025 5.12452,-13.55008 10.02123,-25.41434 10.88158,-26.36501 0.86034,-0.95067 1.56426,-2.34556 1.56426,-3.09975 0,-0.98197 0.30663,-1.06463 1.08011,-0.29115 1.44971,1.44971 0.79341,3.53904 -9.45827,30.11003 -10.22535,26.50277 -9.63251,25.30813 -16.8692,33.99321 l -5.74736,6.89767 -10.25264,3.09341 c -9.88292,2.98185 -11.03714,3.10521 -32.00757,3.42084 -11.96521,0.1801 -22.51034,0.0625 -23.43362,-0.26141 z m -72.83784,-20.73665 c -3.37094,-2.41397 -11.7652,-13.88421 -14.37802,-19.64667 -2.52364,-5.56575 -3.07717,-8.04877 -2.99591,-13.43886 0.0835,-5.53694 1.47866,-13.78047 1.80064,-10.63917 0.0548,0.53487 0.71576,0.0849 1.46874,-1 1.89624,-2.73206 6.58508,-14.5622 5.5078,-13.8964 -1.8388,1.13644 -0.77397,-1.35392 1.35591,-3.17112 2.21047,-1.88597 2.21796,-1.88502 0.75,0.095 -1.37102,1.84927 -1.35171,1.89725 0.25622,0.63669 0.95644,-0.74982 1.53494,-1.69345 1.28556,-2.09697 -0.24939,-0.40352 0.95016,-2.04003 2.66567,-3.6367 1.71551,-1.59666 2.73812,-2.22802 2.27248,-1.40302 -0.72797,1.28978 -0.61104,1.30894 0.83433,0.13669 0.92452,-0.74982 1.45356,-1.73122 1.17565,-2.1809 -0.53117,-0.85945 1.32343,-2.38239 3.02732,-2.48593 0.55,-0.0334 0.90536,-0.54923 0.78969,-1.14625 -0.27046,-1.39591 3.30973,-4.64754 5.46553,-4.96395 2.87147,-0.42144 6.20269,-2.61874 5.55614,-3.66488 -0.34121,-0.55209 -0.13021,-0.70085 0.46889,-0.33059 1.27547,0.78828 10.33423,-3.36995 9.67283,-4.4401 -0.24654,-0.39892 10.23816,-0.79005 23.29933,-0.86919 13.06117,-0.0791 36.34759,-0.56397 51.74759,-1.07742 35.61112,-1.18731 35.37232,-1.18747 33.5,0.0225 -0.85414,0.55198 -11.2604,0.97597 -24.16821,0.98469 -12.46752,0.008 -23.38002,0.28845 -24.25,0.6223 C 569.7118,340.9408 569,342.08076 569,343.1402 c 0,1.05944 -1.06246,4.0488 -2.36103,6.64301 -3.33621,6.66495 -6.35967,16.72506 -7.064,23.50446 -0.89543,8.61875 0.9578,17.64382 5.9543,28.99695 3.82509,8.69143 4.47073,11.11711 4.47073,16.79656 v 6.63808 l -13.75,0.64479 c -7.5625,0.35463 -26.575,0.69755 -42.25,0.76204 -15.675,0.0645 -28.73688,0.48874 -29.02639,0.94278 -0.28952,0.45404 -0.96452,0.51178 -1.5,0.12831 z m 52.51753,-16.48707 c 3.54973,-1.79596 3.58519,-4.05228 0.15141,-9.63289 -4.13184,-6.71509 -6.14698,-14.12816 -6.11869,-22.50875 0.0258,-7.64583 0.74627,-11.4098 3.61892,-18.90653 l 1.85387,-4.83802 -2.80409,-2.41198 c -4.57605,-3.93615 -8.40916,-3.25566 -20.02012,3.55415 -14.33981,8.41026 -20.12803,15.58536 -24.81537,30.76122 -1.18703,3.84314 -1.79848,7.81559 -1.46199,9.49808 0.60212,3.0106 8.65318,14.22535 10.84729,15.10975 2.8805,1.16109 36.28345,0.62228 38.74877,-0.62503 z M 221.8125,332.31689 c 0.72187,-0.28887 1.58437,-0.25335 1.91667,0.0789 0.33229,0.33229 -0.25834,0.56864 -1.3125,0.52522 -1.16495,-0.048 -1.4019,-0.28494 -0.60417,-0.60416 z m -9.0625,-0.97917 c 0.6875,-0.27741 1.8125,-0.27741 2.5,0 0.6875,0.27741 0.125,0.50439 -1.25,0.50439 -1.375,0 -1.9375,-0.22698 -1.25,-0.50439 z m 270.75,-1.87383 c -1.65,-0.75553 -5.925,-1.39333 -9.5,-1.41734 -3.575,-0.024 -11.225,-0.5056 -17,-1.07019 -5.775,-0.5646 -19.275,-1.72991 -30,-2.58959 -10.725,-0.85968 -24,-1.96103 -29.5,-2.44745 -5.5,-0.48642 -16.975,-1.349 -25.5,-1.91684 -8.525,-0.56784 -20.9,-1.45926 -27.5,-1.98092 -6.6,-0.52167 -19.875,-1.47635 -29.5,-2.12152 -9.625,-0.64518 -18.4,-1.5376 -19.5,-1.98316 -2.89737,-1.17359 5.71273,-1.14998 18.5,0.0507 5.775,0.54227 19.275,1.66014 30,2.48415 10.725,0.82401 30.975,2.40568 45,3.51481 42.31482,3.34636 69.99596,5.50496 84.59941,6.59712 6.52023,0.48764 9.77985,1.20368 11.5,2.52619 2.80909,2.15972 2.49564,2.2291 -1.59941,0.35401 z m -323.6875,-4.147 c 0.72187,-0.28887 1.58437,-0.25335 1.91667,0.0789 0.33229,0.33229 -0.25834,0.56864 -1.3125,0.52522 -1.16495,-0.048 -1.4019,-0.28494 -0.60417,-0.60416 z m -9.0625,-0.97917 c 0.6875,-0.27741 1.8125,-0.27741 2.5,0 0.6875,0.27741 0.125,0.50439 -1.25,0.50439 -1.375,0 -1.9375,-0.22698 -1.25,-0.50439 z M 280.5,321 c -1.45433,-4.58219 2.43827,-8.73428 7.09314,-7.56598 2.99283,0.75115 3.33381,5.41713 0.57812,7.91099 -2.58718,2.34137 -6.87991,2.14831 -7.67126,-0.34501 z m -24,-43.82141 c -5.17168,-0.71907 -11.90366,-4.18217 -12.83188,-6.60106 -0.89417,-2.33017 0.42058,-2.57628 4.2089,-0.78788 3.37247,1.59209 12.54265,1.68579 132.62298,1.35513 143.04978,-0.3939 132.68616,0.12513 136.75935,-6.84914 1.78154,-3.05042 2.09543,-5.11235 3.31804,-21.79564 0.32244,-4.4 0.84566,-8.675 1.16271,-9.5 0.62891,-1.63648 2.98623,10.83025 3.9049,20.65108 0.9471,10.12477 -2.69285,17.29204 -10.91119,21.48472 -3.97135,2.02603 -5.35748,2.05182 -128.62421,2.39304 -68.53528,0.18972 -126.8596,0.0321 -129.6096,-0.35025 z m -10.32332,-88.73141 c 0.45227,-2.17211 2.22702,-2.30502 2.63295,-0.19718 0.2108,1.0946 -0.27967,1.75 -1.30963,1.75 -0.96073,0 -1.51197,-0.64684 -1.32332,-1.55282 z M 888.24855,119.75 c 0.29804,-0.89723 4.17306,-1.32903 13.73072,-1.53005 11.85796,-0.2494 13.1765,-0.11257 12.04567,1.25 -1.68959,2.03583 -26.44897,2.30483 -25.77639,0.28005 z M 592,26.755837 c -81.675,-0.49592 -148.83123,-1.222591 -149.23607,-1.614824 -0.40484,-0.392233 -0.85484,-2.94692 -1,-5.677082 L 441.5,14.5 449.99012,14 c 7.51497,-0.442571 8.5267,-0.729715 8.80855,-2.5 0.17514,-1.1 0.52241,-2.6131808 0.77171,-3.3626241 0.70241,-2.1115298 3.07469,0.3379515 3.7897,3.9130431 l 0.60112,3.005566 18.2694,-0.097 c 10.04817,-0.05335 21.8694,-0.02598 26.2694,0.06083 4.4,0.08681 11.6,0.109297 16,0.04998 4.4,-0.05932 34.55,0.154591 67,0.475355 32.45,0.320765 63.275,0.452408 68.5,0.29254 5.225,-0.159867 12.875,-0.243004 17,-0.184749 4.125,0.05826 38.1,0.352715 75.5,0.654353 37.4,0.301639 70.86258,0.580898 74.36129,0.620575 L 833.22258,17 l -0.70005,3.73159 c -0.38503,2.052375 -1.12594,4.527375 -1.64647,5.5 -1.09754,2.050758 8.91268,2.028789 -238.87606,0.524247 z"
     style="fill:#afafaf" />
  <path
     inkscape:connector-curvature="0"
     id="path5113"
     d="m 307,605.40621 c -7.975,-1.90593 -20.43394,-4.79641 -27.68652,-6.42328 -7.25259,-1.62688 -15.54774,-3.75108 -18.43367,-4.72044 -4.75796,-1.59817 -5.37705,-2.15696 -6.64053,-5.99364 -1.20868,-3.6703 -1.18782,-5.22517 0.15742,-11.73006 1.27778,-6.17868 4.83748,-13.88442 20.21921,-43.76885 C 284.88354,512.82147 294.86813,493.8 296.8039,490.5 c 7.82008,-13.33129 20.42544,-33.34552 40.69833,-64.61901 16.75895,-25.8528 21.58732,-34.04329 22.49016,-38.1507 3.53378,-16.07655 1.53191,-25.57698 -7.79245,-36.98127 -5.73423,-7.01332 -6.26834,-7.38736 -16.42676,-11.50369 -5.7749,-2.34007 -12.60711,-4.64835 -15.18269,-5.12952 -2.57558,-0.48117 -4.83452,-1.04157 -5.01987,-1.24533 -0.18536,-0.20377 -0.80507,-2.60202 -1.37716,-5.32946 -1.06136,-5.06011 -0.40335,-7.89975 2.02876,-8.75511 0.70278,-0.24717 10.95278,0.36208 22.77778,1.35387 11.825,0.99179 27.8,2.26124 35.5,2.82101 7.7,0.55977 22.325,1.70136 32.5,2.53687 30.31808,2.48955 57.87835,4.65537 68.07942,5.35002 8.40731,0.5725 10.02854,0.99503 13.25,3.45321 6.23982,4.76139 5.45129,7.18713 -6.24371,19.20758 -12.85308,13.21075 -17.95651,22.74672 -20.59979,38.49153 -2.19912,13.09916 -2.13516,15.63058 0.48441,19.17374 6.00421,8.12113 7.02967,10.21903 7.02967,14.38138 0,4.0512 -0.52546,4.82638 -9.99387,14.74347 l -9.99386,10.46744 -31.93113,57.41706 -31.93112,57.41706 -0.65271,9.44993 c -0.55941,8.09905 -0.35571,10.29426 1.42498,15.35647 2.64526,7.52 2.6138,9.8885 -0.17229,12.97252 -4.42763,4.90109 -9.39549,5.62687 -38.03495,5.5567 L 321.5,608.87155 Z M 331.81311,586.25 C 331.4065,584.11662 327,583.21372 327,585.26378 c 0,1.91278 0.97505,2.73622 3.23999,2.73622 1.27626,0 1.79638,-0.5786 1.57312,-1.75 z M 425.8323,383.6323 c 0.48724,-2.53004 -1.20602,-3.96585 -3.73164,-3.16425 -2.35806,0.74842 -2.71216,2.52045 -0.87147,4.36114 1.68561,1.68561 4.17252,1.03897 4.60311,-1.19689 z M 404,605.60028 c 0,-0.25854 0.4377,-1.62132 0.97266,-3.02838 0.7804,-2.05259 0.20607,-4.6983 -2.90545,-13.38427 -2.13296,-5.95429 -4.18294,-13.26985 -4.55552,-16.2568 -0.6433,-5.15749 -0.49707,-5.66688 2.90546,-10.12084 1.97057,-2.5795 3.58285,-5.13434 3.58285,-5.67742 0,-0.54307 -1.125,-1.87233 -2.5,-2.95391 -5.14393,-4.04622 -2.20332,-7.30517 4.71994,-5.23091 3.88437,1.16378 4.1885,1.09268 6.67493,-1.5606 4.10426,-4.37968 7.08579,-11.34532 7.09599,-16.57813 0.005,-2.58004 0.43743,-4.95569 0.9609,-5.27921 C 422.2174,524.7476 433,505.03863 433,503.50744 c 0,-0.6586 -0.9,-2.01195 -2,-3.00744 -2.38695,-2.16016 -2.63397,-6.31949 -0.42565,-7.16691 0.8659,-0.33227 3.31356,-0.0301 5.43925,0.6714 3.62928,1.19777 4.05364,1.11672 6.96071,-1.32942 7.8056,-6.56798 10.98869,-13.66353 8.76835,-19.54588 -0.88127,-2.33477 -0.45249,-3.7026 3.15797,-10.07403 6.05208,-10.6802 13.93282,-18.87053 21.94314,-22.80516 l 6.61651,-3.25 h 26.76986 C 524.95356,437 537,437.37917 537,437.8426 c 0,0.81318 -26.23793,2.14806 -42.34476,2.15434 -11.88372,0.005 -20.98829,3.06337 -26.49647,8.90166 -4.7908,5.07792 -7.5794,9.11771 -11.59523,16.79786 -2.65943,5.08606 -2.6636,5.1287 -1.09343,11.18821 0.86691,3.34548 1.30651,7.15716 0.97691,8.4704 -0.91366,3.64033 -7.3643,9.30474 -12.93636,11.35963 -4.72536,1.74264 -5.27125,2.33917 -10.31775,11.27493 -5.07976,8.99463 -5.28058,9.62336 -4.30337,13.47265 0.82287,3.24135 0.62527,5.61559 -1.00186,12.03772 -2.42611,9.57563 -6.52381,14.55411 -14.03177,17.04786 -9.29011,3.08568 -11.13418,11.15195 -5.85591,25.61475 1.65,4.52111 3,10.01704 3,12.21319 0,5.88746 -2.97244,15.53908 -5.14344,16.70097 C 404.83545,605.62325 404,605.85883 404,605.60028 Z m 78.25002,-123.68039 c 0.96251,-0.56061 2.44691,-2.36693 3.29866,-4.01403 1.29805,-2.51014 1.34664,-3.55334 0.30034,-6.44684 -1.76397,-4.87818 0.12732,-17.87981 3.02198,-20.77446 2.81663,-2.81663 3.31279,-1.89701 1.62289,3.00796 -0.77964,2.26294 -1.41267,6.29537 -1.40673,8.96096 0.006,2.66558 0.0168,7.26272 0.024,10.21586 0.0147,5.97154 -2.69325,10.15654 -6.53549,10.10025 -1.8901,-0.0277 -1.91922,-0.12154 -0.32567,-1.0497 z m 5.55337,-54.72707 c -3.71037,-0.30833 -3.82476,-0.40533 -11.9643,-10.1462 -1.12754,-1.34936 -3.55687,-5.67178 -5.39852,-9.60539 -3.12407,-6.67274 -3.31016,-7.64751 -2.77696,-14.54662 0.31432,-4.06703 1.19451,-8.39267 1.95597,-9.61253 0.76147,-1.21985 2.34851,-4.81985 3.52677,-8 1.72395,-4.65298 4.01229,-7.69265 11.71849,-15.56602 8.19722,-8.37502 10.97603,-10.49906 19.29699,-14.75 L 513.88261,340 H 541.4413 569 v 2.53324 c 0,1.39329 -1.06246,4.65579 -2.36103,7.25 -3.33621,6.66495 -6.35967,16.72506 -7.064,23.50446 -0.89543,8.61875 0.9578,17.64382 5.9543,28.99695 3.83255,8.7084 4.47073,11.11087 4.47073,16.83046 v 6.67198 l -16.25,0.61918 c -19.17691,0.73071 -60.66398,1.22553 -65.94661,0.78655 z m 48.18775,-15.48268 c 3.54973,-1.79596 3.58519,-4.05228 0.15141,-9.63289 -4.13184,-6.71509 -6.14698,-14.12816 -6.11869,-22.50875 0.0258,-7.64583 0.74627,-11.4098 3.61892,-18.90653 l 1.85387,-4.83802 -2.80409,-2.41198 c -4.57605,-3.93615 -8.40916,-3.25566 -20.02012,3.55415 -14.33981,8.41026 -20.12803,15.58536 -24.81537,30.76122 -1.18703,3.84314 -1.79848,7.81559 -1.46199,9.49808 0.60212,3.0106 8.65318,14.22535 10.84729,15.10975 2.8805,1.16109 36.28345,0.62228 38.74877,-0.62503 z m 110.4722,-53.95212 c -0.641,-1.6637 3.12268,-30.63173 4.38602,-33.75802 1.42717,-3.53171 1.16451,10.43998 -0.39479,21 -1.84496,12.49464 -2.85221,15.71432 -3.99123,12.75802 z M 290,337.92985 c -3.575,-0.4491 -15.275,-1.85224 -26,-3.11809 -25.59696,-3.02115 -20.86434,-3.5723 6.82138,-0.79441 21.79102,2.18645 38.17392,4.81149 29.67862,4.75543 -2.2,-0.0145 -6.925,-0.39383 -10.5,-0.84293 z M 105.76283,326.03435 C 88.789813,323.89519 84.515291,322.24489 81.714994,316.75 c -2.10065,-4.122 -2.015906,-4.08765 -9.348854,-3.78922 -4.359426,0.17742 -5.377651,-0.13913 -6.75,-2.09843 C 64.727263,309.5933 64,307.62286 64,306.48359 c 0,-4.33692 30.542748,-78.72296 34.128425,-83.11885 1.09397,-1.34117 13.860445,-4.7092 14.693285,-3.87636 0.31524,0.31523 -0.19069,1.86624 -1.12428,3.44668 -0.93359,1.58044 -1.69743,3.34942 -1.69743,3.93108 0,0.58165 -1.58345,4.39352 -3.51879,8.47082 -3.82485,8.05809 -20.154035,48.02688 -24.061154,58.89426 C 81.089025,297.93339 80,301.9174 80,303.08458 v 2.12215 l 80.25,-0.6016 c 44.1375,-0.33088 139.2,-0.82847 211.25,-1.10576 72.05,-0.27729 150.8,-0.7676 175,-1.08959 45.58287,-0.60649 62.88438,0.19678 87.5,4.06245 5.225,0.82054 11.15921,1.49997 13.18713,1.50983 3.59215,0.0175 3.67504,-0.0658 3.21802,-3.23206 -0.32141,-2.22668 0.12533,-4.00089 1.41883,-5.63477 l 1.88794,-2.38478 11.39404,1.51612 c 16.42528,2.18559 85.99243,1.02128 87.52899,-1.46493 0.30687,-0.49652 2.01116,-6.38801 3.78732,-13.0922 3.47412,-13.11324 2.86012,-12.27897 11.82773,-16.07125 5.08418,-2.15004 4.93631,-3.99441 -0.25,-3.11819 -3.86651,0.65324 -4.77246,0.0931 -3.23469,-2 1.83837,-2.50224 4.62354,-3.77598 9.96582,-4.55766 10.32419,-1.51061 13.97678,-2.54512 12.0066,-3.40056 -0.96925,-0.42085 -3.20527,-0.55339 -4.96894,-0.29454 C 778.14927,254.77848 772,253.37027 772,252.01016 c 0,-0.49271 0.98171,-2.55972 2.18158,-4.59334 l 2.18158,-3.6975 24.56842,0.64599 c 13.51263,0.35529 26.59342,0.98466 29.06842,1.3986 l 4.5,0.75262 v 5.99174 5.99173 h 3.91078 c 3.49891,0 4.0255,-0.33472 5,-3.17823 0.59907,-1.74803 1.3886,-3.47241 1.75452,-3.83196 0.36591,-0.35956 5.28828,-1.05529 10.9386,-1.54609 6.0501,-0.52552 10.8149,-1.43395 11.59078,-2.20983 0.77927,-0.77927 1.76559,-5.9983 2.41442,-12.77568 0.60332,-6.30202 1.50058,-11.88571 1.99392,-12.40821 0.55405,-0.5868 0.91229,-0.39564 0.93702,0.5 0.022,0.7975 0.73223,0.17272 1.57826,-1.38841 0.84602,-1.56112 1.76392,-2.61271 2.03977,-2.33685 0.92848,0.92847 -1.77641,16.10039 -4.47845,25.12004 -3.11195,10.38793 -6.72623,16.00961 -10.83106,16.8467 -4.85867,0.99083 -19.89747,14.49294 -18.12102,16.26939 0.21427,0.21427 3.73823,0.66335 7.83102,0.99796 4.09279,0.33461 7.97467,0.77041 8.62639,0.96843 1.59735,0.48535 -0.22507,7.25239 -2.68574,9.97274 -0.99499,1.1 -2.37092,3.90525 -3.05761,6.23389 -0.68669,2.32865 -2.04905,4.95837 -3.02747,5.84383 -2.16356,1.95799 -26.84423,8.3622 -32.41413,8.41091 -2.2,0.0192 -7.5351,0.9029 -11.85577,1.96368 -4.32067,1.06078 -11.52067,2.20405 -16,2.54059 -9.9681,0.74892 -15.8287,1.58387 -40.14423,5.71931 -17.47762,2.97249 -20.80282,3.23367 -41.5,3.2596 -24.21625,0.0303 -37.99634,-1.64623 -45.66484,-5.55585 C 661.26824,316.86218 659.0131,316 658.32374,316 c -0.68935,0 -1.71546,-0.86342 -2.28024,-1.91872 -1.21028,-2.26144 -3.42666,-2.82573 -16.07525,-4.09279 -5.20754,-0.52167 -12.39325,-1.49417 -15.96825,-2.16113 -7.86821,-1.4679 -81.56001,-1.68099 -197.5,-0.57109 -140.63323,1.34629 -165.75911,2.05403 -169.02073,4.76093 -0.83905,0.69635 -1.5796,0.56684 -2.39809,-0.41939 C 253.18726,309.31578 241.11,308.96717 191.5,309.76252 l -46,0.73748 0.23027,3.83781 c 0.75054,12.50883 -9.56636,15.52809 -39.96744,11.69654 z M 681.11461,302.475 c -0.0195,-0.53625 -1.04418,-1.13072 -2.27715,-1.32104 -1.96935,-0.30399 -2.07744,-0.14805 -0.88953,1.2833 1.41019,1.69918 3.22777,1.72084 3.16668,0.0377 z m 139.05665,-7.12999 C 823.64433,292.20193 822.2352,286 818.048,286 c -4.37317,0 -7.9636,5.42066 -6.00923,9.07244 1.28069,2.39299 5.62843,2.53871 8.13249,0.27257 z M 797.25,254.33772 c -0.6875,-0.27741 -1.8125,-0.27741 -2.5,0 -0.6875,0.27741 -0.125,0.50439 1.25,0.50439 1.375,0 1.9375,-0.22698 1.25,-0.50439 z m 24.18484,-2.14587 c 1.61416,-0.44049 3.13659,-1.40615 3.38318,-2.1459 0.48829,-1.46487 0.18252,-1.43963 -16.17638,1.33498 -4.8721,0.82636 -9.1471,1.81617 -9.5,2.1996 -0.81077,0.88089 18.35022,-0.31267 22.2932,-1.38868 z M 244,325.62244 c 0,-0.20765 0.7875,-0.99515 1.75,-1.75 1.58606,-1.24387 1.62143,-1.2085 0.37756,0.37756 C 244.82119,325.91575 244,326.44548 244,325.62244 Z m 38,-5.98164 c 0,-2.99845 1.27649,-4.6408 3.60699,-4.6408 2.83241,0 3.05778,1.11912 0.64301,3.19291 -3.02177,2.59507 -4.25,3.0135 -4.25,1.44789 z m -11.5,-44.67948 c -8.8,-0.29627 33.05,-0.74627 93,-1 59.95,-0.25372 115.075,-0.3222 122.5,-0.15217 7.425,0.17003 16.425,0.0132 20,-0.34842 5.97659,-0.60462 6.82987,-1.00052 10.59646,-4.91647 2.25306,-2.3424 4.44942,-5.78561 4.8808,-7.65158 0.55474,-2.39954 0.91834,-2.85725 1.2421,-1.56359 1.24742,4.98444 -3.50345,11.68268 -9.9978,14.09588 -3.72526,1.38425 -17.27108,1.59843 -115.22156,1.82185 -61.05,0.13925 -118.2,0.0108 -127,-0.2855 z M 824,237.55902 c 0,-2.66793 1.48734,-4.19754 2.49545,-2.56638 C 827.3081,236.30753 826.15565,240 824.93261,240 824.41968,240 824,238.90156 824,237.55902 Z m 0.49447,-17.56797 C 823.5339,218.43681 824.9613,215 826.56739,215 c 1.50953,0 1.84079,1.77271 0.82562,4.41821 -0.69159,1.80227 -1.9812,2.05713 -2.89854,0.57284 z M 881.38,208.54789 C 880.35902,205.88724 882.06418,205 888.19856,205 h 6.08053 l -3.68395,2.5 c -4.09893,2.7816 -8.36375,3.26657 -9.21514,1.04789 z m 19.21392,-5.93203 C 901.90329,199.20367 899.20318,198 890.23946,198 h -8.51565 l 0.66466,-6.48743 c 1.01408,-9.89804 0.55208,-9.49077 10.96852,-9.66909 17.27149,-0.29568 16.93552,-0.17264 19.17378,-7.02217 0.95638,-2.92672 1.85778,-5.46339 2.00311,-5.63703 0.66225,-0.7913 8.46612,2.02258 8.46612,3.05266 0,3.39891 -5.38312,17.92272 -8.22177,22.18258 -3.8468,5.77276 -7.03738,8.31432 -11.54619,9.19753 -2.75894,0.54043 -3.16986,0.38448 -2.63812,-1.00119 z m -74.41527,-3.68173 c 0.17674,-1.80406 0.91596,-3.47546 1.6427,-3.71423 0.95412,-0.31348 1.23204,0.47747 1,2.84597 -0.17674,1.80406 -0.91596,3.47546 -1.6427,3.71423 -0.95412,0.31348 -1.23204,-0.47747 -1,-2.84597 z M 694.5,189.69887 C 677.45,189.18762 591.50624,188.70872 503.51386,188.63466 362.13845,188.51566 343.50182,188.32551 343.30502,187 c -0.12249,-0.825 -0.67731,-7.63692 -1.23295,-15.13759 -0.98404,-13.28386 -0.94466,-13.83264 1.51805,-21.15734 2.19114,-6.51694 3.35388,-8.30691 8.71909,-13.42249 7.24544,-6.90833 24.15337,-25.89728 26.68243,-29.9665 2.63551,-4.24051 31.01612,-33.327778 43.41717,-44.498227 8.05331,-7.254153 11.97972,-10.095885 15,-10.856216 7.02785,-1.769206 8.60466,-2.779009 9.23121,-5.911718 0.78788,-3.939395 4.66978,-5.18248 14.37507,-4.603271 4.1167,0.245684 88.48491,0.742347 187.48491,1.103696 99,0.36135 180.3375,0.861905 180.75,1.112345 0.4125,0.25044 0.75,2.202305 0.75,4.337479 0,3.768378 0.12447,3.906748 4.24769,4.722152 3.57236,0.706469 4.60665,1.490762 6.50557,4.933138 2.84171,5.151453 5.24962,20.616438 5.19178,33.344542 -0.0768,16.90874 -5.46064,94.9156 -6.63162,96.08658 -1.76212,1.76212 -48.60524,3.84784 -82.81342,3.68731 -17.05,-0.08 -44.95,-0.56377 -62,-1.07502 z M 395,161.58179 C 395,159.41332 393.8902,157 392.89301,157 c -1.03336,0 -1.21764,4.34204 -0.22634,5.33333 1.1283,1.12831 2.33333,0.74018 2.33333,-0.75154 z M 804.82608,26.526457 C 804.64674,26.365655 739.25,25.953927 659.5,25.611505 579.75,25.269083 498.4125,24.70675 478.75,24.361877 L 443,23.734834 v -3.367417 c 0,-1.852079 -0.005,-3.704917 -0.0114,-4.117417 -0.006,-0.4125 3.70624,-0.975 8.25,-1.25 7.62874,-0.461712 8.28584,-0.672297 8.58092,-2.75 C 460.25162,9.2077152 462,9.3799639 462,12.464816 c 0,3.765179 3.09337,4.862465 11.38126,4.037173 8.08354,-0.804943 6.39806,-0.805857 83.11874,0.04505 31.35,0.347702 61.05,0.509895 66,0.360428 4.95,-0.149467 12.6,-0.212717 17,-0.140556 22.77996,0.373596 160.37674,1.38668 175.27584,1.290504 l 17.27584,-0.111519 -0.66079,2.777051 c -1.31412,5.52277 -1.33101,5.529706 -14.18029,5.821779 -6.63214,0.150753 -12.20518,0.142531 -12.38452,-0.01827 z"
     style="fill:#9b9b9b" />
  <path
     inkscape:connector-curvature="0"
     id="path5111"
     d="m 291,600.9181 c -16.225,-3.7954 -30.6989,-7.39323 -32.16421,-7.9952 -7.81659,-3.2111 -6.61999,-16.9681 3.07826,-35.39006 3.19453,-6.06806 11.80779,-22.73284 19.14057,-37.03284 15.12539,-29.49674 25.51708,-46.92336 56.18977,-94.22894 20.19061,-31.13937 21.6575,-33.71762 23.32694,-41 2.25111,-9.81975 2.18662,-13.0934 -0.42887,-21.77106 -1.68187,-5.58009 -3.38092,-8.49695 -8.37615,-14.37979 -6.16661,-7.26237 -6.45723,-7.45685 -18.26631,-12.22393 -6.6,-2.66429 -12.99667,-4.85588 -14.21482,-4.87022 -3.78819,-0.0446 -6.86235,-9.47223 -3.89242,-11.93706 1.62252,-1.34657 0.44297,-1.42023 87.60724,5.47052 84.00169,6.64072 79.9122,6.2231 83.66797,8.54429 4.31578,2.6673 5.53825,5.5415 3.78377,8.89619 -0.71912,1.375 -5.20104,6.325 -9.95983,11 -11.28741,11.08868 -17.38306,22.4818 -19.86234,37.12387 -2.60164,15.36467 -2.53489,15.77744 4.12043,25.48064 2.27743,3.32042 3.25,5.88555 3.25,8.57185 0,3.47403 -0.92835,4.82562 -9.90082,14.41467 l -9.90082,10.58119 -32.00534,57.66389 -32.00534,57.66389 -0.69044,9.12913 c -0.60242,7.9654 -0.39867,10.03501 1.59831,16.23546 2.15256,6.68348 2.19429,7.30439 0.70135,10.43513 -2.81385,5.9007 -7.57927,6.71541 -38.66173,6.60969 L 320.5,607.81882 Z m 41,-14.85071 c 0,-2.21674 -3.67987,-3.78752 -5.23345,-2.23394 C 325.10183,585.49817 326.72429,588 329.46862,588 331.30391,588 332,587.46856 332,586.06739 Z M 425.94695,384.56392 C 427.38389,382.83252 425.73049,379 423.5466,379 420.91113,379 419,380.22193 419,381.90699 c 0,3.68582 4.62501,5.4547 6.94695,2.65693 z m 59.31639,40.00421 c -4.49698,-3.78396 -9.36962,-10.93113 -13.11147,-19.2319 -3.13111,-6.94591 -3.2007,-7.39423 -2.28843,-14.74234 1.43734,-11.57744 5.31476,-18.80459 16.00164,-29.82563 7.21016,-7.4356 10.75047,-10.20524 17.9043,-14.0068 l 8.91704,-4.73855 27.65679,-0.67185 L 568,340.67921 v 2.19364 c 0,1.2065 -1.07376,4.31618 -2.38612,6.91039 -4.19432,8.29109 -6.6424,17.96065 -6.74179,26.62904 -0.12342,10.76451 0.6361,14.17393 5.77528,25.92469 3.62221,8.2822 4.35263,11.0089 4.35263,16.24865 0,3.46299 -0.3375,6.49641 -0.75,6.74094 -0.4125,0.24452 -18.54244,0.77202 -40.28875,1.17221 l -39.53875,0.72762 z M 536,411.71023 c 3.53352,-1.78131 3.56974,-4.72288 0.13385,-10.87251 -6.62246,-11.85306 -7.78551,-26.03637 -3.10809,-37.90308 1.08583,-2.75477 1.97424,-5.82228 1.97424,-6.81667 0,-2.70419 -3.36194,-5.22792 -7.67238,-5.75948 -3.29451,-0.40627 -5.31263,0.3774 -14.48959,5.62659 -10.96655,6.27283 -17.56196,12.61916 -21.82634,21.00208 -2.97343,5.84517 -6.221,18.04276 -5.53332,20.78269 0.70796,2.82073 8.80335,13.77502 10.764,14.56532 2.88631,1.16343 37.28261,0.62275 39.75763,-0.62494 z m -430.6391,-86.656 C 97.584393,324.10838 89.825873,322.7563 88.119742,322.0496 85.185269,320.8341 81,315.59196 81,313.13197 81,312.31336 89.698151,312 112.42054,312 h 31.42055 l 0.64288,2.92701 c 0.95297,4.33887 -1.63087,8.51449 -6.46579,10.44904 -5.09477,2.03852 -13.97018,1.95106 -32.65728,-0.32182 z M 66.75,310.9199 C 64.779053,309.77193 64.3476,303.64408 65.966856,299.79705 66.498626,298.53367 71.178628,286.7 76.366859,273.5 89.410952,240.31296 97.067881,223.80207 100.09531,222.33355 103.80709,220.53307 112,219.54981 112,220.90484 c 0,0.62255 -3.31085,8.43615 -7.35745,17.36354 -4.0466,8.92739 -11.768929,27.22143 -17.160736,40.65342 -9.177097,22.86185 -9.73839,24.66493 -8.787324,28.22811 0.558779,2.09347 0.78111,4.04116 0.494069,4.3282 C 78.260408,312.40626 68.554053,311.97067 66.75,310.9199 Z M 661,188.8582 c -11.275,-0.51405 -87.16826,-0.87882 -168.6517,-0.8106 l -148.15169,0.12404 -0.54618,-2.83582 c -0.30041,-1.5597 -0.84063,-8.28611 -1.2005,-14.94756 -0.59483,-11.01059 -0.44058,-12.78346 1.69663,-19.5 2.08521,-6.5531 3.14595,-8.17953 9.38385,-14.38826 8.3735,-8.33433 22.91336,-24.47561 26.84062,-29.79684 5.25281,-7.117275 28.01669,-30.943931 40.31753,-42.199832 10.75789,-9.844013 12.98578,-11.428986 18.0703,-12.855631 4.4299,-1.242968 6.65841,-2.589957 9.43625,-5.703618 l 3.63671,-4.076348 150.83409,0.696768 C 685.62466,42.947722 756.425,43.362446 760,43.486108 c 3.575,0.123663 20.5625,0.289878 37.75,0.369367 L 829,44 v 3.521439 c 0,3.660021 1.12815,4.608133 7,5.882885 5.79179,1.257371 9.01071,13.76278 8.988,34.918035 C 844.981,94.470062 843.8618,116.825 842.5,138 c -1.3618,21.175 -2.48829,40.075 -2.50331,42 -0.015,1.925 -0.36904,4.03751 -0.78669,4.69446 -2.19328,3.44989 -128.92318,6.41085 -178.21,4.16374 z M 395.23175,159.97024 c -0.32381,-2.78767 -2.12357,-5.15513 -3.34506,-4.40021 -1.29415,0.79983 -1.08365,4.83301 0.32581,6.24247 1.76952,1.76952 3.32831,0.81839 3.01925,-1.84226 z"
     style="fill:#d10908" />
  <path
     inkscape:connector-curvature="0"
     id="path5109"
     d="M 291.1445,600.94331 C 274.99898,597.16179 260.93915,593.79807 259.90042,593.4684 257.13968,592.59217 255,590.14388 255,587.86118 c 0,-1.55647 0.45094,-1.85283 2.04799,-1.34595 2.70819,0.85955 4.9515,-1.12726 4.95413,-4.38767 0.003,-3.16049 9.06746,-21.14103 11.39264,-22.59767 1.2221,-0.76561 3.62776,-0.29677 9.3746,1.82699 4.25185,1.57129 11.55564,4.17506 16.23064,5.78616 4.675,1.6111 10.8748,4.038 13.77734,5.39311 2.90253,1.35512 5.87118,2.46385 6.59699,2.46385 0.72581,0 2.35736,0.9 3.62567,2 1.9014,1.64908 3.74136,2 10.4864,2 7.80914,0 8.34705,-0.14749 11.85293,-3.25 3.78324,-3.34796 4.08873,-4.26786 3.81911,-11.5 -0.15018,-4.02836 -0.31618,-4.25 -3.18319,-4.25 -2.21259,0 -3.25812,0.60414 -3.8939,2.25 -0.47803,1.2375 -2.00486,3.30614 -3.39294,4.59699 -2.24255,2.08545 -3.17371,2.28176 -8.3561,1.76166 -3.20777,-0.32193 -7.18231,-1.22236 -8.83231,-2.00096 -1.65,-0.77861 -6.825,-2.64601 -11.5,-4.1498 -4.675,-1.50378 -11.63285,-4.08012 -15.46189,-5.72518 -3.82904,-1.64506 -10.35404,-3.97367 -14.5,-5.17469 l -7.53811,-2.18366 0.20844,-4.37974 C 272.9601,539.7068 274.76539,535 276.54187,535 c 0.71457,0 1.5889,-1.31891 1.94295,-2.9309 0.35406,-1.612 1.28981,-3.4671 2.07946,-4.12245 C 281.35393,527.2913 282,526.34199 282,525.83706 282,523.41282 286.52686,519 289.01374,519 c 2.58399,0 6.15927,-2.98076 7.21615,-6.01621 0.29035,-0.83392 1.70258,-2.14488 3.13829,-2.91324 2.27419,-1.21711 3.03033,-1.1876 5.8711,0.22915 6.23949,3.11177 13.02719,5.7003 14.94743,5.7003 1.06286,0 5.70384,1.8 10.31329,4 4.60945,2.2 8.81569,4 9.34719,4 0.53151,0 3.97527,1.35 7.65281,3 10.93517,4.90628 21.94965,3.70911 27.2182,-2.95835 1.5007,-1.89917 1.64706,-8.49064 0.24662,-11.10739 -1.52436,-2.84829 -4.6782,-2.3892 -6.39509,0.9309 -1.63472,3.16119 -6.94548,6.13484 -10.95646,6.13484 -2.69241,0 -28.13002,-8.3809 -30.02786,-9.89324 -0.59697,-0.47572 -5.36041,-2.30197 -10.58541,-4.05834 -5.225,-1.75637 -10.49366,-3.83381 -11.70814,-4.61654 -1.21448,-0.78272 -3.23802,-1.3126 -4.49677,-1.17751 -1.72899,0.18557 -2.37059,-0.32777 -2.62385,-2.09931 -0.43931,-3.07302 1.63686,-7.98199 3.88463,-9.18496 0.97986,-0.52441 2.08815,-2.34931 2.46285,-4.05535 0.37471,-1.70604 1.76129,-4.04093 3.08129,-5.18865 C 308.92,478.57837 310,476.66522 310,475.47465 310,471.90702 313.0797,470 318.84116,470 h 5.18368 l 3.51831,-5.5 c 1.93507,-3.025 3.84198,-5.49832 4.23758,-5.49626 0.3956,0.002 2.06927,0.82251 3.71927,1.82324 1.65,1.00073 6.825,3.20709 11.5,4.90303 4.675,1.69594 11.425,4.47512 15,6.17597 3.575,1.70084 7.07746,3.0928 7.78324,3.09323 0.70579,4.3e-4 3.50333,1.12579 6.21676,2.50079 8.46135,4.28769 19.88737,2.8577 25.11803,-3.14359 1.83847,-2.10933 3.23691,-13.01901 1.78392,-13.91701 -1.56686,-0.96837 -6.90195,0.61714 -6.90195,2.05116 0,0.73241 -1.38453,2.49665 -3.07673,3.92055 -5.5624,4.68045 -15.02011,3.23943 -32.42327,-4.94018 -2.75,-1.29252 -7.025,-2.8684 -9.5,-3.50196 -2.475,-0.63356 -5.90312,-2.01076 -7.61803,-3.06045 C 341.66705,453.85883 339.3595,453 338.25409,453 c -1.10541,0 -3.6398,-0.68104 -5.63197,-1.51342 -3.8773,-1.62004 -4.76349,-4.29444 -2.14353,-6.46881 1.76641,-1.46599 10.31132,-13.91861 12.74331,-18.57101 2.1644,-4.14048 3.42188,-4.94676 7.71501,-4.94676 2.87188,0 3.9017,-0.65761 6.26403,-4 1.55492,-2.2 3.49926,-5.35 4.32076,-7 0.8215,-1.65 2.46109,-4.51298 3.64354,-6.36219 2.42545,-3.79311 5.67898,-14.37937 6.49684,-21.13929 0.45445,-3.75622 0.18713,-4.82501 -1.61467,-6.45561 -1.7356,-1.5707 -2.51835,-1.7299 -3.9892,-0.81134 -1.94495,1.21465 -1.7149,1.75964 -6.0074,-14.23157 -0.66964,-2.49466 -3.60966,-6.96445 -7.81226,-11.87716 -6.70009,-7.83219 -6.80704,-7.90482 -18.73855,-12.72393 -6.6,-2.66573 -12.99667,-4.85851 -14.21482,-4.87285 -2.50788,-0.0295 -3.80809,-1.96603 -4.77284,-7.1086 -0.9745,-5.1945 0.35511,-5.77253 10.98766,-4.77676 15.12102,1.41613 33.31786,2.8896 47.5,3.84626 7.425,0.50085 22.05,1.62684 32.5,2.50219 39.25936,3.28859 56.32045,4.60484 67,5.169 11.82423,0.62463 16.85138,2.45554 18.4605,6.7234 1.18927,3.15429 -0.79595,6.11611 -10.46859,15.61845 -11.28741,11.08868 -17.38306,22.4818 -19.86234,37.12387 -2.60164,15.36467 -2.53489,15.77744 4.12043,25.48064 2.27743,3.32042 3.25,5.88555 3.25,8.57185 0,3.47403 -0.92835,4.82562 -9.90082,14.41467 l -9.90082,10.58119 -32.00534,57.66389 -32.00534,57.66389 -0.69044,9.12913 c -0.60242,7.9654 -0.39867,10.03501 1.59831,16.23546 2.15256,6.68348 2.19429,7.30439 0.70135,10.43513 -2.81385,5.9007 -7.57927,6.71541 -38.66173,6.60969 L 320.5,607.81882 Z m 42.54105,-6.11762 c 2.30624,-2.1666 3.16611,-5.82569 1.36902,-5.82569 -0.51999,0 -1.53671,-1.2375 -2.25937,-2.75 -1.49901,-3.13735 -5.47148,-4.25718 -6.41155,-1.8074 -0.33407,0.87058 -0.0158,2.29569 0.70724,3.16691 1.10383,1.33004 1.04159,1.73685 -0.38813,2.53696 -1.67689,0.93843 -2.33783,4.88512 -1.03609,6.18686 1.40232,1.40233 5.80183,0.57517 8.01888,-1.50764 z m 94,-204 c 3.06991,-2.88404 2.91863,-5.28769 -0.56759,-9.01794 -2.31466,-2.47667 -3.39744,-2.95442 -5.5,-2.42671 -2.79079,0.70044 -3.49457,3.34235 -1.43817,5.39875 0.9064,0.9064 0.85917,1.77889 -0.20378,3.76504 -1.18929,2.2222 -1.17943,2.71439 0.0702,3.50489 2.40575,1.52185 5.19162,1.07548 7.63934,-1.22403 z M 367,359.72554 c 0,-3.3321 -2.48857,-1.21773 -2.76763,2.35147 -0.25259,3.23059 -0.18233,3.31388 1.25,1.48186 0.8347,-1.06762 1.51763,-2.79262 1.51763,-3.83333 z m 49.86176,-7.34127 c 1.51223,-1.0592 1.96798,-1.95453 1.32317,-2.59934 -1.51497,-1.51497 -5.18493,0.10058 -5.18493,2.28246 0,2.35512 0.85196,2.42503 3.86176,0.31688 z m 71.90948,73.80136 c -2.75189,-0.31704 -10.44417,-8.01133 -12.5345,-12.53778 -0.54554,-1.18132 -2.40423,-5.07285 -4.13043,-8.64785 -2.87865,-5.96177 -3.08279,-7.03823 -2.46536,-13 0.37024,-3.575 1.21995,-7.4 1.88825,-8.5 0.66829,-1.1 2.06012,-4.46054 3.09294,-7.46788 1.49108,-4.34166 3.7646,-7.43119 11.03818,-15 7.479,-7.78256 10.79989,-10.40185 18.09321,-14.27066 l 8.93289,-4.73855 27.65679,-0.67185 L 568,340.67921 v 2.19364 c 0,1.2065 -1.07376,4.31618 -2.38612,6.91039 -4.19432,8.29109 -6.6424,17.96065 -6.74179,26.62904 -0.12342,10.76451 0.6361,14.17393 5.77528,25.92469 3.64365,8.33122 4.35263,10.99261 4.35263,16.33905 0,4.22355 -0.42338,6.52595 -1.25,6.79772 -1.50771,0.4957 -75.09767,1.15902 -78.97876,0.71189 z m 48.8372,-7.86561 C 539.4203,417.62474 542.46161,412 541.02568,412 540.46156,412 540,410.88176 540,409.51502 c 0,-1.36673 -1.39925,-4.75905 -3.10945,-7.53847 -5.81372,-9.4485 -7.08458,-17.76574 -4.69564,-30.73099 0.82621,-4.48399 1.41022,-5.9081 1.89267,-4.61529 0.67709,1.81438 0.72004,1.81494 1.4508,0.0188 0.48187,-1.18439 0.25345,-2.1597 -0.6343,-2.70836 -1.10491,-0.68287 -1.13458,-1.11022 -0.14572,-2.09908 3.75786,-3.75786 -0.69166,-10.65148 -7.41007,-11.48038 -3.32061,-0.40968 -5.31026,0.36146 -14.51026,5.62382 -10.96655,6.27283 -17.56196,12.61916 -21.82634,21.00208 -2.97343,5.84517 -6.221,18.04276 -5.53332,20.78269 0.96842,3.85848 9.12301,13.88607 12.51246,15.38638 3.18524,1.40993 3.97593,2.84377 1.56819,2.84377 -2.10372,0 -3.03929,2.06854 -1.43714,3.17749 1.41358,0.97842 36.69908,0.21218 39.48656,-0.85747 z M 105.3609,325.05423 C 97.584393,324.10838 89.825873,322.7563 88.119742,322.0496 85.185269,320.8341 81,315.59196 81,313.13197 81,312.31336 89.698151,312 112.42054,312 h 31.42055 l 0.64288,2.92701 c 0.95297,4.33887 -1.63087,8.51449 -6.46579,10.44904 -5.09477,2.03852 -13.97018,1.95106 -32.65728,-0.32182 z M 66.75,310.9199 C 63.987894,309.31112 64.647451,304.79099 69,295.5 c 2.2,-4.69614 4,-8.85859 4,-9.24989 0,-0.8267 3.527733,-9.94394 6.094189,-15.75011 0.972449,-2.2 2.520435,-6.34587 3.43997,-9.21305 0.919535,-2.86718 2.300522,-5.73478 3.068861,-6.37245 C 86.371359,254.27684 87,253.21365 87,252.55187 c 0,-0.66178 1.125,-2.26012 2.5,-3.55187 1.375,-1.29175 2.5,-3.0084 2.5,-3.81478 0,-1.35132 1.575744,-5.17729 5.842261,-14.18522 1.475391,-3.11501 2.180229,-3.56006 6.407739,-4.04597 2.6125,-0.30028 4.75,-0.21271 4.75,0.1946 0,0.40731 -1.60922,4.253 -3.57605,8.54597 -1.96682,4.29297 -9.013708,21.27188 -15.659744,37.7309 -11.383361,28.19109 -12.024877,30.14589 -11.068728,33.72811 0.558236,2.09143 0.780122,4.03746 0.493081,4.3245 C 78.260408,312.40626 68.554053,311.97067 66.75,310.9199 Z M 110,221 c 0,-0.55 0.45,-1 1,-1 0.55,0 1,0.45 1,1 0,0.55 -0.45,1 -1,1 -0.55,0 -1,-0.45 -1,-1 z m 593.75,-31.69978 c -8.1125,-0.19453 -14.75,-0.62955 -14.75,-0.96671 0,-0.33716 0.69961,-1.12459 1.55469,-1.74984 1.58744,-1.16077 2.01312,-9.23248 2.5358,-48.08367 0.0962,-7.15 0.5799,-13.51385 1.07492,-14.14189 0.59516,-0.75509 6.03851,-1.18645 16.06946,-1.27344 14.1931,-0.12309 15.44007,-0.29017 19.37452,-2.59591 3.85696,-2.26033 5.33446,-2.47971 17.84593,-2.64983 7.50246,-0.10202 13.81803,-0.4722 14.03461,-0.82263 0.21658,-0.35043 -0.01,-7.35996 -0.50256,-15.57673 L 760.09103,86.5 l 2.70448,-3.886165 c 1.48747,-2.137391 3.1487,-4.724891 3.69162,-5.75 C 767.03005,75.838726 768.12605,75 768.92268,75 c 0.79663,0 2.45829,-0.948724 3.69257,-2.108275 2.22167,-2.087145 2.32254,-2.091161 10.06445,-0.400717 13.28176,2.900065 13.11471,2.89598 17.75537,0.434114 3.85133,-2.043123 4.80926,-2.179457 8.21241,-1.168797 2.11888,0.629263 8.33446,1.407237 13.81238,1.728831 7.04034,0.413319 10.47369,1.049719 11.71276,2.171061 3.46748,3.138028 6.72155,-0.841935 6.92625,-8.471317 l 0.0989,-3.6849 1.49498,4.5 c 2.65787,8.000408 2.62728,27.073113 -0.11127,69.37752 -1.4198,21.93263 -2.58834,41.28263 -2.59676,43 -0.008,1.71736 -0.35704,3.65999 -0.77469,4.31694 -1.72315,2.71041 -89.72283,5.70248 -135.46,4.60576 z M 725,181 c 0,-0.55 -0.45,-1 -1,-1 -0.55,0 -1,0.45 -1,1 0,0.55 0.45,1 1,1 0.55,0 1,-0.45 1,-1 z m -381.37507,2.88977 C 343.32819,181.4754 342.87459,174.775 342.61694,169 c -0.60777,-13.62253 1.83892,-22.99012 7.55972,-28.94377 l 3.77002,-3.92347 34.77666,0.0131 c 44.00328,0.0166 43.50275,0.0289 42.83213,-1.05614 -1.44795,-2.34282 -15.58447,-3.29799 -43.57134,-2.94398 -25.41595,0.32149 -28.69188,0.18772 -27.93638,-1.14079 0.47072,-0.82774 4.52089,-5.55498 9.00036,-10.50498 4.47947,-4.95 9.20184,-10.575 10.49415,-12.5 1.29231,-1.925 5.54556,-6.86663 9.45167,-10.981392 5.45767,-5.749203 7.30429,-7.15412 7.97561,-6.067889 0.67528,1.092626 3.21824,1.368391 11.20203,1.214777 5.68064,-0.1093 12.63092,-0.460603 15.44507,-0.780673 3.2654,-0.371393 7.60708,0.0224 12,1.088403 5.2175,1.266104 9.54549,1.541442 17.88336,1.137708 6.05,-0.292952 20.92387,-0.693923 33.05305,-0.891047 12.12917,-0.197124 22.57233,-0.679343 23.20701,-1.071598 1.42682,-0.88182 35.20032,-1.389997 34.66244,-0.521552 -0.43854,0.708052 23.56205,1.948904 42.92617,2.219324 11.88846,0.166022 12.98083,0.342627 14.61696,2.363165 1.59636,1.971429 1.78532,5.178494 1.94355,32.987254 0.0964,16.94194 0.28077,36.42852 0.40973,43.30352 l 0.23446,12.5 8.47332,0.5 c 16.6956,0.98519 3.38696,1.84697 -29.52669,1.91196 -18.15,0.0358 -79.4255,0.3582 -136.16777,0.71637 l -103.16776,0.65122 -0.53954,-4.38978 z m 47.13726,-10.95671 C 394.84632,171.50932 401.22751,162 398.09878,162 c -0.49568,0 -1.84604,-1.60133 -3.00081,-3.55852 C 392.63734,154.27102 391,154.71753 391,159.55902 391,162.60087 390.69744,163 388.39159,163 c -2.27666,0 -2.52932,0.31511 -1.98657,2.47758 0.52894,2.10747 0.20902,2.5695 -2.1416,3.09294 -6.97996,1.55432 -6.90411,1.49226 -4.35084,3.55978 2.5995,2.10494 6.3237,2.3805 10.84961,0.80276 z m 77.59824,-36.56898 C 470.91219,136.01432 473,135.41055 473,135.02236 473,134.05939 465.89196,132 462.56824,132 c -1.48485,0 -3.65124,0.50924 -4.8142,1.13164 -2.04764,1.09586 -2.05533,1.17488 -0.24313,2.5 2.08867,1.52727 4.07317,1.66124 10.84952,0.73244 z M 513.45,136.01365 c 5.80569,-0.0201 3.05644,-2.14398 -4.01789,-3.10398 C 503.25773,132.07178 501,132.50763 501,134.53744 c 0,1.46351 3.3963,2.43563 6.5,1.86049 1.1,-0.20384 3.7775,-0.37677 5.95,-0.38428 z M 641.5,187 c -1.54896,-0.66561 -1.04154,-0.87528 2.25,-0.92971 2.3375,-0.0387 4.25,0.37971 4.25,0.92971 0,1.19837 -3.71124,1.19837 -6.5,0 z m 16,0 c -1.77225,-0.76156 -1.68684,-0.86743 0.75,-0.92971 1.5125,-0.0387 2.75,0.37971 2.75,0.92971 0,1.17371 -0.76862,1.17371 -3.5,0 z m 16.25,0.33772 c 0.6875,-0.27741 1.8125,-0.27741 2.5,0 0.6875,0.27741 0.125,0.50439 -1.25,0.50439 -1.375,0 -1.9375,-0.22698 -1.25,-0.50439 z M 451.26375,91.282419 c 1.52006,-0.229855 3.77006,-0.223712 5,0.01365 1.22994,0.237362 -0.0138,0.425424 -2.76375,0.417917 -2.75,-0.0075 -3.75631,-0.201713 -2.23625,-0.431567 z m 12.03314,-0.487067 C 463.9586,90.374753 467.875,90.075935 472,90.131314 c 8.7776,0.117841 7.52813,0.624709 -2.70311,1.096564 -3.96172,0.182711 -6.66172,-0.01193 -6,-0.432526 z M 753.5,89 c -0.33992,-0.55 -0.14148,-1 0.44098,-1 0.58246,0 1.05902,0.45 1.05902,1 0,0.55 -0.19844,1 -0.44098,1 -0.24254,0 -0.7191,-0.45 -1.05902,-1 z M 599,86 c 0,-1.1 0.45,-2 1,-2 0.55,0 1,0.9 1,2 0,1.1 -0.45,2 -1,2 -0.55,0 -1,-0.9 -1,-2 z M 837.56429,56.293128 c -0.54268,-1.425198 -0.42782,-1.540062 0.5598,-0.559795 0.68342,0.678334 0.99067,1.485241 0.68278,1.793128 -0.30789,0.307888 -0.86705,-0.247112 -1.24258,-1.233333 z M 582,50.60769 C 577.11962,49.886897 552.09508,49.5 510.35451,49.5 h -64.1455 l 1.40585,-2.720356 c 0.77321,-1.496195 2.25197,-3.17319 3.28613,-3.726655 1.2325,-0.659614 24.2254,-0.842655 66.73965,-0.5313 158.32565,1.159506 210.17774,1.452617 259.16973,1.465043 L 829.12073,44 l -0.31036,3.739441 -0.31037,3.739442 -47,-0.150646 c -25.85,-0.08286 -50.375,-0.475045 -54.5,-0.871532 -4.41978,-0.424822 -12.6337,-0.20699 -20,0.530396 -10.99398,1.100527 -13.80064,1.045125 -23.29534,-0.459838 -8.91908,-1.413723 -12.20552,-1.52134 -18.90901,-0.619192 -10.50749,1.414089 -28.19251,1.390885 -33.29565,-0.04369 -3.55771,-1.000127 -21.32695,-0.298923 -39,1.539006 -1.65,0.171593 -6.375,-0.186472 -10.5,-0.795701 z"
     style="fill:#ab0605" />
</svg>
